<svg width="29" height="30" viewBox="0 0 29 30" fill="none" xmlns="http://www.w3.org/2000/svg">
<g clip-path="url(#clip0)">
<path d="M13.707 28.3672C13.707 28.9929 13.1999 29.5 12.5742 29.5H6.06055C3.56194 29.5 1.5293 27.4674 1.5293 24.9688V5.03125C1.5293 2.53265 3.56194 0.5 6.06055 0.5H19.9879C22.4863 0.5 24.5192 2.53265 24.5192 5.03125V17.0391C24.5192 17.6648 24.0119 18.1719 23.3864 18.1719C22.7607 18.1719 22.2536 17.6648 22.2536 17.0391V5.03125C22.2536 3.78206 21.2371 2.76562 19.9879 2.76562H6.06055C4.81136 2.76562 3.79492 3.78206 3.79492 5.03125V24.9688C3.79492 26.2179 4.81136 27.2344 6.06055 27.2344H12.5742C13.1999 27.2344 13.707 27.7415 13.707 28.3672ZM27.0539 18.95C26.5452 18.5858 25.8376 18.7031 25.4735 19.2115L19.8897 27.0111C19.7373 27.1879 19.5461 27.226 19.4439 27.2328C19.3381 27.2397 19.1337 27.2264 18.9582 27.0594L15.3434 23.5884C14.8923 23.1551 14.1752 23.1695 13.7418 23.6209C13.3083 24.0722 13.3229 24.7893 13.7743 25.2225L17.3927 28.6971C17.9347 29.2128 18.658 29.5 19.4023 29.5C19.4662 29.5 19.5304 29.4978 19.5946 29.4936C20.4052 29.4396 21.1621 29.0453 21.6712 28.4117C21.6843 28.3955 21.6971 28.3787 21.7093 28.3617L27.3156 20.5304C27.6798 20.0218 27.5627 19.3142 27.0539 18.95ZM18.8551 7.29688H7.18716C6.56146 7.29688 6.05435 7.80399 6.05435 8.42969C6.05435 9.05539 6.56146 9.5625 7.18716 9.5625H18.8551C19.4806 9.5625 19.9879 9.05539 19.9879 8.42969C19.9879 7.80399 19.4806 7.29688 18.8551 7.29688ZM19.9879 12.9609C19.9879 12.3352 19.4806 11.8281 18.8551 11.8281H7.18716C6.56146 11.8281 6.05435 12.3352 6.05435 12.9609C6.05435 13.5866 6.56146 14.0938 7.18716 14.0938H18.8551C19.4806 14.0938 19.9879 13.5866 19.9879 12.9609ZM7.18716 16.3594C6.56146 16.3594 6.05435 16.8665 6.05435 17.4922C6.05435 18.1179 6.56146 18.625 7.18716 18.625H14.2734C14.8991 18.625 15.4063 18.1179 15.4063 17.4922C15.4063 16.8665 14.8991 16.3594 14.2734 16.3594H7.18716Z" fill="#2086E9"/>
</g>
<defs>
<clipPath id="clip0">
<rect width="29" height="29" fill="white" transform="translate(0 0.5)"/>
</clipPath>
</defs>
</svg>
