<svg width="22" height="22" viewBox="0 0 22 22" fill="none" xmlns="http://www.w3.org/2000/svg">
<path fill-rule="evenodd" clip-rule="evenodd" d="M10.9932 21.9999L10.9932 11.2816L10.9933 11.2815L16.3715 20.5967C14.7815 21.4902 12.9469 21.9999 10.9932 21.9999ZM5.61511 20.5967L10.9932 11.2816V11.2815H10.9932L10.9932 11.2815V11.2814L10.9932 11.2813L10.9932 11.2814L10.9932 0.0134277C8.94142 0.0134277 7.02091 0.575538 5.37727 1.55416L10.9932 11.2813L1.35432 5.71633C0.491067 7.28582 0 9.08889 0 11.0066C0 11.0985 0.00112728 11.1902 0.00336877 11.2815L10.9932 11.2815L1.59266 16.7089C2.57528 18.3254 3.9631 19.6683 5.61511 20.5967ZM16.6093 1.55424L10.9933 11.2814L10.9933 11.2814L20.6322 5.71642C19.6861 3.9963 18.293 2.55674 16.6093 1.55424ZM21.9831 11.2815H10.9935L20.3938 16.7088C21.36 15.1194 21.9344 13.2657 21.9831 11.2815Z" fill="#FDD541"/>
<path fill-rule="evenodd" clip-rule="evenodd" d="M16.368 20.5833C18.02 19.6549 19.4078 18.3119 20.3904 16.6954L10.99 11.2681H21.9797C21.9819 11.1767 21.9831 11.0851 21.9831 10.9932C21.9831 9.07549 21.492 7.27245 20.6288 5.70298L10.9899 11.268L10.99 11.2681H10.9898L16.368 20.5833ZM16.6059 1.54078C14.9622 0.562127 13.0417 0 10.9899 0C10.9898 0 10.9898 4.46335e-10 10.9898 4.46335e-10V11.268L10.9899 11.268L16.6059 1.54078ZM5.37382 1.54079C3.69013 2.54328 2.297 3.98284 1.35091 5.70297L10.9897 11.2679L5.37382 1.54079ZM0 11.2681C0.0486955 13.2523 0.623128 15.1061 1.58928 16.6955L10.9897 11.2681L0 11.2681ZM5.61168 20.5833C7.20156 21.4768 9.03614 21.9864 10.9898 21.9864V11.2682L5.61168 20.5833Z" fill="#484946"/>
<circle cx="10.9931" cy="11.0066" r="6.59593" fill="#242424"/>
</svg>
