<svg width="39" height="39" viewBox="0 0 39 39" fill="none" xmlns="http://www.w3.org/2000/svg">
<path fill-rule="evenodd" clip-rule="evenodd" d="M3.57445 3.59383C3.07442 1.59384 8.57442 -1.90621 8.57445 6.09383L10.5744 8.09379C13.4077 5.92712 20.8744 2.99379 28.0744 8.59379L30.5744 6.09379C29.5744 1.59376 34.5744 -1.40624 35.5744 3.59379C37.0744 3.09375 41.5744 8.59375 33.0744 8.59379L29.5744 12.0938C30.0744 13.7604 30.7744 17.7938 29.5744 20.5938C29.1744 21.3938 29.4078 22.5938 29.5744 23.0938C30.4078 23.5938 31.6744 25.1938 30.0744 27.5938L33.0744 30.5938C37.5744 29.5938 40.5744 34.5937 35.5744 35.5937C36.0744 37.5937 30.0744 41.0937 30.5744 33.0937L26.0744 28.5938C25.7411 28.2604 25.5695 28.611 24.5744 32.0938C23.5744 35.5937 22.5744 33.0937 22.5744 31.5938C22.5744 30.0938 21.5744 30.5938 21.5744 33.0937C21.5744 35.1553 18.5744 34.5937 19.0744 31.5938C19.0744 31.0938 18.9744 30.2938 18.5744 31.0938C18.4244 31.3938 18.4094 31.8287 18.3944 32.2637C18.3594 33.2788 18.3244 34.2937 16.5744 33.5937C16.0744 33.0937 15.9077 31.9271 16.0744 31.0938C16.0744 30.9271 15.9744 30.6938 15.5744 31.0938C15.3244 31.3438 15.3244 31.8437 15.3244 32.3437C15.3244 32.8437 15.3244 33.3437 15.0744 33.5937C14.7209 33.9473 13.5744 34.5937 13.0744 30.5938C13.0744 30.4271 12.9744 29.8938 12.5744 29.0938L8.57442 33.0937C9.57442 36.5937 5.57442 41.0937 3.57442 35.5937C1.57437 36.0937 -1.92567 30.5938 6.07442 30.5938L8.57433 28.0938C7.57433 27.2604 6.07433 25.1938 8.07433 23.5938C9.27433 22.7938 8.57433 20.5938 8.07433 19.5938C7.741 17.4271 7.47433 12.7937 9.07433 11.5938L6.07433 8.59375C2.57442 9.59375 -1.92555 5.09375 3.57445 3.59383ZM11.0749 20.094C12.9331 18.2355 19.574 19.2954 16.5745 24.0938C14.3866 27.5937 8.07448 23.0949 11.0749 20.094ZM26.5746 20.0939C24.7165 18.2353 18.521 19.6239 21.0748 24.0938C23.0745 27.5937 29.5751 23.0947 26.5746 20.0939ZM19.0744 23.5938C17.0745 24.5938 16.5745 28.5938 19.0745 27.0938C19.0745 27.5938 22.5745 28.0938 19.0744 23.5938Z" fill="#2086E9"/>
<path d="M8.57445 6.09383L8.52445 6.09383L8.52445 6.11454L8.5391 6.12918L8.57445 6.09383ZM3.57445 3.59383L3.58761 3.64206L3.63483 3.62919L3.62296 3.5817L3.57445 3.59383ZM10.5744 8.09379L10.5391 8.12915L10.57 8.1601L10.6048 8.13351L10.5744 8.09379ZM28.0744 8.59379L28.0437 8.63326L28.0786 8.66036L28.1098 8.62915L28.0744 8.59379ZM30.5744 6.09379L30.6098 6.12915L30.6292 6.10974L30.6232 6.08294L30.5744 6.09379ZM35.5744 3.59379L35.5254 3.6036L35.5365 3.65914L35.5902 3.64122L35.5744 3.59379ZM33.0744 8.59379L33.0744 8.54379L33.0537 8.54379L33.0391 8.55844L33.0744 8.59379ZM29.5744 12.0938L29.5391 12.0584L29.5179 12.0795L29.5265 12.1081L29.5744 12.0938ZM29.5744 20.5938L29.6192 20.6162L29.6204 20.6134L29.5744 20.5938ZM29.5744 23.0938L29.527 23.1096L29.5328 23.1271L29.5487 23.1366L29.5744 23.0938ZM30.0744 27.5938L30.0328 27.566L30.0101 27.6001L30.0391 27.6291L30.0744 27.5938ZM33.0744 30.5938L33.0391 30.6291L33.0585 30.6485L33.0853 30.6426L33.0744 30.5938ZM35.5744 35.5937L35.5646 35.5447L35.5132 35.555L35.5259 35.6059L35.5744 35.5937ZM30.5744 33.0937L30.6243 33.0969L30.6257 33.0743L30.6098 33.0584L30.5744 33.0937ZM26.0744 28.5938L26.0391 28.6291L26.0391 28.6291L26.0744 28.5938ZM24.5744 32.0938L24.5263 32.08L24.5744 32.0938ZM19.0744 31.5938L19.1244 31.6021V31.5938H19.0744ZM18.3944 32.2637L18.4444 32.2655L18.4444 32.2655L18.3944 32.2637ZM16.5744 33.5937L16.5391 33.6291L16.5463 33.6364L16.5558 33.6402L16.5744 33.5937ZM16.0744 31.0938L16.1244 31.1038V31.0938H16.0744ZM13.0744 30.5938H13.024L13.0248 30.6L13.0744 30.5938ZM12.5744 29.0938L12.6191 29.0714L12.5881 29.0093L12.5391 29.0584L12.5744 29.0938ZM8.57442 33.0937L8.53906 33.0584L8.51826 33.0792L8.52634 33.1075L8.57442 33.0937ZM3.57442 35.5937L3.62141 35.5767L3.60601 35.5343L3.56229 35.5452L3.57442 35.5937ZM6.07442 30.5938V30.6438H6.09513L6.10977 30.6291L6.07442 30.5938ZM8.57433 28.0938L8.60969 28.1291L8.6484 28.0904L8.60634 28.0553L8.57433 28.0938ZM8.07433 23.5938L8.04649 23.552L8.0431 23.5547L8.07433 23.5938ZM8.07433 19.5938L8.02491 19.6014L8.02611 19.6091L8.02961 19.6161L8.07433 19.5938ZM9.07433 11.5938L9.10433 11.6338L9.15045 11.5992L9.10969 11.5584L9.07433 11.5938ZM6.07433 8.59375L6.10969 8.55839L6.08888 8.53759L6.0606 8.54567L6.07433 8.59375ZM11.0749 20.094L11.1103 20.1294L11.1103 20.1294L11.0749 20.094ZM16.5745 24.0938L16.6168 24.1203L16.6168 24.1203L16.5745 24.0938ZM26.5746 20.0939L26.5393 20.1292L26.5393 20.1292L26.5746 20.0939ZM21.0748 24.0938L21.1183 24.069L21.1183 24.069L21.0748 24.0938ZM19.0744 23.5938L19.1138 23.5631L19.0887 23.5307L19.052 23.549L19.0744 23.5938ZM19.0745 27.0938L19.1245 27.0938L19.1245 27.0054L19.0488 27.0509L19.0745 27.0938ZM8.62445 6.09383C8.62444 4.08961 8.28023 2.7968 7.76454 2.0193C7.24662 1.23844 6.55698 0.979774 5.88218 1.04404C5.21113 1.10796 4.55971 1.49045 4.10794 1.98186C3.65757 2.47174 3.39502 3.08229 3.52595 3.60595L3.62296 3.5817C3.50387 3.10537 3.74131 2.52841 4.18155 2.04954C4.62039 1.5722 5.25023 1.20468 5.89167 1.14359C6.52938 1.08286 7.18349 1.32418 7.6812 2.07458C8.18114 2.82833 8.52444 4.09803 8.52445 6.09383L8.62445 6.09383ZM10.6098 8.05844L8.60981 6.05847L8.5391 6.12918L10.5391 8.12915L10.6098 8.05844ZM28.1051 8.55432C20.8809 2.93549 13.3882 5.87911 10.544 8.05407L10.6048 8.13351C13.4273 5.97513 20.8679 3.05209 28.0437 8.63326L28.1051 8.55432ZM30.5391 6.05844L28.0391 8.55844L28.1098 8.62915L30.6098 6.12915L30.5391 6.05844ZM35.6234 3.58399C35.3719 2.32634 34.8667 1.5607 34.2561 1.19918C33.6441 0.836772 32.9374 0.887068 32.3003 1.23745C31.0284 1.93701 30.0214 3.8358 30.5256 6.10464L30.6232 6.08294C30.1274 3.85174 31.1204 2.00052 32.3485 1.32508C32.9614 0.98796 33.6298 0.944511 34.2052 1.28523C34.7821 1.62685 35.2769 2.36123 35.5254 3.6036L35.6234 3.58399ZM33.0744 8.64379C35.2028 8.64378 36.5275 8.29985 37.2899 7.78361C37.6721 7.52487 37.9135 7.22241 38.0427 6.89841C38.1719 6.57461 38.1875 6.23269 38.1235 5.8969C37.9959 5.22686 37.5508 4.57707 37.0452 4.12674C36.792 3.90126 36.5217 3.72396 36.2653 3.61881C36.0099 3.51408 35.7622 3.47848 35.5586 3.54636L35.5902 3.64122C35.7616 3.58409 35.9827 3.61098 36.2273 3.71133C36.4709 3.81124 36.7318 3.98159 36.9787 4.20142C37.473 4.64171 37.9029 5.27316 38.0253 5.91562C38.0863 6.23608 38.0707 6.55822 37.9498 6.86138C37.829 7.16433 37.6018 7.45172 37.2339 7.7008C36.4963 8.2002 35.196 8.54378 33.0744 8.54379L33.0744 8.64379ZM29.6098 12.1291L33.1098 8.62915L33.0391 8.55844L29.5391 12.0584L29.6098 12.1291ZM29.6204 20.6134C30.2247 19.2033 30.3495 17.4861 30.2618 15.916C30.1741 14.3452 29.8734 12.9163 29.6223 12.0794L29.5265 12.1081C29.7755 12.9379 30.0747 14.359 30.162 15.9215C30.2493 17.4848 30.1241 19.1842 29.5285 20.5741L29.6204 20.6134ZM29.6219 23.0779C29.5398 22.8317 29.4407 22.411 29.4118 21.9531C29.3829 21.4944 29.4248 21.0047 29.6191 20.6161L29.5297 20.5714C29.324 20.9828 29.2826 21.4931 29.312 21.9594C29.3415 22.4265 29.4424 22.8558 29.527 23.1096L29.6219 23.0779ZM30.116 27.6215C30.9228 26.4113 31.0105 25.3962 30.7849 24.6173C30.56 23.8408 30.0257 23.3062 29.6001 23.0509L29.5487 23.1366C29.9564 23.3813 30.4721 23.8967 30.6889 24.6452C30.905 25.3913 30.826 26.3762 30.0328 27.566L30.116 27.6215ZM33.1098 30.5584L30.1098 27.5584L30.0391 27.6291L33.0391 30.6291L33.1098 30.5584ZM35.5842 35.6428C36.8419 35.3912 37.6075 34.886 37.969 34.2755C38.3314 33.6634 38.2811 32.9567 37.9307 32.3197C37.2312 31.0477 35.3324 30.0408 33.0636 30.5449L33.0853 30.6426C35.3164 30.1467 37.1677 31.1398 37.8431 32.3678C38.1802 32.9808 38.2237 33.6491 37.883 34.2245C37.5413 34.8015 36.807 35.2962 35.5646 35.5447L35.5842 35.6428ZM30.5245 33.0906C30.3992 35.0949 30.6802 36.3887 31.1728 37.1674C31.6679 37.9499 32.3741 38.2076 33.0789 38.1435C33.7803 38.0798 34.4782 37.6981 34.9691 37.2072C35.458 36.7183 35.7543 36.1073 35.6229 35.5816L35.5259 35.6059C35.6445 36.0802 35.3783 36.6567 34.8984 37.1365C34.4206 37.6143 33.7435 37.9827 33.0699 38.044C32.3998 38.1049 31.731 37.8626 31.2573 37.1139C30.7812 36.3613 30.4996 35.0926 30.6243 33.0969L30.5245 33.0906ZM26.0391 28.6291L30.5391 33.1291L30.6098 33.0584L26.1098 28.5584L26.0391 28.6291ZM24.6225 32.1075C25.1204 30.3647 25.4111 29.4102 25.6184 28.9326C25.6701 28.8136 25.7158 28.7261 25.7573 28.6642C25.7991 28.6016 25.834 28.5692 25.8622 28.5547C25.8875 28.5417 25.9102 28.5414 25.9364 28.552C25.9654 28.5637 25.9988 28.5889 26.0391 28.6291L26.1098 28.5584C26.0667 28.5153 26.0218 28.4785 25.9737 28.4592C25.9229 28.4387 25.8697 28.4384 25.8165 28.4658C25.7662 28.4916 25.7199 28.5402 25.6741 28.6086C25.628 28.6776 25.5795 28.7712 25.5267 28.8928C25.3161 29.3779 25.0235 30.3401 24.5263 32.08L24.6225 32.1075ZM22.5244 31.5938C22.5244 31.9737 22.5876 32.4157 22.6981 32.8104C22.8081 33.2031 22.9672 33.5572 23.1641 33.7541C23.2632 33.8533 23.3764 33.9169 23.5012 33.9191C23.6265 33.9214 23.7522 33.8617 23.8754 33.7385C24.1196 33.4943 24.3723 32.9832 24.6225 32.1075L24.5263 32.08C24.2765 32.9543 24.0293 33.4432 23.8047 33.6678C23.6936 33.7789 23.5926 33.8208 23.5031 33.8191C23.413 33.8175 23.3231 33.7717 23.2348 33.6834C23.0567 33.5053 22.9032 33.1719 22.7944 32.7834C22.6862 32.3968 22.6244 31.9638 22.6244 31.5938H22.5244ZM21.6244 33.0937C21.6244 32.4719 21.6866 31.9761 21.7792 31.6059C21.8722 31.2338 21.9944 30.9945 22.1098 30.8791C22.1672 30.8217 22.2177 30.8 22.258 30.8C22.2965 30.8 22.3377 30.8198 22.3782 30.8738C22.4617 30.9851 22.5244 31.2209 22.5244 31.5938H22.6244C22.6244 31.2166 22.5622 30.9524 22.4582 30.8138C22.4049 30.7427 22.3368 30.7 22.258 30.7C22.1811 30.7 22.1066 30.7408 22.0391 30.8084C21.9044 30.943 21.7766 31.2037 21.6822 31.5816C21.5872 31.9614 21.5244 32.4656 21.5244 33.0937H21.6244ZM19.0251 31.5855C18.7723 33.1021 19.4034 34.0203 20.1194 34.2887C20.476 34.4223 20.853 34.3932 21.142 34.192C21.4318 33.9902 21.6244 33.6216 21.6244 33.0937H21.5244C21.5244 33.5967 21.342 33.9309 21.0849 34.1099C20.8271 34.2895 20.4854 34.319 20.1545 34.195C19.4954 33.948 18.8765 33.0854 19.1237 31.602L19.0251 31.5855ZM18.6191 31.1161C18.6684 31.0177 18.7121 30.9457 18.7505 30.8954C18.7895 30.8443 18.8201 30.8195 18.8419 30.8096C18.8602 30.8013 18.8709 30.8038 18.881 30.8104C18.8949 30.8195 18.9118 30.84 18.929 30.8772C18.9631 30.951 18.9874 31.0663 19.0029 31.198C19.0182 31.3285 19.0244 31.4702 19.0244 31.5938H19.1244C19.1244 31.4673 19.1181 31.3215 19.1022 31.1863C19.0864 31.0525 19.0608 30.924 19.0198 30.8353C18.9995 30.7913 18.9727 30.7508 18.9358 30.7267C18.8951 30.7001 18.848 30.6971 18.8007 30.7185C18.7568 30.7384 18.714 30.7784 18.671 30.8347C18.6274 30.8918 18.5805 30.9698 18.5297 31.0714L18.6191 31.1161ZM18.4444 32.2655C18.4519 32.0475 18.4594 31.8322 18.4834 31.6342C18.5075 31.4359 18.5479 31.2587 18.6191 31.1161L18.5297 31.0714C18.451 31.2288 18.4088 31.4191 18.3842 31.6221C18.3595 31.8253 18.3519 32.045 18.3444 32.262L18.4444 32.2655ZM16.5558 33.6402C16.9963 33.8164 17.3344 33.887 17.5947 33.8739C17.8574 33.8607 18.041 33.7619 18.1668 33.6029C18.2906 33.4463 18.3547 33.236 18.3908 33.0059C18.4269 32.7754 18.4357 32.5185 18.4444 32.2655L18.3444 32.262C18.3357 32.5165 18.327 32.7671 18.292 32.9905C18.2569 33.2143 18.1963 33.4043 18.0883 33.5409C17.9822 33.675 17.8267 33.7621 17.5896 33.774C17.3501 33.7861 17.0275 33.7211 16.593 33.5473L16.5558 33.6402ZM16.0254 31.0839C15.9407 31.5074 15.9409 32.0138 16.0252 32.4777C16.1093 32.9403 16.2786 33.3687 16.5391 33.6291L16.6098 33.5584C16.3702 33.3188 16.2062 32.9139 16.1236 32.4598C16.0413 32.0071 16.0415 31.5135 16.1234 31.1036L16.0254 31.0839ZM15.6098 31.1291C15.7078 31.031 15.7845 30.9749 15.8431 30.9466C15.9015 30.9183 15.9364 30.9201 15.9563 30.9279C15.9764 30.9357 15.9935 30.9542 16.0061 30.9858C16.0187 31.0172 16.0244 31.0564 16.0244 31.0938H16.1244C16.1244 31.0478 16.1176 30.9953 16.099 30.9486C16.0803 30.902 16.0475 30.856 15.9925 30.8347C15.9375 30.8132 15.8723 30.8213 15.7995 30.8566C15.7268 30.8918 15.641 30.9565 15.5391 31.0584L15.6098 31.1291ZM15.3744 32.3437C15.3744 32.0928 15.3745 31.8466 15.4052 31.6321C15.4359 31.4169 15.4963 31.2426 15.6098 31.1291L15.5391 31.0584C15.4025 31.1949 15.3379 31.3956 15.3062 31.6179C15.2743 31.8409 15.2744 32.0947 15.2744 32.3437H15.3744ZM15.1098 33.6291C15.2463 33.4926 15.3109 33.2919 15.3427 33.0696C15.3745 32.8466 15.3744 32.5928 15.3744 32.3437H15.2744C15.2744 32.5947 15.2743 32.8409 15.2437 33.0554C15.2129 33.2706 15.1525 33.4449 15.0391 33.5584L15.1098 33.6291ZM13.0248 30.6C13.1501 31.602 13.3161 32.3158 13.5012 32.817C13.6861 33.3176 13.8917 33.611 14.0994 33.7664C14.3097 33.9237 14.5183 33.9365 14.697 33.8847C14.8731 33.8336 15.0181 33.7208 15.1098 33.6291L15.0391 33.5584C14.954 33.6435 14.8231 33.744 14.6692 33.7886C14.5178 33.8325 14.3423 33.8232 14.1593 33.6863C13.9737 33.5474 13.7768 33.2746 13.595 32.7824C13.4135 32.2909 13.2488 31.5855 13.124 30.5875L13.0248 30.6ZM12.5297 29.1161C12.9281 29.9129 13.0244 30.4382 13.0244 30.5938H13.1244C13.1244 30.416 13.0207 29.8746 12.6191 29.0714L12.5297 29.1161ZM8.60977 33.1291L12.6098 29.1291L12.5391 29.0584L8.53906 33.0584L8.60977 33.1291ZM3.52743 35.6108C4.02931 36.991 4.66072 37.7559 5.31902 38.061C5.98096 38.3677 6.65703 38.2039 7.23011 37.7582C7.8022 37.3133 8.27591 36.5852 8.5439 35.7496C8.81203 34.9137 8.87564 33.966 8.62249 33.08L8.52634 33.1075C8.7732 33.9715 8.7118 34.8988 8.44868 35.7191C8.18543 36.5398 7.72163 37.2492 7.16872 37.6793C6.6168 38.1086 5.98037 38.2573 5.36106 37.9703C4.73811 37.6816 4.11953 36.9465 3.62141 35.5767L3.52743 35.6108ZM6.07442 30.5438C4.07018 30.5438 2.77737 30.888 1.99986 31.4036C1.219 31.9216 0.960323 32.6112 1.02459 33.286C1.0885 33.957 1.471 34.6085 1.96242 35.0602C2.45231 35.5106 3.06286 35.7732 3.58654 35.6423L3.56229 35.5452C3.08594 35.6643 2.50898 35.4269 2.0301 34.9866C1.55275 34.5478 1.18523 33.918 1.12414 33.2765C1.0634 32.6388 1.30474 31.9847 2.05514 31.487C2.80889 30.987 4.07861 30.6438 6.07442 30.6438V30.5438ZM8.53898 28.0584L6.03906 30.5584L6.10977 30.6291L8.60969 28.1291L8.53898 28.0584ZM8.0431 23.5547C7.53637 23.9601 7.24836 24.3976 7.12005 24.8408C6.99182 25.2837 7.02431 25.7282 7.1515 26.1458C7.40533 26.9792 8.03798 27.7119 8.54232 28.1322L8.60634 28.0553C8.11068 27.6423 7.49333 26.9249 7.24716 26.1167C7.12436 25.7135 7.09435 25.2892 7.21611 24.8686C7.3378 24.4483 7.61229 24.0274 8.10557 23.6328L8.0431 23.5547ZM8.02961 19.6161C8.27787 20.1126 8.5755 20.9069 8.66215 21.6744C8.7491 22.4445 8.62215 23.1684 8.0466 23.5521L8.10207 23.6354C8.72652 23.2191 8.84957 22.443 8.76152 21.6631C8.67317 20.8806 8.37079 20.0749 8.11905 19.5714L8.02961 19.6161ZM9.04433 11.5538C8.63199 11.863 8.34448 12.3895 8.14839 13.0307C7.952 13.6729 7.84537 14.4366 7.79942 15.2284C7.70749 16.8119 7.85787 18.5156 8.02491 19.6014L8.12375 19.5861C7.95746 18.5053 7.80784 16.8089 7.89925 15.2341C7.94496 14.4467 8.05083 13.6917 8.24402 13.0599C8.43751 12.4272 8.71668 11.9245 9.10433 11.6338L9.04433 11.5538ZM6.03898 8.62911L9.03897 11.6291L9.10969 11.5584L6.10969 8.55839L6.03898 8.62911ZM3.5613 3.54559C2.18065 3.92211 1.41364 4.4904 1.10751 5.1268C0.800029 5.76602 0.96475 6.45777 1.40917 7.06092C1.85343 7.66385 2.58085 8.18478 3.4165 8.49224C4.25246 8.79981 5.20094 8.8953 6.08807 8.64183L6.0606 8.54567C5.19777 8.7922 4.27129 8.70019 3.45103 8.39839C2.63046 8.09648 1.9204 7.58616 1.48968 7.0016C1.05912 6.41726 0.911354 5.76528 1.19763 5.17014C1.48526 4.57219 2.21826 4.0155 3.58761 3.64206L3.5613 3.54559ZM11.1103 20.1294C11.5636 19.676 12.3142 19.3963 13.1451 19.3099C13.975 19.2236 14.877 19.3311 15.6271 19.6437C16.3772 19.9563 16.9701 20.4715 17.1941 21.1979C17.4181 21.9241 17.2775 22.8748 16.5321 24.0672L16.6168 24.1203C17.3712 22.9136 17.5253 21.9323 17.2897 21.1684C17.0541 20.4046 16.433 19.8712 15.6656 19.5514C14.8981 19.2316 13.979 19.1227 13.1348 19.2104C12.2916 19.2981 11.5153 19.5828 11.0396 20.0587L11.1103 20.1294ZM16.5321 24.0672C15.9947 24.9268 15.2061 25.2942 14.3688 25.3173C13.5294 25.3405 12.6396 25.0172 11.9083 24.4911C11.1768 23.9648 10.6095 23.2395 10.4092 22.4646C10.2096 21.6928 10.3727 20.8671 11.1103 20.1294L11.0396 20.0587C10.277 20.8214 10.1039 21.6834 10.3123 22.4897C10.52 23.2929 11.1049 24.0362 11.8499 24.5723C12.595 25.1084 13.5059 25.4412 14.3716 25.4173C15.2394 25.3933 16.0603 25.0106 16.6168 24.1203L16.5321 24.0672ZM26.61 20.0585C26.134 19.5825 25.3852 19.3182 24.5761 19.2564C23.766 19.1944 22.8886 19.3346 22.1493 19.6753C21.41 20.0159 20.8046 20.5592 20.5482 21.3055C20.2915 22.0526 20.3881 22.9927 21.0314 24.1186L21.1183 24.069C20.4846 22.96 20.398 22.0503 20.6428 21.338C20.8878 20.6249 21.4685 20.099 22.1912 19.7661C22.9138 19.4332 23.774 19.2953 24.5684 19.3561C25.3637 19.4169 26.0861 19.676 26.5393 20.1292L26.61 20.0585ZM21.0314 24.1186C21.5409 25.0103 22.339 25.3934 23.1983 25.4173C24.0552 25.4412 24.9719 25.1084 25.7287 24.5724C26.4853 24.0366 27.0879 23.2935 27.3105 22.4904C27.534 21.684 27.3729 20.8216 26.61 20.0585L26.5393 20.1292C27.2765 20.8666 27.4281 21.6918 27.2141 22.4637C26.9993 23.2387 26.4143 23.9643 25.6709 24.4908C24.9276 25.0173 24.0317 25.3405 23.2011 25.3174C22.373 25.2943 21.6086 24.9273 21.1183 24.069L21.0314 24.1186ZM19.052 23.549C18.5412 23.8045 18.1285 24.2501 17.836 24.7481C17.5435 25.2462 17.3689 25.8005 17.3371 26.2779C17.3055 26.7517 17.4142 27.167 17.7111 27.3621C18.01 27.5585 18.4713 27.514 19.1002 27.1366L19.0488 27.0509C18.4277 27.4235 18.014 27.4415 17.766 27.2785C17.516 27.1142 17.406 26.7483 17.4369 26.2846C17.4675 25.8245 17.6367 25.2851 17.9223 24.7988C18.2078 24.3124 18.6077 23.883 19.0967 23.6385L19.052 23.549ZM19.0245 27.0937C19.0245 27.1401 19.0448 27.1823 19.0744 27.2181C19.104 27.2539 19.1449 27.2862 19.1926 27.3145C19.2879 27.371 19.417 27.4157 19.5582 27.4399C19.8388 27.488 20.1848 27.458 20.4195 27.2567C20.659 27.0515 20.766 26.6838 20.5991 26.0957C20.4324 25.5084 19.9903 24.6899 19.1138 23.5631L19.0349 23.6244C19.9085 24.7476 20.3414 25.5541 20.5029 26.123C20.6642 26.6912 20.5525 27.011 20.3544 27.1808C20.1517 27.3545 19.8414 27.387 19.5751 27.3413C19.4429 27.3187 19.326 27.2774 19.2436 27.2285C19.2023 27.204 19.1715 27.1787 19.1515 27.1545C19.1316 27.1302 19.1245 27.1099 19.1245 27.0938L19.0245 27.0937Z" fill="#2086E9"/>
</svg>
