<svg width="256" height="194" viewBox="0 0 256 194" fill="none" xmlns="http://www.w3.org/2000/svg">
<path d="M167.635 0L120.979 52.1215C123.487 54.0695 125.568 56.5136 127.092 59.3016C128.616 62.0895 129.55 65.1617 129.836 68.3267C130.122 71.4916 129.753 74.6816 128.754 77.698C127.755 80.7143 126.146 83.4925 124.027 85.8593C121.908 88.2261 119.326 90.131 116.439 91.4553C113.553 92.7796 110.426 93.4949 107.251 93.5567C104.077 93.6185 100.924 93.0254 97.9884 91.8144C95.053 90.6035 92.3982 88.8006 90.1892 86.518L25.2001 159.12C43.9376 173.696 67.0009 181.592 90.7318 181.557C149.827 181.557 197.732 133.607 197.732 74.4575C197.768 46.6626 186.97 19.9501 167.635 0Z" fill="#F2F2F2"/>
<path d="M107.593 85.5767C115.303 85.5767 121.553 79.3211 121.553 71.6043C121.553 63.8875 115.303 57.6318 107.593 57.6318C99.8837 57.6318 93.6337 63.8875 93.6337 71.6043C93.6337 79.3211 99.8837 85.5767 107.593 85.5767Z" fill="#F2F2F2"/>
<path d="M176.135 97.546H23.6152V193.738H176.135V97.546Z" fill="#3F3D56"/>
<path d="M191.121 49.8629C191.121 49.8629 181.291 49.464 181.025 59.5694C180.76 69.6748 181.025 78.3176 181.025 78.3176H200.686V60.1013C200.686 60.1013 200.288 50.5277 191.121 49.8629Z" fill="#2F2E41"/>
<path d="M187.284 67.8724C187.284 67.8724 187.868 74.4929 185.922 75.077C183.977 75.6612 186.701 84.0342 186.701 84.0342L194.482 85.7867L198.957 76.8295L197.011 74.2981C197.011 74.2981 193.704 69.8196 195.26 66.704C196.817 63.5885 187.284 67.8724 187.284 67.8724Z" fill="#FFB9B9"/>
<path opacity="0.1" d="M187.284 67.8724C187.284 67.8724 187.868 74.4929 185.922 75.077C183.977 75.6612 186.701 84.0342 186.701 84.0342L194.482 85.7867L198.957 76.8295L197.011 74.2981C197.011 74.2981 193.704 69.8196 195.26 66.704C196.817 63.5885 187.284 67.8724 187.284 67.8724Z" fill="black"/>
<path d="M190.008 70.9879C194.198 70.9879 197.595 67.5879 197.595 63.3938C197.595 59.1997 194.198 55.7997 190.008 55.7997C185.818 55.7997 182.421 59.1997 182.421 63.3938C182.421 67.5879 185.818 70.9879 190.008 70.9879Z" fill="#FFB9B9"/>
<path d="M160.438 89.4863C160.438 89.4863 155.769 92.9913 157.13 95.7174C158.492 98.4435 162.578 107.79 162.578 107.79C162.578 107.79 163.356 114.995 166.663 114.605C169.97 114.216 166.663 107.011 166.663 107.011L162.578 95.9121L163.939 93.7702L160.438 89.4863Z" fill="#FFB9B9"/>
<path d="M223.469 90.6546C223.469 90.6546 228.721 94.7437 225.609 96.3015C222.496 97.8593 209.267 105.259 209.267 105.259C209.267 105.259 201.291 111.295 200.319 106.622C199.346 101.948 205.571 102.143 205.571 102.143C205.571 102.143 218.022 94.549 218.605 92.9913C219.189 91.4335 223.469 90.6546 223.469 90.6546Z" fill="#FFB9B9"/>
<path d="M177.168 117.331C177.168 117.331 174.639 131.156 176.001 138.945C176.803 143.794 176.67 148.751 175.612 153.549L183.199 154.328C183.199 154.328 188.062 125.51 190.786 125.704C193.51 125.899 199.346 154.718 199.346 154.718L207.516 153.549C207.516 153.549 204.987 140.698 206.155 136.803C207.322 132.909 206.544 118.889 203.626 117.331C200.708 115.774 177.168 117.331 177.168 117.331Z" fill="#575A89"/>
<path d="M183.977 153.549C183.977 153.549 175.223 150.629 174.445 152.77C173.666 154.912 173.861 178.863 174.055 180.421C174.25 181.979 174.834 181.2 174.25 181.978C173.666 182.757 173.666 181.005 173.861 183.147C174.055 185.289 174.25 185.678 174.25 185.678C174.25 185.678 170.748 193.856 176.974 193.662C183.199 193.467 180.281 187.625 180.281 187.625C180.281 187.625 181.253 185.873 180.67 184.899C180.086 183.926 179.892 182.368 180.67 181.589C181.448 180.81 179.892 179.252 179.697 178.668C179.503 178.084 178.919 178.279 180.475 176.332C182.032 174.384 181.253 173.411 181.059 172.827C180.864 172.242 182.421 168.737 182.421 168.737L183.977 153.549Z" fill="#2F2E41"/>
<path d="M198.762 153.549C198.762 153.549 207.516 150.629 208.295 152.77C209.073 154.912 208.878 178.863 208.684 180.421C208.489 181.979 207.905 181.2 208.489 181.978C209.073 182.757 209.073 181.005 208.878 183.147C208.684 185.289 208.489 185.678 208.489 185.678C208.489 185.678 211.991 193.856 205.766 193.662C199.54 193.467 202.458 187.625 202.458 187.625C202.458 187.625 201.486 185.873 202.069 184.899C202.653 183.926 202.847 182.368 202.069 181.589C201.291 180.81 202.847 179.252 203.042 178.668C203.237 178.084 203.82 178.279 202.264 176.332C200.707 174.384 201.486 173.411 201.68 172.827C201.875 172.242 200.318 168.738 200.318 168.738L198.762 153.549Z" fill="#2F2E41"/>
<path d="M190.397 81.3081C190.397 81.3081 189.035 77.219 188.257 76.4401C187.479 75.6612 186.974 73.6457 186.974 73.6457C186.974 73.6457 182.615 75.2718 181.448 75.6612C180.281 76.0506 176.39 76.0506 176.39 76.6348V89.0969C176.39 89.0969 176.001 91.6283 176.779 98.054C177.557 104.48 179.892 108.374 177.168 111.1C174.445 113.826 176.779 120.447 178.141 121.615C179.503 122.784 205.96 128.82 206.155 114.605C206.155 114.605 199.735 103.311 202.458 99.6118C205.182 95.9121 207.516 89.6811 207.516 89.6811V77.219C207.516 77.219 203.237 75.8559 201.875 75.6612C200.513 75.4665 197.206 71.7668 196.817 71.9615C196.428 72.1562 195.676 71.9541 195.676 71.9541L195.649 74.6876L190.397 81.3081Z" fill="var(--color_primary)"/>
<path d="M179.113 77.6084L176.39 76.6348C176.39 76.6348 173.083 78.3872 173.083 78.7767C173.083 79.1661 171.137 80.9186 170.165 81.6975C169.192 82.4764 166.468 82.6711 166.468 83.0605C166.468 83.45 157.909 89.681 158.687 90.6546C159.465 91.6283 161.994 95.1332 163.356 95.1332C164.717 95.1332 168.025 91.6282 168.608 91.4335C169.192 91.2388 175.223 87.5391 177.168 88.1233C179.114 88.7074 179.113 77.6084 179.113 77.6084Z" fill="var(--color_primary)"/>
<path d="M203.82 77.9979L207.516 77.219C207.516 77.219 214.52 82.4764 214.714 82.6712C214.909 82.8659 225.803 89.8758 225.22 91.2389C224.636 92.6019 218.411 94.5491 216.854 93.9649C215.298 93.3808 208.684 88.5128 206.155 89.0969C203.626 89.6811 203.82 77.9979 203.82 77.9979Z" fill="var(--color_primary)"/>
<path d="M198.081 60.9598C199.005 57.0771 198.627 56.0458 198.627 56.0458L186.804 53.1205L182.686 57.1095V61.2315L183.102 62.5176C183.102 62.5176 184.811 61.2315 184.147 59.3699C184.147 59.37 197.417 63.7521 198.081 60.9598Z" fill="#2F2E41"/>
<path d="M198.229 58.7864L197.109 59.9862C198.875 60.0076 196.522 74.2366 197.303 76.5374L200.221 76.6039V57.6505L198.229 58.7864Z" fill="#2F2E41"/>
<path d="M182.713 63.4911C183.035 63.4911 183.296 62.9245 183.296 62.2255C183.296 61.5264 183.035 60.9598 182.713 60.9598C182.39 60.9598 182.129 61.5264 182.129 62.2255C182.129 62.9245 182.39 63.4911 182.713 63.4911Z" fill="#FFB9B9"/>
<path d="M197.692 63.4911C198.014 63.4911 198.276 62.9245 198.276 62.2255C198.276 61.5264 198.014 60.9598 197.692 60.9598C197.37 60.9598 197.109 61.5264 197.109 62.2255C197.109 62.9245 197.37 63.4911 197.692 63.4911Z" fill="#FFB9B9"/>
<path d="M92.0975 171.835L91.7481 171.485L106.77 156.449L93.4778 143.145L93.8272 142.795L107.469 156.449L92.0975 171.835Z" fill="#2F2E41"/>
<path d="M106.255 161.767C109.121 161.767 111.444 159.441 111.444 156.573C111.444 153.704 109.121 151.379 106.255 151.379C103.389 151.379 101.066 153.704 101.066 156.573C101.066 159.441 103.389 161.767 106.255 161.767Z" fill="var(--color_primary)"/>
<path d="M92.6641 176.854C95.53 176.854 97.8533 174.529 97.8533 171.66C97.8533 168.791 95.53 166.466 92.6641 166.466C89.7982 166.466 87.4749 168.791 87.4749 171.66C87.4749 174.529 89.7982 176.854 92.6641 176.854Z" fill="var(--color_primary)"/>
<path d="M93.0859 143.145L92.7365 142.795L107.759 127.759L94.4662 114.454L94.8156 114.104L108.458 127.759L93.0859 143.145Z" fill="#2F2E41"/>
<path d="M94.6409 119.473C97.5068 119.473 99.8301 117.147 99.8301 114.279C99.8301 111.41 97.5068 109.085 94.6409 109.085C91.775 109.085 89.4517 111.41 89.4517 114.279C89.4517 117.147 91.775 119.473 94.6409 119.473Z" fill="var(--color_primary)"/>
<path d="M107.243 133.076C110.109 133.076 112.432 130.751 112.432 127.882C112.432 125.014 110.109 122.688 107.243 122.688C104.377 122.688 102.054 125.014 102.054 127.882C102.054 130.751 104.377 133.076 107.243 133.076Z" fill="var(--color_primary)"/>
<path d="M93.6525 148.164C96.5184 148.164 98.8417 145.838 98.8417 142.97C98.8417 140.101 96.5184 137.776 93.6525 137.776C90.7866 137.776 88.4633 140.101 88.4633 142.97C88.4633 145.838 90.7866 148.164 93.6525 148.164Z" fill="var(--color_primary)"/>
<path opacity="0.3" d="M56.0926 103.644H30.3938V108.343H56.0926V103.644Z" fill="var(--color_primary)"/>
<path opacity="0.3" d="M158.641 156.82H132.942V158.057H158.641V156.82Z" fill="var(--color_primary)"/>
<path opacity="0.3" d="M158.641 160.53H132.942V161.767H158.641V160.53Z" fill="var(--color_primary)"/>
<path opacity="0.3" d="M158.641 164.24H132.942V165.477H158.641V164.24Z" fill="var(--color_primary)"/>
<path opacity="0.3" d="M158.641 167.95H132.942V169.187H158.641V167.95Z" fill="var(--color_primary)"/>
<path opacity="0.3" d="M158.641 171.66H132.942V172.897H158.641V171.66Z" fill="var(--color_primary)"/>
<path opacity="0.3" d="M158.641 175.37H132.942V176.607H158.641V175.37Z" fill="var(--color_primary)"/>
<path d="M16.4962 183.764C18.2047 190.085 24.0566 194 24.0566 194C24.0566 194 27.1385 187.666 25.4301 181.345C23.7216 175.023 17.8697 171.108 17.8697 171.108C17.8697 171.108 14.7877 177.442 16.4962 183.764Z" fill="#3F3D56"/>
<path d="M19.0067 182.405C23.6948 186.973 24.2674 193.995 24.2674 193.995C24.2674 193.995 17.2391 193.611 12.551 189.043C7.86296 184.475 7.29034 177.453 7.29034 177.453C7.29034 177.453 14.3186 177.837 19.0067 182.405Z" fill="var(--color_primary)"/>
<path d="M256 193.425H0V193.92H256V193.425Z" fill="#3F3D56"/>
<path d="M241.791 178.209C241.79 177.113 241.458 176.042 240.84 175.138C240.221 174.233 239.345 173.536 238.324 173.138C239.506 172.679 240.49 171.82 241.106 170.711C241.723 169.601 241.932 168.311 241.698 167.064C241.465 165.816 240.803 164.69 239.827 163.879C238.851 163.069 237.623 162.625 236.355 162.625C235.087 162.625 233.859 163.069 232.883 163.879C231.908 164.69 231.246 165.816 231.012 167.064C230.778 168.311 230.988 169.601 231.604 170.711C232.22 171.82 233.204 172.679 234.386 173.138C233.365 173.535 232.487 174.232 231.869 175.137C231.25 176.041 230.919 177.112 230.919 178.209C230.919 179.305 231.25 180.376 231.869 181.281C232.487 182.186 233.365 182.882 234.386 183.279C233.204 183.739 232.22 184.598 231.604 185.707C230.988 186.816 230.778 188.106 231.012 189.353C231.246 190.601 231.908 191.727 232.883 192.538C233.859 193.348 235.087 193.792 236.355 193.792C237.623 193.792 238.851 193.348 239.827 192.538C240.803 191.727 241.465 190.601 241.698 189.353C241.932 188.106 241.723 186.816 241.106 185.707C240.49 184.598 239.506 183.739 238.324 183.279C239.345 182.881 240.221 182.184 240.84 181.28C241.458 180.375 241.79 179.305 241.791 178.209ZM231.413 168.068C231.412 167.137 231.674 166.225 232.168 165.437C232.661 164.648 233.367 164.015 234.204 163.61C235.042 163.205 235.976 163.045 236.9 163.147C237.824 163.25 238.701 163.611 239.429 164.19C240.157 164.769 240.707 165.542 241.016 166.419C241.325 167.297 241.381 168.244 241.176 169.152C240.972 170.06 240.515 170.892 239.86 171.552C239.204 172.211 238.376 172.673 237.47 172.883C236.735 172.729 235.975 172.729 235.24 172.883C234.153 172.63 233.183 172.017 232.489 171.143C231.794 170.269 231.415 169.185 231.413 168.068ZM241.297 188.349C241.298 189.28 241.036 190.192 240.543 190.981C240.049 191.769 239.343 192.402 238.506 192.807C237.669 193.212 236.734 193.373 235.81 193.27C234.886 193.167 234.01 192.806 233.282 192.227C232.554 191.648 232.003 190.876 231.694 189.998C231.385 189.12 231.33 188.173 231.534 187.265C231.739 186.358 232.195 185.526 232.85 184.866C233.506 184.206 234.334 183.744 235.24 183.534C235.975 183.689 236.735 183.689 237.47 183.534C238.557 183.787 239.527 184.401 240.222 185.275C240.916 186.149 241.295 187.232 241.297 188.349ZM237.47 183.024C236.735 182.869 235.975 182.869 235.24 183.024C234.152 182.772 233.182 182.16 232.486 181.285C231.791 180.411 231.413 179.326 231.413 178.209C231.413 177.091 231.791 176.007 232.486 175.132C233.182 174.258 234.152 173.645 235.24 173.394C235.975 173.548 236.735 173.548 237.47 173.394C238.558 173.645 239.529 174.258 240.224 175.132C240.919 176.007 241.297 177.091 241.297 178.209C241.297 179.326 240.919 180.411 240.224 181.285C239.529 182.16 238.558 182.772 237.47 183.024Z" fill="#3F3D56"/>
<path d="M26.3166 88.1796C25.2414 88.1796 24.1904 87.8605 23.2964 87.2626C22.4024 86.6647 21.7056 85.8149 21.2941 84.8206C20.8827 83.8263 20.775 82.7323 20.9848 81.6768C21.1945 80.6213 21.7123 79.6517 22.4726 78.8907C23.2328 78.1297 24.2015 77.6115 25.256 77.4016C26.3106 77.1916 27.4036 77.2994 28.397 77.7112C29.3903 78.123 30.2394 78.8205 30.8367 79.7153C31.4341 80.6101 31.7529 81.6621 31.7529 82.7383C31.7513 84.1809 31.178 85.564 30.1588 86.5841C29.1397 87.6042 27.7579 88.178 26.3166 88.1796ZM26.3166 77.7917C25.3392 77.7917 24.3837 78.0818 23.5709 78.6253C22.7582 79.1689 22.1248 79.9414 21.7507 80.8453C21.3767 81.7492 21.2788 82.7438 21.4695 83.7034C21.6602 84.6629 22.1309 85.5443 22.822 86.2361C23.5132 86.9279 24.3938 87.399 25.3525 87.5899C26.3111 87.7808 27.3048 87.6828 28.2079 87.3084C29.1109 86.934 29.8828 86.3 30.4258 85.4865C30.9688 84.673 31.2587 83.7167 31.2587 82.7383C31.2572 81.4268 30.7361 80.1695 29.8096 79.2421C28.8831 78.3148 27.6269 77.7931 26.3166 77.7917Z" fill="#3F3D56"/>
<path d="M141.714 34.0138C140.639 34.0138 139.588 33.6947 138.694 33.0968C137.8 32.4989 137.103 31.6491 136.692 30.6548C136.28 29.6605 136.173 28.5664 136.382 27.5109C136.592 26.4554 137.11 25.4859 137.87 24.7249C138.63 23.9639 139.599 23.4457 140.654 23.2357C141.708 23.0258 142.801 23.1335 143.795 23.5454C144.788 23.9572 145.637 24.6546 146.234 25.5495C146.832 26.4443 147.151 27.4963 147.151 28.5725C147.149 30.0151 146.576 31.3982 145.556 32.4183C144.537 33.4384 143.156 34.0122 141.714 34.0138ZM141.714 23.6258C140.737 23.6258 139.781 23.9159 138.969 24.4595C138.156 25.003 137.522 25.7756 137.148 26.6795C136.774 27.5834 136.676 28.578 136.867 29.5375C137.058 30.4971 137.529 31.3785 138.22 32.0703C138.911 32.7621 139.791 33.2332 140.75 33.4241C141.709 33.615 142.702 33.517 143.606 33.1426C144.509 32.7682 145.28 32.1342 145.823 31.3207C146.366 30.5072 146.656 29.5508 146.656 28.5725C146.655 27.261 146.134 26.0036 145.207 25.0763C144.281 24.1489 143.025 23.6273 141.714 23.6258Z" fill="#3F3D56"/>
</svg>
