<svg width="185" height="202" viewBox="60 64 64 160" fill="none" xmlns="http://www.w3.org/2000/svg">
<path d="M123.514 68.546C122.815 67.8472 121.867 67.4547 120.879 67.4547C120.878 67.4547 120.878 67.4547 120.878 67.4547L117.151 67.4559V71.1832V74.9106V127.091V130.818V134.546H120.879C122.937 134.546 124.606 132.877 124.606 130.818V71.182C124.606 70.1932 124.213 69.245 123.514 68.546Z" fill="black"/>
<path d="M123.514 68.546C122.815 67.8472 121.867 67.4547 120.879 67.4547C120.878 67.4547 120.878 67.4547 120.878 67.4547L117.151 67.4559V71.1832V74.9106V127.091V130.818V134.546H120.879C122.937 134.546 124.606 132.877 124.606 130.818V71.182C124.606 70.1932 124.213 69.245 123.514 68.546Z" fill="url(#paint0_linear)"/>
<path d="M108.365 60.8718C107.521 60.1636 106.407 59.8649 105.322 60.0571L63.0795 67.516C61.2984 67.8304 60 69.378 60 71.1865V130.818C60 132.627 61.2985 134.175 63.0796 134.489L105.322 141.943C105.538 141.981 105.754 142 105.97 142C106.839 142 107.689 141.696 108.365 141.128C109.21 140.42 109.697 139.375 109.697 138.273V137.5V134.546V130.818V127.091V74.9125V71.1852V67.4579V63.7274C109.697 62.6256 109.21 61.5803 108.365 60.8718ZM93.6968 106.121C93.0038 106.815 92.0419 107.212 91.0606 107.212C90.0792 107.212 89.12 106.815 88.4242 106.121C87.7308 105.426 87.3333 104.467 87.3333 103.485C87.3333 102.503 87.7308 101.544 88.4242 100.849C89.1199 100.155 90.079 99.7575 91.0606 99.7575C92.0419 99.7575 93.0038 100.155 93.6968 100.849C94.3901 101.544 94.788 102.503 94.788 103.485C94.7878 104.467 94.39 105.426 93.6968 106.121Z" fill="black"/>
<path d="M108.365 60.8718C107.521 60.1636 106.407 59.8649 105.322 60.0571L63.0795 67.516C61.2984 67.8304 60 69.378 60 71.1865V130.818C60 132.627 61.2985 134.175 63.0796 134.489L105.322 141.943C105.538 141.981 105.754 142 105.97 142C106.839 142 107.689 141.696 108.365 141.128C109.21 140.42 109.697 139.375 109.697 138.273V137.5V134.546V130.818V127.091V74.9125V71.1852V67.4579V63.7274C109.697 62.6256 109.21 61.5803 108.365 60.8718ZM93.6968 106.121C93.0038 106.815 92.0419 107.212 91.0606 107.212C90.0792 107.212 89.12 106.815 88.4242 106.121C87.7308 105.426 87.3333 104.467 87.3333 103.485C87.3333 102.503 87.7308 101.544 88.4242 100.849C89.1199 100.155 90.079 99.7575 91.0606 99.7575C92.0419 99.7575 93.0038 100.155 93.6968 100.849C94.3901 101.544 94.788 102.503 94.788 103.485C94.7878 104.467 94.39 105.426 93.6968 106.121Z" fill="url(#paint1_linear)"/>
<g style="mix-blend-mode:screen" opacity="0.5" filter="url(#filter0_f)">
<path fill-rule="evenodd" clip-rule="evenodd" d="M105.322 60.0571C106.407 59.8649 107.521 60.1636 108.365 60.8718C109.21 61.5803 109.697 62.6256 109.697 63.7274V67.4579V71.1852V74.9125V127.091V130.818V134.546V137.5V138.273C109.697 139.375 109.21 140.42 108.365 141.128C107.689 141.696 106.839 142 105.97 142C105.754 142 105.538 141.981 105.322 141.943L63.0796 134.489C61.2985 134.175 60 132.627 60 130.818V71.1865C60 69.378 61.2984 67.8304 63.0795 67.516L105.322 60.0571ZM91.0606 107.212C92.0419 107.212 93.0038 106.815 93.6968 106.121C94.39 105.426 94.7878 104.467 94.788 103.485C94.788 102.503 94.3901 101.544 93.6968 100.849C93.0038 100.155 92.0419 99.7575 91.0606 99.7575C90.0791 99.7575 89.1199 100.155 88.4242 100.849C87.7308 101.544 87.3333 102.503 87.3333 103.485C87.3333 104.467 87.7308 105.426 88.4242 106.121C89.12 106.815 90.0792 107.212 91.0606 107.212ZM120.879 67.4547C121.867 67.4547 122.815 67.8472 123.514 68.546C124.213 69.245 124.606 70.1932 124.606 71.182V130.818C124.606 132.877 122.937 134.546 120.879 134.546H117.151V130.818V127.091V74.9106V71.1833V67.4559L120.878 67.4547H120.879Z" fill="black"/>
<path fill-rule="evenodd" clip-rule="evenodd" d="M105.322 60.0571C106.407 59.8649 107.521 60.1636 108.365 60.8718C109.21 61.5803 109.697 62.6256 109.697 63.7274V67.4579V71.1852V74.9125V127.091V130.818V134.546V137.5V138.273C109.697 139.375 109.21 140.42 108.365 141.128C107.689 141.696 106.839 142 105.97 142C105.754 142 105.538 141.981 105.322 141.943L63.0796 134.489C61.2985 134.175 60 132.627 60 130.818V71.1865C60 69.378 61.2984 67.8304 63.0795 67.516L105.322 60.0571ZM91.0606 107.212C92.0419 107.212 93.0038 106.815 93.6968 106.121C94.39 105.426 94.7878 104.467 94.788 103.485C94.788 102.503 94.3901 101.544 93.6968 100.849C93.0038 100.155 92.0419 99.7575 91.0606 99.7575C90.0791 99.7575 89.1199 100.155 88.4242 100.849C87.7308 101.544 87.3333 102.503 87.3333 103.485C87.3333 104.467 87.7308 105.426 88.4242 106.121C89.12 106.815 90.0792 107.212 91.0606 107.212ZM120.879 67.4547C121.867 67.4547 122.815 67.8472 123.514 68.546C124.213 69.245 124.606 70.1932 124.606 71.182V130.818C124.606 132.877 122.937 134.546 120.879 134.546H117.151V130.818V127.091V74.9106V71.1833V67.4559L120.878 67.4547H120.879Z" fill="url(#paint2_linear)"/>
</g>
<defs>
<filter id="filter0_f" x="0" y="0" width="184.606" height="202" filterUnits="userSpaceOnUse" color-interpolation-filters="sRGB">
<feFlood flood-opacity="0" result="BackgroundImageFix"/>
<feBlend mode="normal" in="SourceGraphic" in2="BackgroundImageFix" result="shape"/>
<feGaussianBlur stdDeviation="30" result="effect1_foregroundBlur"/>
</filter>
<linearGradient id="paint0_linear" x1="118.693" y1="181.311" x2="159.927" y2="169.762" gradientUnits="userSpaceOnUse">
<stop stop-color="#42A9FD"/>
<stop offset="1" stop-color="#ACC5FC"/>
</linearGradient>
<linearGradient id="paint1_linear" x1="70.2746" y1="199.158" x2="159.198" y2="63.3111" gradientUnits="userSpaceOnUse">
<stop stop-color="#42A9FD"/>
<stop offset="1" stop-color="#ACC5FC"/>
</linearGradient>
<linearGradient id="paint2_linear" x1="70.2746" y1="199.158" x2="159.198" y2="63.3111" gradientUnits="userSpaceOnUse">
<stop stop-color="#42A9FD"/>
<stop offset="1" stop-color="#ACC5FC"/>
</linearGradient>
</defs>
</svg>
