<svg width="27" height="26" viewBox="0 0 27 26" fill="none" xmlns="http://www.w3.org/2000/svg">
<path d="M23.6111 26.0003H3.38889C1.7934 26.0003 0.5 24.8362 0.5 23.4003V5.2003C0.5 3.76436 1.7934 2.60031 3.38889 2.60031H6.27778V0.000305176H9.16667V2.60031H17.8333V0.000305176H20.7222V2.60031H23.6111C25.2066 2.60031 26.5 3.76436 26.5 5.2003V23.4003C26.5 24.8362 25.2066 26.0003 23.6111 26.0003ZM3.38889 10.4003V23.4003H23.6111V10.4003H3.38889ZM3.38889 5.2003V7.8003H23.6111V5.2003H3.38889ZM20.7222 20.8003H17.8333V18.2003H20.7222V20.8003ZM14.9444 20.8003H12.0556V18.2003H14.9444V20.8003ZM9.16667 20.8003H6.27778V18.2003H9.16667V20.8003ZM20.7222 15.6003H17.8333V13.0003H20.7222V15.6003ZM14.9444 15.6003H12.0556V13.0003H14.9444V15.6003ZM9.16667 15.6003H6.27778V13.0003H9.16667V15.6003Z" fill="#2086E9"/>
</svg>
