<svg width="29" height="29" viewBox="0 0 29 29" fill="none" xmlns="http://www.w3.org/2000/svg">
<g clip-path="url(#clip0)">
<path fill-rule="evenodd" clip-rule="evenodd" d="M29 24.8571V4.14286C29 1.92347 27.2245 0 24.8571 0C22.4898 0 20.7143 1.92347 20.7143 4.14286V5.36262C23.1435 6.03838 24.8817 8.23622 24.8817 10.9084C24.8817 13.5257 23.3262 15.8226 20.7143 18.4951V24.8571C20.7143 27.2245 22.4898 29 24.8571 29C27.2245 29 29 27.0765 29 24.8571ZM10.3571 20.6622V24.8571C10.3571 27.0765 12.1327 29 14.5 29C16.8673 29 18.6429 27.0765 18.6429 24.8571V20.508C17.8166 21.2812 16.9236 22.0932 15.9733 22.9573L15.932 22.9948L14.4142 24.3669L12.8964 22.9844L12.8832 22.9723C11.9879 22.16 11.1432 21.3937 10.3571 20.6622ZM8.28572 21.898V24.8571C8.28572 27.0765 6.5102 29 4.14286 29C1.77551 29 0 27.0765 0 24.8571V21.898C0 19.6786 1.77551 17.7551 4.14286 17.7551C6.5102 17.7551 8.28572 19.6786 8.28572 21.898Z" fill="#344E61"/>
<g filter="url(#filter0_d)">
<path d="M14.5 21.2326L13.3583 20.217C9.30342 16.624 6.6264 14.2543 6.6264 11.346C6.6264 8.97634 8.53181 7.11444 10.9569 7.11444C12.3269 7.11444 13.6418 7.73764 14.5 8.72244C15.3582 7.73764 16.6731 7.11444 18.0431 7.11444C20.4682 7.11444 22.3736 8.97634 22.3736 11.346C22.3736 14.2543 19.6965 16.624 15.6417 20.2247L14.5 21.2326Z" fill="#FF003D"/>
</g>
</g>
<defs>
<filter id="filter0_d" x="-26.3736" y="-16.8856" width="81.7472" height="80.1181" filterUnits="userSpaceOnUse" color-interpolation-filters="sRGB">
<feFlood flood-opacity="0" result="BackgroundImageFix"/>
<feColorMatrix in="SourceAlpha" type="matrix" values="0 0 0 0 0 0 0 0 0 0 0 0 0 0 0 0 0 0 127 0"/>
<feOffset dy="9"/>
<feGaussianBlur stdDeviation="16.5"/>
<feColorMatrix type="matrix" values="0 0 0 0 0.745098 0 0 0 0 0.207843 0 0 0 0 0.298039 0 0 0 0.29 0"/>
<feBlend mode="lighten" in2="BackgroundImageFix" result="effect1_dropShadow"/>
<feBlend mode="normal" in="SourceGraphic" in2="effect1_dropShadow" result="shape"/>
</filter>
<clipPath id="clip0">
<rect width="29" height="29" fill="white"/>
</clipPath>
</defs>
</svg>
