<svg width="268" height="220" viewBox="0 0 268 220" fill="none" xmlns="http://www.w3.org/2000/svg">
<g clip-path="url(#clip0)">
<path d="M12.0963 205.952C16.928 208.859 18.7888 214.633 18.7888 214.633C18.7888 214.633 12.816 215.694 7.98433 212.787C3.1527 209.88 1.29187 204.106 1.29187 204.106C1.29187 204.106 7.26468 203.045 12.0963 205.952Z" fill="#07D2FF"/>
<path d="M168.559 21.1909H165.702V198.526H168.559V21.1909Z" fill="#D0CDE1"/>
<path d="M127.092 31.4291C130.248 31.4291 132.807 28.8707 132.807 25.7147C132.807 22.5588 130.248 20.0003 127.092 20.0003C123.936 20.0003 121.378 22.5588 121.378 25.7147C121.378 28.8707 123.936 31.4291 127.092 31.4291Z" fill="#07D2FF"/>
<path d="M127.568 24.2861C136.379 24.2861 143.521 23.1135 143.521 21.667C143.521 20.2206 136.379 19.0479 127.568 19.0479C118.758 19.0479 111.616 20.2206 111.616 21.667C111.616 23.1135 118.758 24.2861 127.568 24.2861Z" fill="#D0CDE1"/>
<path d="M168.521 21.1909H165.664C165.664 16.3285 163.733 11.6652 160.294 8.227C156.856 4.78877 152.193 2.8572 147.331 2.8572C142.468 2.8572 137.805 4.78877 134.367 8.227C130.929 11.6652 128.997 16.3285 128.997 21.1909H126.14C126.144 15.5735 128.378 10.1876 132.352 6.217C136.326 2.2464 141.713 0.0159912 147.331 0.0159912C152.948 0.0159912 158.336 2.2464 162.309 6.217C166.283 10.1876 168.517 15.5735 168.521 21.1909Z" fill="#D0CDE1"/>
<path d="M207.094 31.4291C210.25 31.4291 212.808 28.8707 212.808 25.7147C212.808 22.5588 210.25 20.0003 207.094 20.0003C203.938 20.0003 201.379 22.5588 201.379 25.7147C201.379 28.8707 203.938 31.4291 207.094 31.4291Z" fill="#07D2FF"/>
<path d="M206.617 24.2861C215.428 24.2861 222.57 23.1135 222.57 21.667C222.57 20.2206 215.428 19.0479 206.617 19.0479C197.807 19.0479 190.665 20.2206 190.665 21.667C190.665 23.1135 197.807 24.2861 206.617 24.2861Z" fill="#D0CDE1"/>
<path d="M165.664 21.1909H168.521C168.521 18.7832 168.996 16.3992 169.917 14.1749C170.838 11.9505 172.189 9.92944 173.891 8.227C175.594 6.52456 177.615 5.17412 179.839 4.25276C182.064 3.33141 184.448 2.8572 186.855 2.8572C189.263 2.8572 191.647 3.33141 193.871 4.25276C196.095 5.17412 198.117 6.52456 199.819 8.227C201.521 9.92944 202.872 11.9505 203.793 14.1749C204.715 16.3992 205.189 18.7832 205.189 21.1909H208.046C208.042 15.5735 205.807 10.1876 201.834 6.217C197.86 2.2464 192.473 0.0159912 186.855 0.0159912C181.238 0.0159912 175.85 2.2464 171.877 6.217C167.903 10.1876 165.669 15.5735 165.664 21.1909H165.664Z" fill="#D0CDE1"/>
<path d="M172.376 185.479H161.809V198.813H172.376V185.479Z" fill="#D0CDE1"/>
<path d="M78.7229 216.91C122.2 216.91 157.446 216.283 157.446 215.509C157.446 214.736 122.2 214.108 78.7229 214.108C35.2454 214.108 0 214.736 0 215.509C0 216.283 35.2454 216.91 78.7229 216.91Z" fill="#3F3D56"/>
<path d="M203.678 200.303C239.202 200.303 268 199.676 268 198.902C268 198.129 239.202 197.501 203.678 197.501C168.153 197.501 139.355 198.129 139.355 198.902C139.355 199.676 168.153 200.303 203.678 200.303Z" fill="#3F3D56"/>
<path d="M90.2476 109.664C94.9742 109.664 98.8059 105.832 98.8059 101.106C98.8059 96.379 94.9742 92.5472 90.2476 92.5472C85.5209 92.5472 81.6892 96.379 81.6892 101.106C81.6892 105.832 85.5209 109.664 90.2476 109.664Z" fill="#2F2E41"/>
<path d="M102.413 152.948L103.71 155.543C103.71 155.543 107.862 162.29 105.008 163.069C102.153 163.848 101.245 158.009 101.245 158.009L100.726 154.895L102.413 152.948Z" fill="#A0616A"/>
<path d="M97.2224 139.713L100.466 148.277L103.71 154.246L99.6879 156.841L96.4439 151.132L92.5514 142.179L97.2224 139.713Z" fill="#D0CDE1"/>
<path d="M88.0101 179.807L81.5224 186.684L70.104 206.018L65.1733 204.461L71.0123 192.913C71.0123 192.913 74.3859 184.089 76.0727 182.921C77.7595 181.754 80.6141 174.098 80.6141 174.098L83.7282 171.633L88.0101 179.807Z" fill="#A0616A"/>
<path d="M101.375 183.57L101.894 185.776C101.894 185.776 103.581 192.653 106.176 195.767L112.404 206.537L117.075 204.98L107.862 183.181L101.375 183.57Z" fill="#A0616A"/>
<path d="M91.708 111.103C95.5777 111.103 98.7148 107.966 98.7148 104.096C98.7148 100.226 95.5777 97.0891 91.708 97.0891C87.8383 97.0891 84.7013 100.226 84.7013 104.096C84.7013 107.966 87.8383 111.103 91.708 111.103Z" fill="#A0616A"/>
<path d="M86.1934 107.534L85.2852 115.06L91.1241 117.915C91.1241 117.915 91.1241 111.427 92.6811 109.74L86.1934 107.534Z" fill="#A0616A"/>
<path d="M67.8981 156.062L67.2493 158.268C67.2493 158.268 62.9674 166.702 66.6006 166.702C70.2337 166.702 70.8825 158.917 70.8825 158.917L71.2717 156.971L67.8981 156.062Z" fill="#A0616A"/>
<path d="M97.7416 147.239L96.8333 153.597L107.862 176.823L108.511 183.57L87.8803 186.165L83.3389 173.579L76.0726 182.921L80.2248 173.32C80.2248 173.32 81.5223 166.832 81.1331 165.145C80.7438 163.458 81.3926 155.024 82.5604 152.948C83.7282 150.872 97.7416 147.239 97.7416 147.239Z" fill="#2F2E41"/>
<path d="M70.8824 206.018L64.6542 203.942L62.7079 207.056C62.7079 207.056 58.945 208.094 59.0748 210.819C59.2046 213.543 58.426 218.215 58.426 218.215L61.1509 218.474L62.1889 213.154L67.5088 219.512C67.5088 219.512 76.9809 220.031 77.3701 218.474C77.7594 216.917 70.6229 215.23 70.6229 215.23L69.4551 209.651L70.8824 206.018Z" fill="#2F2E41"/>
<path d="M117.464 204.201L111.755 206.018V207.315C111.755 207.315 110.068 209.91 110.328 212.116C110.587 214.322 111.755 219.642 111.755 219.642H114.739L114.61 214.711L120.578 219.642C120.578 219.642 131.218 218.863 131.218 217.177C131.218 215.49 123.044 214.322 123.044 214.322L117.464 204.201Z" fill="#2F2E41"/>
<path d="M91.5134 116.358C91.5134 116.358 86.1935 111.038 83.7282 112.335V114.671C83.7282 114.671 80.0951 116.358 79.9653 118.953C79.8356 121.548 76.0727 145.163 76.0727 145.163L67.2494 175.915C67.2494 175.915 69.9742 180.197 79.9653 175.396L86.1935 154.246C86.1935 154.246 79.576 178.121 82.8199 177.731C86.0638 177.342 98.7797 147.758 98.7797 147.758L97.8714 133.745C97.8714 133.745 99.9475 127.646 95.7953 123.494L91.5134 116.358Z" fill="#D0CDE1"/>
<path d="M82.4306 117.136C82.4306 117.136 80.2248 117.915 78.6678 121.288C77.1107 124.662 69.3255 148.407 69.3255 148.407L67.2494 156.841L73.0883 158.268L75.9429 149.575L86.5828 129.852C86.5828 129.852 88.2696 119.472 82.4306 117.136Z" fill="#D0CDE1"/>
<path d="M82.9434 98.5061C83.0746 96.9044 83.8414 95.2627 85.2595 94.5068C84.5474 93.0765 83.911 91.444 84.3804 89.9168C84.5709 89.3242 84.9157 88.7931 85.3795 88.3781C85.8433 87.9631 86.4094 87.6791 87.0193 87.5554C87.7003 87.4618 88.3914 87.4707 89.0696 87.582L92.2669 87.9446C93.3041 88.0623 94.3814 88.1935 95.2636 88.7516C95.7228 89.0421 96.1074 89.4363 96.3865 89.9026C96.6655 90.3688 96.8312 90.8941 96.8702 91.436C96.9092 91.978 96.8204 92.5216 96.611 93.023C96.4016 93.5244 96.0774 93.9696 95.6645 94.3229C97.9015 96.1122 99.3964 97.4704 100.414 100.148C98.549 98.6465 96.764 98.1147 94.3729 97.9853C92.8761 97.9043 91.4067 98.4102 90.2769 99.3954C89.1471 100.381 88.4461 101.768 88.3228 103.262C88.2611 104.009 88.3435 104.778 88.1261 105.496C87.9086 106.213 87.2535 106.885 86.5112 106.781C86.6141 106.795 87.2479 104.892 86.8017 104.013L86.7947 103.999C86.6966 103.818 86.5347 103.679 86.3404 103.609C86.167 103.543 85.9814 103.514 85.7961 103.525C85.6107 103.535 85.4297 103.586 85.2652 103.672C85.1007 103.758 84.9563 103.878 84.8418 104.024C84.7273 104.17 84.6452 104.339 84.6009 104.519C84.3527 105.473 83.9556 106.689 83.6086 106.366C83.1543 105.943 83.3454 102.215 83.2229 101.637C82.9782 100.613 82.8841 99.5578 82.9434 98.5061Z" fill="#2F2E41"/>
<path d="M85.2947 94.4812C85.2947 94.4812 92.3269 94.9399 95.6902 94.3284L85.2947 94.4812Z" fill="#D0CDE1"/>
<path d="M85.6935 93.5402C84.9814 92.11 84.345 90.4774 84.8144 88.9502C85.0337 88.2617 85.4626 87.6588 86.0411 87.226C85.5992 87.4291 85.2042 87.7219 84.8814 88.0857C84.5586 88.4495 84.3148 88.8765 84.1657 89.3395C83.6962 90.8667 84.3327 92.4992 85.0448 93.9295C85.6096 93.8452 84.2754 94.2961 85.6935 93.5402Z" fill="#2F2E41"/>
<path opacity="0.2" d="M87.9452 129.917L77.8243 147.823L73.9318 157.555L79.3813 148.212L87.9452 129.917Z" fill="black"/>
<path d="M230.681 187.783L231.61 194.286L236.255 193.821L235.79 187.087L230.681 187.783Z" fill="#FFB8B8"/>
<path d="M208.619 187.783L207.69 194.286L203.045 193.821L203.51 187.087L208.619 187.783Z" fill="#FFB8B8"/>
<path d="M201.884 120.435C201.884 120.435 197.704 125.312 198.633 132.976C199.562 140.64 201.187 158.057 201.187 158.057L202.348 188.944L209.78 188.48L210.941 162.238L214.657 141.104L224.643 165.721C224.643 165.721 229.52 188.712 229.752 188.712C229.984 188.712 236.719 188.015 236.719 188.015L233.468 160.844C233.468 160.844 228.359 121.364 225.34 120.668C222.321 119.971 201.884 120.435 201.884 120.435Z" fill="#2F2E41"/>
<path d="M236.719 192.892C236.719 192.892 232.539 190.106 230.913 193.357C229.288 196.608 230.681 198.931 230.681 198.931C230.681 198.931 232.074 199.859 231.378 200.788C230.681 201.717 230.449 207.755 236.487 206.826C242.525 205.898 239.506 199.627 239.506 199.627L236.719 192.892Z" fill="#2F2E41"/>
<path d="M202.581 192.892C202.581 192.892 206.761 190.106 208.387 193.357C210.012 196.608 208.619 198.931 208.619 198.931C208.619 198.931 207.225 199.859 207.922 200.788C208.619 201.717 208.851 207.755 202.813 206.826C196.775 205.898 199.794 199.627 199.794 199.627L202.581 192.892Z" fill="#2F2E41"/>
<path d="M207.574 75.2659C207.574 75.2659 209.664 81.0718 208.038 84.323C206.413 87.5743 210.593 91.2901 210.593 91.2901C210.593 91.2901 221.508 85.7164 220.114 82.9296C218.721 80.1428 216.399 76.4271 216.863 74.1047L207.574 75.2659Z" fill="#FFB8B8"/>
<path d="M211.638 77.4722C215.742 77.4722 219.069 74.145 219.069 70.0407C219.069 65.9364 215.742 62.6092 211.638 62.6092C207.534 62.6092 204.206 65.9364 204.206 70.0407C204.206 74.145 207.534 77.4722 211.638 77.4722Z" fill="#FFB8B8"/>
<path d="M206.297 83.9747C206.297 83.9747 213.753 90.1796 219.314 81.3874L225.108 84.6714L228.127 119.971C228.127 119.971 211.173 129.725 203.045 121.364L204.206 88.6193L206.297 83.9747Z" fill="#07D2FF"/>
<path d="M208.638 80.4988L198.169 87.4583L201.884 104.643L197.007 131.35L204.903 119.507L208.638 80.4988Z" fill="#575A89"/>
<path d="M217.891 78.5617L220.463 80.2589L230.913 83.9747L229.288 112.772L233.7 131.35L227.43 134.602C227.43 134.602 226.269 125.777 219.069 121.364C211.87 116.952 216.249 79.8834 217.891 78.5617Z" fill="#575A89"/>
<path d="M200.491 123.687L203.51 125.777C203.51 125.777 199.678 129.841 198.981 129.144C198.78 128.951 198.623 128.715 198.523 128.454C198.422 128.193 198.381 127.913 198.401 127.635L197.704 126.009L200.491 123.687Z" fill="#FFB8B8"/>
<path d="M220.56 123.235L219.534 124.848C219.534 124.848 216.515 126.241 217.212 127.17C217.908 128.099 223.714 130.189 224.875 128.099L226.036 126.009L220.56 123.235Z" fill="#FFB8B8"/>
<path d="M199.562 87.226L197.936 87.4582L195.265 104.76C195.265 104.76 194.22 107.895 195.381 115.326C196.543 122.758 197.693 127.597 197.693 127.597L202.813 123.919L200.491 117.881L203.51 95.8186L199.562 87.226Z" fill="#575A89"/>
<path d="M227.198 83.5102L230.913 83.9747C230.913 83.9747 235.094 88.3871 235.79 93.0318C236.487 97.6765 236.255 110.914 236.255 110.914L225.572 127.867L219.766 123.687L227.894 109.288L223.946 92.1029L227.198 83.5102Z" fill="#575A89"/>
<path d="M218.725 63.3193C217.601 61.4944 215.842 60.1497 213.786 59.5439L212.276 60.7518L212.863 59.3429C212.369 59.2676 211.87 59.2387 211.371 59.2567L210.012 61.0034L210.575 59.3165C209.396 59.463 208.26 59.8522 207.239 60.4595C206.218 61.0667 205.334 61.879 204.643 62.8449C202.914 65.3381 202.622 68.8053 204.323 71.318C204.789 69.8833 205.356 68.5371 205.823 67.1025C206.19 67.1525 206.562 67.1543 206.929 67.1079L207.497 65.7826L207.656 67.0518C209.416 66.8984 212.027 66.5617 213.696 66.2532L213.534 65.2795L214.505 66.0886C215.016 65.9709 215.32 65.8642 215.295 65.7826C216.536 67.7836 217.766 69.0617 219.007 71.0627C219.478 68.2402 220.31 65.8941 218.725 63.3193Z" fill="#2F2E41"/>
<path d="M218.313 70.8133C218.591 70.8133 218.816 70.3629 218.816 69.8072C218.816 69.2515 218.591 68.801 218.313 68.801C218.035 68.801 217.81 69.2515 217.81 69.8072C217.81 70.3629 218.035 70.8133 218.313 70.8133Z" fill="#FFB8B8"/>
</g>
<defs>
<clipPath id="clip0">
<rect width="268" height="219.642" fill="white"/>
</clipPath>
</defs>
</svg>
