<svg width="96" height="96" viewBox="0 0 96 96" fill="none" xmlns="http://www.w3.org/2000/svg">
<g clip-path="url(#clip0_5_699)">
<rect width="96" height="96" rx="39.5145" fill="url(#paint0_linear_5_699)"/>
<g filter="url(#filter0_f_5_699)">
<circle cx="105.469" cy="18.0938" r="36.0938" fill="url(#paint1_linear_5_699)"/>
</g>
<g filter="url(#filter1_f_5_699)">
<circle cx="23.9062" cy="95.9062" r="36.0938" fill="url(#paint2_linear_5_699)"/>
</g>
<path fill-rule="evenodd" clip-rule="evenodd" d="M41.4107 36.4687C35.0422 36.4687 29.8795 41.6315 29.8795 48C29.8795 54.3685 35.0422 59.5312 41.4107 59.5312C45.7288 59.5312 49.4926 57.1578 51.4685 53.6442C51.4897 53.6019 51.5125 53.5608 51.5369 53.5209C52.4328 51.8812 52.942 50.0001 52.942 48C52.942 41.6315 47.7792 36.4687 41.4107 36.4687ZM53.7671 56.1959C54.0379 56.2228 54.3121 56.2366 54.5893 56.2366C57.0496 56.2366 59.2595 55.1558 60.7663 53.4486C61.3683 52.7665 61.3034 51.7255 60.6213 51.1234C59.9392 50.5214 58.8982 50.5863 58.2962 51.2684C57.5618 52.1004 56.5558 52.6813 55.4171 52.8731C55.9481 51.3468 56.2366 49.7071 56.2366 48C56.2366 43.6077 54.3266 39.6615 51.2918 36.9467C52.3357 36.6358 53.4422 36.4687 54.5893 36.4687C60.9578 36.4687 66.1205 41.6315 66.1205 48C66.1205 54.3685 60.9578 59.5312 54.5893 59.5312C53.4422 59.5312 52.3357 59.3642 51.2918 59.0533C52.2329 58.2115 53.0658 57.2512 53.7671 56.1959ZM48.0004 61.2846C46.0154 62.2711 43.7778 62.8259 41.4107 62.8259C33.2226 62.8259 26.5848 56.1881 26.5848 48C26.5848 39.8119 33.2226 33.1741 41.4107 33.1741C43.7778 33.1741 46.0154 33.7288 48.0004 34.7154C49.9866 33.7286 52.2251 33.1741 54.5893 33.1741C62.7774 33.1741 69.4152 39.8119 69.4152 48C69.4152 56.1881 62.7774 62.8259 54.5893 62.8259C52.2251 62.8259 49.9866 62.2714 48.0004 61.2846ZM35.3787 51.1234C36.0608 50.5214 37.1018 50.5863 37.7038 51.2684C38.6118 52.2971 39.9349 52.9419 41.4107 52.9419C42.8865 52.9419 44.2097 52.2971 45.1176 51.2684C45.7197 50.5863 46.7607 50.5214 47.4428 51.1234C48.1249 51.7255 48.1898 52.7665 47.5877 53.4486C46.0809 55.1558 43.871 56.2366 41.4107 56.2366C38.9504 56.2366 36.7405 55.1558 35.2337 53.4486C34.6316 52.7665 34.6966 51.7255 35.3787 51.1234ZM36.0569 43.058C34.9197 43.058 33.9978 43.9799 33.9978 45.1172C33.9978 46.2544 34.9197 47.1763 36.0569 47.1763C37.1942 47.1763 38.1161 46.2544 38.1161 45.1172C38.1161 43.9799 37.1942 43.058 36.0569 43.058ZM44.7054 45.1172C44.7054 43.9799 45.6273 43.058 46.7645 43.058C47.9017 43.058 48.8237 43.9799 48.8237 45.1172C48.8237 46.2544 47.9017 47.1763 46.7645 47.1763C45.6273 47.1763 44.7054 46.2544 44.7054 45.1172ZM57.8839 45.1172C57.8839 43.9799 58.8058 43.058 59.9431 43.058C61.0803 43.058 62.0022 43.9799 62.0022 45.1172C62.0022 46.2544 61.0803 47.1763 59.9431 47.1763C58.8058 47.1763 57.8839 46.2544 57.8839 45.1172Z" fill="white"/>
</g>
<defs>
<filter id="filter0_f_5_699" x="31.125" y="-56.25" width="148.688" height="148.688" filterUnits="userSpaceOnUse" color-interpolation-filters="sRGB">
<feFlood flood-opacity="0" result="BackgroundImageFix"/>
<feBlend mode="normal" in="SourceGraphic" in2="BackgroundImageFix" result="shape"/>
<feGaussianBlur stdDeviation="19.125" result="effect1_foregroundBlur_5_699"/>
</filter>
<filter id="filter1_f_5_699" x="-50.4375" y="21.5625" width="148.688" height="148.688" filterUnits="userSpaceOnUse" color-interpolation-filters="sRGB">
<feFlood flood-opacity="0" result="BackgroundImageFix"/>
<feBlend mode="normal" in="SourceGraphic" in2="BackgroundImageFix" result="shape"/>
<feGaussianBlur stdDeviation="19.125" result="effect1_foregroundBlur_5_699"/>
</filter>
<linearGradient id="paint0_linear_5_699" x1="-48" y1="48" x2="48" y2="144" gradientUnits="userSpaceOnUse">
<stop stop-color="#70B2FF"/>
<stop offset="1" stop-color="#5C9CE6"/>
</linearGradient>
<linearGradient id="paint1_linear_5_699" x1="33.2812" y1="18.0938" x2="105.469" y2="90.2812" gradientUnits="userSpaceOnUse">
<stop stop-color="#C48AFF"/>
<stop offset="1" stop-color="#AA65F0"/>
</linearGradient>
<linearGradient id="paint2_linear_5_699" x1="96.0938" y1="95.9062" x2="23.9062" y2="23.7188" gradientUnits="userSpaceOnUse">
<stop stop-color="#65C2C2"/>
<stop offset="1" stop-color="#86D1D1"/>
</linearGradient>
<clipPath id="clip0_5_699">
<rect width="96" height="96" rx="39.5145" fill="white"/>
</clipPath>
</defs>
</svg>
