<svg width="32" height="32" viewBox="0 0 32 32" fill="none" xmlns="http://www.w3.org/2000/svg">
<g clip-path="url(#clip0_2_138)">
<path d="M28.1926 18.735C27.8264 18.3803 27.2329 18.3803 26.8667 18.735C26.5006 19.0896 26.5006 19.6647 26.8667 20.0193L28.7579 21.8514C28.941 22.0288 29.1809 22.1174 29.4208 22.1174C29.6608 22.1174 29.9007 22.0287 30.0838 21.8514C30.4499 21.4968 30.4499 20.9217 30.0838 20.567L28.1926 18.735Z" fill="#ABC8FF"/>
<path d="M27.5296 11.219C27.7695 11.219 28.0095 11.1303 28.1926 10.953L30.0838 9.12095C30.4499 8.76633 30.4499 8.19125 30.0838 7.83657C29.7176 7.48189 29.1241 7.48189 28.7579 7.83657L26.8667 9.66866C26.5006 10.0233 26.5006 10.5984 26.8667 10.953C27.0498 11.1304 27.2897 11.219 27.5296 11.219Z" fill="#ABC8FF"/>
<path d="M31.0625 13.9358H28.3879C27.8702 13.9358 27.4504 14.3424 27.4504 14.844C27.4504 15.3455 27.8702 15.7522 28.3879 15.7522H31.0625C31.5803 15.7522 32 15.3455 32 14.844C32 14.3424 31.5803 13.9358 31.0625 13.9358Z" fill="#ABC8FF"/>
<path d="M24.9529 1.92817C24.6569 1.76754 24.2944 1.77444 24.0051 1.94603L13.2686 8.31587H8.50225C7.48431 8.26374 6.51594 8.6074 5.77256 9.28528C5.49587 9.53752 5.26262 9.82869 5.07675 10.146H2.71794C1.21925 10.146 0 11.3271 0 12.779V16.909C0 18.3608 1.21925 19.542 2.71794 19.542H5.07206C5.44956 20.1958 6.01944 20.7377 6.71225 21.0964L3.44594 26.5771C3.32062 26.7874 3.28744 27.0375 3.35375 27.2717C3.42013 27.5058 3.5805 27.7045 3.79906 27.8233L7.93544 30.0713C8.08044 30.1502 8.23794 30.1876 8.39331 30.1876C8.7175 30.1876 9.03256 30.0245 9.206 29.7334L13.8701 21.9072L24.0158 27.7481C24.1632 27.833 24.3289 27.8755 24.4947 27.8755C24.6546 27.8755 24.8145 27.836 24.9583 27.7567C25.2513 27.5952 25.4322 27.2938 25.4322 26.9673V2.72055C25.4322 2.3919 25.2489 2.08886 24.9529 1.92817ZM2.71794 17.7256C2.25312 17.7256 1.875 17.3593 1.875 16.909V12.779C1.875 12.3287 2.25312 11.9624 2.71794 11.9624H4.57131C4.57119 11.9759 4.57025 11.9894 4.57025 12.003V17.685C4.57025 17.6986 4.57113 17.712 4.57131 17.7256H2.71794ZM6.44525 12.003C6.44525 11.4713 6.66844 10.9628 7.05756 10.608C7.42794 10.2703 7.91119 10.1005 8.419 10.1306C8.43794 10.1317 12.5954 10.1323 12.5954 10.1323V19.7483H8.50656C7.3485 19.6677 6.44525 18.766 6.44525 17.6849V12.003ZM8.04525 28.0483L5.54425 26.6891L8.54294 21.6574C8.561 21.6272 8.57656 21.5961 8.59062 21.5648H11.9092L8.04525 28.0483ZM23.5572 25.3711L14.4704 20.1398V9.73285L23.5572 4.34175V25.3711Z" fill="#ABC8FF"/>
</g>
<defs>
<clipPath id="clip0_2_138">
<rect width="32" height="31" fill="white" transform="translate(0 0.5)"/>
</clipPath>
</defs>
</svg>
