<svg width="33" height="32" viewBox="0 0 33 32" fill="none" xmlns="http://www.w3.org/2000/svg">
<g clip-path="url(#clip0_610_1566)">
<path d="M29.1998 17.7916C28.8109 17.4028 28.1805 17.4028 27.7916 17.7916C27.4028 18.1804 27.4028 18.8109 27.7916 19.1997L29.8002 21.2084C29.9947 21.4028 30.2494 21.5 30.5043 21.5C30.7591 21.5 31.0139 21.4028 31.2084 21.2084C31.5972 20.8196 31.5972 20.1891 31.2084 19.8002L29.1998 17.7916Z" fill="#A920E9"/>
<path d="M28.4957 11.5C28.7504 11.5 29.0053 11.4028 29.1998 11.2084L31.2084 9.19978C31.5972 8.81098 31.5972 8.1805 31.2084 7.79164C30.8195 7.40279 30.1891 7.40279 29.8002 7.79164L27.7916 9.80026C27.4028 10.189 27.4028 10.8195 27.7916 11.2084C27.9861 11.4028 28.2408 11.5 28.4957 11.5V11.5Z" fill="#A920E9"/>
<path d="M31.4697 13.5H28.5303C27.9613 13.5 27.5 13.9477 27.5 14.5C27.5 15.0523 27.9613 15.5 28.5303 15.5H31.4697C32.0387 15.5 32.5 15.0523 32.5 14.5C32.5 13.9477 32.0387 13.5 31.4697 13.5Z" fill="#A920E9"/>
<path d="M25.0289 1.61429C24.7379 1.45579 24.3816 1.4626 24.0972 1.63192L13.5431 7.9175H8.85776C7.85713 7.86606 6.90521 8.20518 6.17446 8.8741C5.90248 9.123 5.67319 9.41032 5.49048 9.72339H3.17175C1.69853 9.72339 0.5 10.8889 0.5 12.3216V16.397C0.5 17.8296 1.69853 18.9951 3.17175 18.9951H5.48587C5.85695 19.6403 6.41714 20.1751 7.09818 20.529L3.88738 25.9372C3.76419 26.1447 3.73157 26.3915 3.79676 26.6226C3.862 26.8537 4.01965 27.0497 4.2345 27.1669L8.30058 29.3852C8.44312 29.463 8.59794 29.5 8.75068 29.5C9.06936 29.5 9.37907 29.339 9.54956 29.0517L14.1344 21.3291L24.1076 27.0927C24.2526 27.1765 24.4155 27.2185 24.5784 27.2185C24.7356 27.2185 24.8928 27.1795 25.0342 27.1012C25.3221 26.9419 25.5 26.6444 25.5 26.3223V2.39619C25.5 2.07189 25.3198 1.77286 25.0289 1.61429V1.61429ZM3.17175 17.2028C2.71484 17.2028 2.34314 16.8413 2.34314 16.397V12.3216C2.34314 11.8772 2.71484 11.5158 3.17175 11.5158H4.99363C4.99351 11.5292 4.99258 11.5425 4.99258 11.5559V17.1627C4.99258 17.1761 4.99344 17.1894 4.99363 17.2028H3.17175ZM6.83572 11.5559C6.83572 11.0312 7.05512 10.5294 7.43763 10.1793C7.80171 9.84611 8.27675 9.67852 8.77593 9.70827C8.79454 9.70935 12.8814 9.70989 12.8814 9.70989V19.1988H8.862C7.72362 19.1192 6.83572 18.2294 6.83572 17.1626V11.5559ZM8.40853 27.3889L5.95003 26.0477L8.89776 21.0826C8.91552 21.0527 8.93081 21.0221 8.94464 20.9912H12.2068L8.40853 27.3889ZM23.6569 24.7472L14.7245 19.5851V9.31574L23.6569 3.99595V24.7472Z" fill="#A920E9"/>
</g>
<defs>
<clipPath id="clip0_610_1566">
<rect width="32" height="31" fill="white" transform="translate(0.5 0.5)"/>
</clipPath>
</defs>
</svg>
