<svg width="327" height="195" viewBox="0 0 327 195" fill="none" xmlns="http://www.w3.org/2000/svg">
<rect x="21" width="286" height="195" rx="24" fill="white" fill-opacity="0.05"/>
<circle cx="49" cy="28" r="16" fill="white" fill-opacity="0.1"/>
<rect x="73" y="14" width="100" height="12" rx="6" fill="white" fill-opacity="0.1"/>
<rect x="73" y="32" width="130" height="10" rx="5" fill="white" fill-opacity="0.1"/>
<rect x="21" y="90" width="286" height="105" fill="white" fill-opacity="0.1"/>
<rect x="33" y="61" width="77" height="16" rx="8" fill="white" fill-opacity="0.1"/>
<rect y="111" width="327" height="84" fill="url(#paint0_linear_17_4678)"/>
<rect x="138" y="143" width="52" height="52" rx="26" fill="white" fill-opacity="0.1"/>
<path d="M167.59 158C169.773 158 170.823 158.203 171.914 158.786C172.903 159.315 173.685 160.097 174.214 161.086C174.797 162.177 175 163.227 175 165.41V172.59C175 174.773 174.797 175.823 174.214 176.914C173.685 177.903 172.903 178.685 171.914 179.214C170.823 179.797 169.773 180 167.59 180H160.41C158.227 180 157.177 179.797 156.086 179.214C155.097 178.685 154.315 177.903 153.786 176.914C153.203 175.823 153 174.773 153 172.59V165.41C153 163.227 153.203 162.177 153.786 161.086C154.315 160.097 155.097 159.315 156.086 158.786C157.177 158.203 158.227 158 160.41 158H167.59ZM154.999 166L155 172.59C155 174.471 155.142 175.209 155.55 175.971C155.892 176.611 156.389 177.108 157.029 177.45C157.791 177.858 158.529 178 160.41 178H167.59C169.471 178 170.209 177.858 170.971 177.45C171.611 177.108 172.108 176.611 172.45 175.971C172.858 175.209 173 174.471 173 172.59L172.999 166H154.999ZM167.59 160H160.41C158.529 160 157.791 160.142 157.029 160.55C156.389 160.892 155.892 161.389 155.55 162.029C155.264 162.563 155.109 163.086 155.041 163.999H172.959C172.891 163.086 172.736 162.563 172.45 162.029C172.108 161.389 171.611 160.892 170.971 160.55C170.209 160.142 169.471 160 167.59 160Z" fill="white"/>
<defs>
<linearGradient id="paint0_linear_17_4678" x1="163.5" y1="111" x2="163.5" y2="195" gradientUnits="userSpaceOnUse">
<stop stop-color="#303030" stop-opacity="0"/>
<stop offset="0.397005" stop-color="#303030" stop-opacity="0.7"/>
<stop offset="0.622967" stop-color="#303030"/>
</linearGradient>
</defs>
</svg>
