<svg width="31" height="31" viewBox="0 0 31 31" fill="none" xmlns="http://www.w3.org/2000/svg">
<g clip-path="url(#clip0)">
<path d="M29.6269 28.7688H27.0411V22.996C27.0411 22.5179 26.6481 22.1304 26.1633 22.1304H19.9603V18.3656C19.9603 17.8876 19.5673 17.5 19.0825 17.5H11.9948C11.5101 17.5 11.1171 17.8876 11.1171 18.3656V20.5718H4.91409C4.42935 20.5718 4.03637 20.9594 4.03637 21.4374V28.7688H1.3731C0.208528 28.8146 0.209406 30.4547 1.3731 30.5H29.6269C30.7915 30.4542 30.7906 28.8141 29.6269 28.7688ZM18.2048 19.2312C18.2063 21.4794 18.1935 26.4919 18.1978 28.7688H12.8795C12.8827 27.1427 12.876 20.7104 12.8725 19.2312H18.2048ZM5.79182 22.303H11.1171V28.7688H5.79182V22.303ZM19.9603 28.7688V23.8616H25.2856V28.7688H19.9603Z" fill="#2086E9"/>
<path d="M10.5065 7.00522H10.759C11.2014 8.63922 12.5319 9.90118 14.1866 10.2171V11.7698H13.4643C12.337 11.8155 12.3379 13.4547 13.4643 13.5H16.6081C17.7354 13.4543 17.7345 11.8151 16.6081 11.7698H15.8858V10.2033C17.5058 9.86409 18.8025 8.61454 19.2383 7.00522H19.4935C21.1513 7.00522 22.5 5.6319 22.5 3.94391V2.3651C22.5 1.88733 22.1196 1.5 21.6504 1.5H18.5499C18.549 1.50006 18.548 1.50006 18.5471 1.5H8.3496C7.88039 1.5 7.5 1.88733 7.5 2.3651V3.94391C7.5 5.6319 8.84871 7.00522 10.5065 7.00522ZM20.8009 3.94391C20.8009 4.67792 20.2144 5.27502 19.4935 5.27502H19.3968V3.2302H20.8009V3.94391ZM17.6976 5.81651C17.5489 9.4632 12.4471 9.46038 12.2997 5.81651V3.2302H17.6976V5.81651ZM9.1992 3.2302H10.6005V5.27502H10.5065C9.78565 5.27502 9.1992 4.67787 9.1992 3.94391V3.2302Z" fill="#2086E9"/>
</g>
<defs>
<clipPath id="clip0">
<rect width="30" height="30" fill="white" transform="translate(0.5 0.5)"/>
</clipPath>
</defs>
</svg>
