<svg width="193" height="208" viewBox="0 0 193 208" fill="none" xmlns="http://www.w3.org/2000/svg">
<path d="M122.426 118.012L38.9988 139.53C36.1689 140.257 33.1668 139.829 30.6512 138.341C28.1355 136.854 26.3118 134.427 25.5801 131.594L0.349571 33.4591C-0.375762 30.6247 0.0510558 27.6178 1.53639 25.0981C3.02173 22.5784 5.44428 20.7518 8.27257 20.0189L85.8877 0L105.753 8.90754L130.349 104.572C131.074 107.407 130.647 110.413 129.162 112.933C127.677 115.453 125.254 117.279 122.426 118.012Z" fill="#F2F2F2"/>
<path d="M9.06341 23.0957C7.04932 23.6176 5.32417 24.9184 4.26643 26.7127C3.20868 28.507 2.90474 30.6483 3.42127 32.6668L28.6517 130.802C29.1728 132.819 30.4715 134.547 32.263 135.607C34.0544 136.666 36.1923 136.971 38.2075 136.453L121.634 114.935C123.649 114.414 125.374 113.113 126.431 111.318C127.489 109.524 127.793 107.383 127.277 105.364L103.062 11.1822L85.604 3.354L9.06341 23.0957Z" fill="white"/>
<path d="M105.541 9.41383L92.6299 12.744C91.6873 12.9871 90.6869 12.8452 89.8488 12.3496C89.0107 11.8539 88.4035 11.0451 88.1607 10.101L85.7051 0.549477C85.6943 0.50766 85.6955 0.463655 85.7086 0.422509C85.7217 0.381362 85.7461 0.34474 85.779 0.316841C85.8119 0.288942 85.852 0.270896 85.8947 0.264773C85.9373 0.25865 85.9809 0.264696 86.0203 0.282221L105.577 8.98138C105.621 9.00074 105.657 9.03319 105.681 9.07423C105.706 9.11526 105.717 9.16284 105.713 9.21037C105.709 9.25791 105.69 9.30303 105.659 9.33949C105.629 9.37595 105.587 9.40193 105.541 9.41383Z" fill="#F2F2F2"/>
<path d="M98.7486 93.2193L60.7656 103.016C60.5322 103.076 60.2893 103.09 60.0507 103.056C59.8121 103.022 59.5825 102.942 59.375 102.819C59.1675 102.696 58.9862 102.534 58.8414 102.341C58.6966 102.148 58.5911 101.928 58.531 101.695C58.4709 101.461 58.4574 101.218 58.4911 100.979C58.5249 100.74 58.6054 100.51 58.7279 100.302C58.8504 100.094 59.0126 99.9124 59.2052 99.7673C59.3978 99.6223 59.617 99.5166 59.8504 99.4564L97.8335 89.6596C98.0668 89.5994 98.3097 89.5859 98.5483 89.6197C98.7869 89.6536 99.0165 89.7341 99.224 89.8568C99.4315 89.9796 99.6129 90.142 99.7577 90.3349C99.9025 90.5278 100.008 90.7474 100.068 90.9811C100.128 91.2149 100.142 91.4582 100.108 91.6971C100.074 91.9361 99.9937 92.1661 99.8711 92.3739C99.7486 92.5817 99.5864 92.7634 99.3938 92.9084C99.2012 93.0535 98.982 93.1591 98.7486 93.2193Z" fill="#CCCCCC"/>
<path d="M107.623 97.3356L62.3099 109.023C61.8386 109.145 61.3384 109.074 60.9194 108.826C60.5003 108.578 60.1967 108.174 60.0753 107.701C59.954 107.229 60.0248 106.728 60.2722 106.309C60.5197 105.889 60.9234 105.585 61.3947 105.463L106.708 93.7759C107.179 93.6549 107.679 93.7261 108.098 93.974C108.516 94.2218 108.82 94.6261 108.941 95.0978C109.062 95.5696 108.991 96.0703 108.744 96.4899C108.497 96.9095 108.094 97.2137 107.623 97.3356Z" fill="#CCCCCC"/>
<path d="M45.263 114.815C48.8449 114.815 51.7486 111.907 51.7486 108.319C51.7486 104.732 48.8449 101.823 45.263 101.823C41.6812 101.823 38.7775 104.732 38.7775 108.319C38.7775 111.907 41.6812 114.815 45.263 114.815Z" fill="#E6E6E6"/>
<path d="M94.71 76.2189L44.2647 89.2251C42.8068 89.5993 41.2603 89.3789 39.9644 88.6124C38.6685 87.8458 37.7291 86.5958 37.3523 85.1364L26.7809 44.0028C26.4073 42.5426 26.6273 40.9936 27.3926 39.6957C28.1579 38.3977 29.406 37.4568 30.863 37.0794L81.3084 24.0731C82.7662 23.699 84.3128 23.9194 85.6086 24.6859C86.9045 25.4524 87.8439 26.7025 88.2207 28.1619L98.7922 69.2954C99.1657 70.7557 98.9457 72.3046 98.1804 73.6026C97.4151 74.9005 96.167 75.8414 94.71 76.2189Z" fill="white"/>
<path d="M94.71 76.2189L44.2647 89.2251C42.8068 89.5993 41.2603 89.3789 39.9644 88.6124C38.6685 87.8458 37.7291 86.5958 37.3523 85.1364L26.7809 44.0028C26.4073 42.5426 26.6273 40.9936 27.3926 39.6957C28.1579 38.3977 29.406 37.4568 30.863 37.0794L81.3084 24.0731C82.7662 23.699 84.3128 23.9194 85.6086 24.6859C86.9045 25.4524 87.8439 26.7025 88.2207 28.1619L98.7922 69.2954C99.1657 70.7557 98.9457 72.3046 98.1804 73.6026C97.4151 74.9005 96.167 75.8414 94.71 76.2189ZM31.0295 37.7272C29.7439 38.0602 28.6427 38.8904 27.9674 40.0356C27.2922 41.1809 27.098 42.5477 27.4276 43.8361L37.9991 84.9697C38.3316 86.2573 39.1604 87.3603 40.3038 88.0367C41.4473 88.713 42.8118 88.9074 44.0982 88.5773L94.5435 75.5711C95.8292 75.2381 96.9304 74.4079 97.6056 73.2626C98.2809 72.1174 98.475 70.7506 98.1455 69.4622L87.574 28.3286C87.2415 27.0409 86.4126 25.9379 85.2692 25.2616C84.1258 24.5852 82.7612 24.3908 81.4748 24.7209L31.0295 37.7272Z" fill="#E6E6E6"/>
<path d="M78.7492 37.9038L53.29 44.4679C53.0675 44.5302 52.8296 44.5054 52.6245 44.3987C52.4195 44.2921 52.2625 44.1114 52.1853 43.8932C52.1494 43.7792 52.1371 43.6591 52.149 43.5402C52.161 43.4213 52.197 43.306 52.2549 43.2015C52.3128 43.097 52.3913 43.0054 52.4858 42.9323C52.5802 42.8592 52.6884 42.8062 52.804 42.7764L78.7198 36.0945C79.7667 36.6258 79.4912 37.7125 78.7489 37.9039L78.7492 37.9038Z" fill="#F2F2F2"/>
<path d="M79.8986 42.3767L54.4396 48.9408C54.217 49.003 53.9791 48.9783 53.774 48.8716C53.569 48.7649 53.412 48.5842 53.3348 48.366C53.2989 48.252 53.2866 48.1319 53.2986 48.013C53.3105 47.8941 53.3465 47.7789 53.4044 47.6744C53.4623 47.5699 53.5409 47.4783 53.6353 47.4052C53.7297 47.3321 53.838 47.279 53.9535 47.2492L79.8693 40.5674C80.9162 41.0987 80.6407 42.1854 79.8984 42.3768L79.8986 42.3767Z" fill="#F2F2F2"/>
<path d="M49.5905 52.9066L41.8206 54.9099C41.5668 54.975 41.2976 54.9367 41.0721 54.8032C40.8465 54.6698 40.683 54.4522 40.6174 54.1982L38.2572 45.0144C38.1921 44.7602 38.2304 44.4906 38.3636 44.2646C38.4968 44.0387 38.7141 43.875 38.9677 43.8093L46.7376 41.806C46.9913 41.7409 47.2605 41.7793 47.4861 41.9127C47.7116 42.0461 47.8751 42.2637 47.9408 42.5177L50.301 51.7015C50.3661 51.9556 50.3278 52.2253 50.1946 52.4512C50.0614 52.6771 49.8441 52.8409 49.5905 52.9066V52.9066Z" fill="#E6E6E6"/>
<path d="M82.1784 51.554L43.3231 61.572C43.1005 61.6343 42.8627 61.6095 42.6576 61.5028C42.4525 61.3961 42.2956 61.2154 42.2184 60.9973C42.1825 60.8833 42.1701 60.7632 42.1821 60.6443C42.1941 60.5254 42.2301 60.4101 42.288 60.3056C42.3459 60.2011 42.4244 60.1095 42.5188 60.0364C42.6132 59.9633 42.7215 59.9103 42.8371 59.8805L82.1493 49.7446C83.1962 50.2759 82.9207 51.3626 82.1784 51.554L82.1784 51.554Z" fill="#F2F2F2"/>
<path d="M83.3282 56.0282L44.473 66.0462C44.2504 66.1084 44.0125 66.0837 43.8075 65.977C43.6024 65.8703 43.4454 65.6896 43.3682 65.4715C43.3323 65.3575 43.32 65.2374 43.3319 65.1185C43.3439 64.9995 43.3799 64.8843 43.4378 64.7798C43.4957 64.6753 43.5743 64.5837 43.6687 64.5106C43.7631 64.4375 43.8714 64.3844 43.9869 64.3547L83.2992 54.2188C84.3461 54.7501 84.0706 55.8368 83.3282 56.0282V56.0282Z" fill="#F2F2F2"/>
<path d="M84.4773 60.4995L45.6221 70.5175C45.3995 70.5797 45.1616 70.555 44.9566 70.4483C44.7515 70.3416 44.5945 70.1609 44.5173 69.9427C44.4814 69.8287 44.4691 69.7086 44.4811 69.5897C44.493 69.4708 44.529 69.3556 44.5869 69.2511C44.6448 69.1466 44.7234 69.055 44.8178 68.9819C44.9122 68.9088 45.0205 68.8557 45.136 68.8259L84.4483 58.6901C85.4951 59.2214 85.2197 60.3081 84.4773 60.4995Z" fill="#F2F2F2"/>
<path d="M85.6272 64.9733L46.7719 74.9913C46.5493 75.0536 46.3115 75.0288 46.1064 74.9221C45.9013 74.8155 45.7443 74.6347 45.6672 74.4166C45.6313 74.3026 45.6189 74.1825 45.6309 74.0636C45.6429 73.9447 45.6789 73.8294 45.7368 73.7249C45.7947 73.6204 45.8732 73.5288 45.9676 73.4557C46.062 73.3826 46.1703 73.3296 46.2859 73.2998L85.5981 63.1639C86.645 63.6952 86.3695 64.7819 85.6272 64.9733L85.6272 64.9733Z" fill="#F2F2F2"/>
<path d="M86.7764 69.4449L47.9211 79.4629C47.6985 79.5251 47.4606 79.5004 47.2556 79.3937C47.0505 79.287 46.8935 79.1063 46.8164 78.8881C46.7804 78.7742 46.7681 78.6541 46.7801 78.5351C46.792 78.4162 46.8281 78.301 46.8859 78.1965C46.9438 78.092 47.0224 78.0004 47.1168 77.9273C47.2112 77.8542 47.3195 77.8011 47.435 77.7713L86.7473 67.6355C87.7942 68.1668 87.5187 69.2535 86.7764 69.4449Z" fill="#F2F2F2"/>
<path d="M45.7415 110.596C45.6003 110.633 45.451 110.623 45.3161 110.567L45.3078 110.564L43.541 109.813C43.459 109.779 43.3846 109.728 43.3222 109.664C43.2597 109.601 43.2104 109.525 43.177 109.443C43.1437 109.36 43.1269 109.272 43.1277 109.182C43.1285 109.093 43.1468 109.005 43.1817 108.923C43.2165 108.841 43.2672 108.767 43.3307 108.704C43.3943 108.642 43.4695 108.592 43.5521 108.559C43.6347 108.526 43.7231 108.509 43.8121 108.51C43.9012 108.511 43.9891 108.53 44.071 108.565L45.2159 109.052L46.7161 105.518C46.7509 105.436 46.8015 105.361 46.8649 105.299C46.9284 105.237 47.0035 105.187 47.0859 105.154C47.1684 105.121 47.2566 105.104 47.3455 105.105C47.4344 105.106 47.5223 105.124 47.6041 105.159L47.6043 105.159L47.5953 105.182L47.6047 105.159C47.7699 105.229 47.9003 105.363 47.9674 105.529C48.0346 105.696 48.0329 105.883 47.9628 106.048L46.1978 110.205C46.1569 110.3 46.0944 110.386 46.0154 110.453C45.9363 110.521 45.8428 110.57 45.7419 110.595L45.7415 110.596Z" fill="white"/>
<path d="M154.425 155.409H68.2762C65.3548 155.406 62.554 154.242 60.4882 152.173C58.4225 150.104 57.2605 147.299 57.2572 144.372V43.0356C57.2605 40.1095 58.4225 37.3042 60.4882 35.2351C62.554 33.1661 65.3548 32.0022 68.2762 31.9989H148.423L165.444 45.587V144.372C165.44 147.299 164.278 150.104 162.213 152.173C160.147 154.242 157.346 155.406 154.425 155.409Z" fill="#E6E6E6"/>
<path d="M68.2761 35.1761C66.1957 35.1785 64.2012 36.0073 62.7301 37.4807C61.2591 38.9541 60.4316 40.9519 60.4293 43.0356V144.372C60.4316 146.456 61.2591 148.454 62.7301 149.927C64.2012 151.401 66.1957 152.23 68.2761 152.232H154.425C156.505 152.23 158.5 151.401 159.971 149.927C161.442 148.454 162.269 146.456 162.272 144.372V47.1177L147.314 35.1761H68.2761Z" fill="white"/>
<path d="M137.669 64.6422H98.4466C97.96 64.6422 97.4933 64.4485 97.1491 64.1039C96.805 63.7592 96.6117 63.2917 96.6117 62.8043C96.6117 62.3168 96.805 61.8494 97.1491 61.5047C97.4933 61.16 97.96 60.9664 98.4466 60.9664H137.669C138.156 60.9664 138.622 61.16 138.966 61.5047C139.311 61.8494 139.504 62.3168 139.504 62.8043C139.504 63.2917 139.311 63.7592 138.966 64.1039C138.622 64.4485 138.156 64.6422 137.669 64.6422Z" fill="var(--color_primary)"/>
<path d="M145.238 70.8451H98.4466C97.9603 70.8445 97.4942 70.6505 97.1506 70.3059C96.8071 69.9613 96.6141 69.4942 96.6141 69.0072C96.6141 68.5202 96.8071 68.0531 97.1506 67.7085C97.4942 67.3639 97.9603 67.17 98.4466 67.1693H145.238C145.479 67.169 145.718 67.2163 145.941 67.3085C146.164 67.4007 146.367 67.536 146.537 67.7067C146.708 67.8774 146.843 68.0802 146.936 68.3033C147.028 68.5264 147.075 68.7656 147.075 69.0072C147.075 69.2488 147.028 69.488 146.936 69.7111C146.843 69.9343 146.708 70.137 146.537 70.3077C146.367 70.4784 146.164 70.6137 145.941 70.7059C145.718 70.7982 145.479 70.8454 145.238 70.8451Z" fill="var(--color_primary)"/>
<path d="M137.669 88.7635H98.4481C97.9615 88.7635 97.4948 88.9572 97.1507 89.3018C96.8066 89.6465 96.6133 90.1139 96.6133 90.6013C96.6133 91.0887 96.8066 91.5562 97.1507 91.9008C97.4948 92.2455 97.9615 92.4391 98.4481 92.4391H137.669C138.156 92.4391 138.622 92.2455 138.967 91.9008C139.311 91.5562 139.504 91.0887 139.504 90.6013C139.504 90.1139 139.311 89.6465 138.967 89.3018C138.622 88.9572 138.156 88.7635 137.669 88.7635Z" fill="#CCCCCC"/>
<path d="M145.239 94.9675H98.448C97.9614 94.9675 97.4947 95.1612 97.1506 95.5058C96.8065 95.8505 96.6132 96.3179 96.6132 96.8053C96.6132 97.2927 96.8065 97.7602 97.1506 98.1048C97.4947 98.4495 97.9614 98.6431 98.448 98.6431H145.239C145.725 98.6431 146.192 98.4495 146.536 98.1048C146.88 97.7602 147.074 97.2927 147.074 96.8053C147.074 96.3179 146.88 95.8505 146.536 95.5058C146.192 95.1612 145.725 94.9675 145.239 94.9675Z" fill="#CCCCCC"/>
<path d="M137.669 120.239H98.4466C97.96 120.239 97.4933 120.045 97.1491 119.7C96.805 119.356 96.6117 118.888 96.6117 118.401C96.6117 117.913 96.805 117.446 97.1491 117.101C97.4933 116.757 97.96 116.563 98.4466 116.563H137.669C138.156 116.563 138.622 116.757 138.966 117.101C139.311 117.446 139.504 117.913 139.504 118.401C139.504 118.888 139.311 119.356 138.966 119.7C138.622 120.045 138.156 120.239 137.669 120.239Z" fill="#CCCCCC"/>
<path d="M145.238 126.442H98.4466C97.9603 126.441 97.4942 126.247 97.1506 125.903C96.8071 125.558 96.6141 125.091 96.6141 124.604C96.6141 124.117 96.8071 123.65 97.1506 123.305C97.4942 122.96 97.9603 122.767 98.4466 122.766H145.238C145.479 122.766 145.718 122.813 145.941 122.905C146.164 122.997 146.367 123.133 146.537 123.303C146.708 123.474 146.843 123.677 146.936 123.9C147.028 124.123 147.075 124.362 147.075 124.604C147.075 124.845 147.028 125.085 146.936 125.308C146.843 125.531 146.708 125.734 146.537 125.904C146.367 126.075 146.164 126.21 145.941 126.302C145.718 126.395 145.479 126.442 145.238 126.442Z" fill="#CCCCCC"/>
<path d="M82.1134 72.4017C85.6953 72.4017 88.599 69.4933 88.599 65.9057C88.599 62.3181 85.6953 59.4097 82.1134 59.4097C78.5316 59.4097 75.6279 62.3181 75.6279 65.9057C75.6279 69.4933 78.5316 72.4017 82.1134 72.4017Z" fill="var(--color_primary)"/>
<path d="M81.4708 68.3837C81.3249 68.384 81.1829 68.3367 81.0662 68.249L81.0589 68.2436L79.5347 67.0758C79.4639 67.0216 79.4045 66.9541 79.3598 66.8769C79.3151 66.7997 79.286 66.7145 79.2742 66.626C79.2625 66.5376 79.2682 66.4477 79.2912 66.3615C79.3142 66.2753 79.3539 66.1945 79.4081 66.1237C79.4623 66.0529 79.5299 65.9935 79.607 65.9489C79.6842 65.9043 79.7694 65.8754 79.8577 65.8638C79.946 65.8522 80.0357 65.8582 80.1218 65.8814C80.2078 65.9045 80.2883 65.9445 80.3589 65.9989L81.3462 66.7572L83.6791 63.7088C83.7332 63.6381 83.8007 63.5788 83.8776 63.5342C83.9546 63.4897 84.0396 63.4607 84.1278 63.4491C84.2159 63.4374 84.3055 63.4433 84.3914 63.4663C84.4773 63.4893 84.5578 63.529 84.6284 63.5832L84.6286 63.5833L84.6141 63.6035L84.629 63.5833C84.7713 63.6929 84.8644 63.8546 84.8879 64.0329C84.9114 64.2112 84.8633 64.3915 84.7542 64.5343L82.0102 68.1184C81.9467 68.2009 81.8651 68.2678 81.7716 68.3136C81.6782 68.3595 81.5755 68.3832 81.4714 68.3829L81.4708 68.3837Z" fill="white"/>
<path d="M89.2656 93.7033C89.2659 94.5565 89.0984 95.4014 88.7727 96.1897C88.447 96.9781 87.9694 97.6944 87.3673 98.2978C86.7651 98.9013 86.0502 99.38 85.2633 99.7067C84.4764 100.033 83.6329 100.202 82.7811 100.202C82.7254 100.203 82.6696 100.2 82.6142 100.195C81.3389 100.162 80.1017 99.7534 79.0572 99.0199C78.0127 98.2864 77.2074 97.2606 76.7421 96.0709C76.2768 94.8813 76.1721 93.5806 76.4411 92.3316C76.7101 91.0827 77.3409 89.9409 78.2545 89.0492C79.1682 88.1575 80.3241 87.5556 81.5776 87.3186C82.8311 87.0816 84.1266 87.2202 85.3018 87.7169C86.4771 88.2137 87.48 89.0466 88.1851 90.1114C88.8901 91.1762 89.266 92.4256 89.2656 93.7033Z" fill="#CCCCCC"/>
<path d="M82.1134 127.998C85.6953 127.998 88.599 125.09 88.599 121.502C88.599 117.915 85.6953 115.006 82.1134 115.006C78.5316 115.006 75.6279 117.915 75.6279 121.502C75.6279 125.09 78.5316 127.998 82.1134 127.998Z" fill="#CCCCCC"/>
<path d="M165.112 46.0244H151.78C150.806 46.0244 149.873 45.6371 149.185 44.9477C148.497 44.2584 148.11 43.3234 148.11 42.3485V32.4854C148.11 32.4422 148.122 32.3999 148.145 32.3633C148.168 32.3268 148.201 32.2974 148.239 32.2786C148.278 32.2598 148.322 32.2523 148.364 32.2571C148.407 32.2618 148.448 32.2785 148.482 32.3053L165.255 45.6145C165.292 45.6442 165.319 45.6847 165.333 45.7305C165.346 45.7763 165.345 45.8251 165.329 45.8701C165.313 45.9152 165.284 45.9542 165.245 45.9819C165.207 46.0095 165.16 46.0244 165.112 46.0244Z" fill="#CCCCCC"/>
<path d="M89.2656 93.7033C89.2659 94.5565 89.0985 95.4014 88.7727 96.1897C88.447 96.9781 87.9694 97.6944 87.3673 98.2978C86.7651 98.9013 86.0502 99.38 85.2633 99.7067C84.4764 100.033 83.6329 100.202 82.7811 100.202C82.7254 100.203 82.6696 100.2 82.6142 100.195C81.7763 98.1017 81.4533 95.8374 81.6724 93.593C81.8915 91.3485 82.6462 89.1897 83.873 87.2987C85.3817 87.5577 86.7503 88.3426 87.7371 89.5146C88.7239 90.6866 89.2653 92.1702 89.2656 93.7033Z" fill="var(--color_primary)"/>
<path d="M96.6116 90.603C96.6124 90.1154 96.8062 89.648 97.1504 89.3033C97.4946 88.9585 97.9613 88.7644 98.4481 88.7635H108.222C108.792 89.9265 109.198 91.1636 109.427 92.4391H98.4481C97.9616 92.439 97.4951 92.2456 97.1508 91.9014C96.8065 91.5572 96.6126 91.0902 96.6116 90.603Z" fill="var(--color_primary)"/>
<path d="M109.654 94.9675C109.655 96.2089 109.491 97.4449 109.167 98.6431H98.4481C97.9615 98.6431 97.4948 98.4495 97.1507 98.1048C96.8066 97.7602 96.6133 97.2927 96.6133 96.8053C96.6133 96.3179 96.8066 95.8505 97.1507 95.5058C97.4948 95.1612 97.9615 94.9675 98.4481 94.9675H109.654Z" fill="var(--color_primary)"/>
<path d="M133.836 117.635C133.56 118.09 133.114 118.415 132.598 118.541C132.081 118.666 131.536 118.581 131.083 118.304L107.707 104.023C107.483 103.885 107.287 103.705 107.132 103.492C106.977 103.279 106.866 103.038 106.804 102.782C106.742 102.526 106.731 102.26 106.771 102C106.812 101.739 106.903 101.49 107.04 101.265C107.177 101.04 107.357 100.844 107.57 100.689C107.782 100.533 108.023 100.421 108.279 100.359C108.535 100.297 108.8 100.286 109.06 100.327C109.32 100.368 109.569 100.459 109.794 100.596L133.169 114.877C133.623 115.154 133.948 115.601 134.073 116.118C134.198 116.635 134.113 117.181 133.836 117.635Z" fill="#3F3D56"/>
<path d="M110.461 103.355C108.81 106.065 106.394 108.225 103.518 109.56C100.642 110.895 97.4354 111.346 94.3035 110.856C91.1715 110.366 88.255 108.956 85.9228 106.806C83.5906 104.655 81.9474 101.861 81.201 98.7748C80.4546 95.689 80.6386 92.4508 81.7296 89.4698C82.8206 86.4887 84.7698 83.8986 87.3305 82.027C89.8912 80.1555 92.9484 79.0865 96.1157 78.9553C99.283 78.8241 102.418 79.6365 105.124 81.2899C108.749 83.5103 111.347 87.0804 112.348 91.2169C113.348 95.3534 112.67 99.7185 110.461 103.355ZM86.5157 88.7253C85.2777 90.7582 84.6693 93.1133 84.7676 95.4925C84.8658 97.8718 85.6663 100.168 87.0677 102.092C88.4691 104.016 90.4086 105.48 92.6408 106.299C94.873 107.119 97.2977 107.257 99.6084 106.696C101.919 106.136 104.012 104.901 105.622 103.149C107.232 101.397 108.288 99.2066 108.655 96.8539C109.022 94.5011 108.684 92.0922 107.684 89.9317C106.684 87.7712 105.067 85.9562 103.038 84.7162C100.315 83.057 97.0464 82.5473 93.949 83.2989C90.8516 84.0505 88.1784 86.002 86.5157 88.7253Z" fill="#3F3D56"/>
<path d="M161.813 97.5689C166.343 97.5689 170.015 93.8912 170.015 89.3546C170.015 84.8179 166.343 81.1403 161.813 81.1403C157.284 81.1403 153.612 84.8179 153.612 89.3546C153.612 93.8912 157.284 97.5689 161.813 97.5689Z" fill="#A0616A"/>
<path d="M161.283 135.405C161.125 134.911 161.073 134.39 161.13 133.874C161.187 133.359 161.352 132.862 161.615 132.415C161.877 131.968 162.231 131.582 162.653 131.282C163.074 130.981 163.555 130.773 164.062 130.672C164.223 130.64 164.386 130.62 164.55 130.612L173.188 116.725L165.297 109.211C164.996 108.924 164.754 108.579 164.586 108.198C164.418 107.817 164.327 107.406 164.318 106.99C164.31 106.573 164.384 106.159 164.536 105.771C164.688 105.383 164.915 105.03 165.204 104.73C165.494 104.431 165.839 104.192 166.222 104.027C166.604 103.862 167.015 103.775 167.431 103.77C167.847 103.765 168.259 103.843 168.645 103.999C169.031 104.155 169.382 104.385 169.678 104.678L180.574 115.438L180.596 115.465C180.933 115.979 181.095 116.588 181.06 117.201C181.024 117.815 180.791 118.4 180.397 118.871L168.293 133.21C168.329 133.325 168.359 133.442 168.383 133.56C168.484 134.068 168.477 134.592 168.362 135.098C168.247 135.603 168.026 136.079 167.715 136.493C167.404 136.907 167.009 137.25 166.555 137.501C166.102 137.752 165.601 137.903 165.086 137.946C164.981 137.956 164.878 137.96 164.774 137.96C163.998 137.957 163.242 137.708 162.615 137.249C161.989 136.79 161.522 136.145 161.283 135.405Z" fill="#A0616A"/>
<path d="M148.306 203.677L144.212 203.677L142.265 187.862L148.307 187.862L148.306 203.677Z" fill="#A0616A"/>
<path d="M149.35 207.652L136.15 207.651V207.484C136.15 206.808 136.283 206.139 136.542 205.515C136.8 204.891 137.178 204.323 137.655 203.846C138.132 203.368 138.699 202.989 139.322 202.73C139.945 202.471 140.613 202.338 141.288 202.338H141.288L149.35 202.339L149.35 207.652Z" fill="#2F2E41"/>
<path d="M188.995 198.008L185.478 200.106L175.726 187.515L180.917 184.419L188.995 198.008Z" fill="#A0616A"/>
<path d="M191.922 200.888L180.581 207.652L180.495 207.508C180.15 206.928 179.922 206.285 179.825 205.616C179.728 204.947 179.764 204.266 179.929 203.611C180.095 202.956 180.388 202.34 180.792 201.798C181.195 201.257 181.701 200.8 182.281 200.454L182.281 200.454L189.208 196.323L191.922 200.888Z" fill="#2F2E41"/>
<path d="M141.749 196.712C139.006 164.37 137.375 134.323 147.4 122.066L147.477 121.971L164.348 128.731L164.376 128.791C164.433 128.915 170.044 141.277 168.735 149.592L172.896 168.765L186.465 191.521C186.574 191.704 186.643 191.909 186.668 192.121C186.692 192.332 186.671 192.547 186.607 192.75C186.542 192.954 186.435 193.141 186.292 193.3C186.15 193.458 185.975 193.585 185.78 193.671L179.884 196.269C179.551 196.414 179.177 196.434 178.831 196.326C178.485 196.218 178.189 195.988 177.998 195.679L163.238 171.572L154.901 153.082C154.855 152.981 154.778 152.899 154.681 152.847C154.585 152.794 154.473 152.776 154.365 152.793C154.256 152.81 154.156 152.863 154.081 152.943C154.005 153.023 153.958 153.126 153.946 153.235L149.325 196.745C149.286 197.115 149.112 197.457 148.836 197.706C148.56 197.955 148.202 198.092 147.83 198.091H143.246C142.87 198.089 142.509 197.947 142.232 197.692C141.955 197.437 141.783 197.088 141.749 196.712Z" fill="#2F2E41"/>
<path d="M147.457 122.323L147.376 122.284L147.364 122.196C146.734 117.778 147.48 112.869 149.581 107.606C150.617 105.03 152.542 102.912 155.006 101.639C157.47 100.365 160.308 100.021 163.005 100.668C164.558 101.052 166.014 101.754 167.282 102.73C168.551 103.707 169.602 104.937 170.371 106.342C171.13 107.732 171.592 109.266 171.728 110.844C171.865 112.423 171.672 114.013 171.163 115.514C168.514 123.273 165.077 130.533 165.043 130.605L164.971 130.757L147.457 122.323Z" fill="var(--color_primary)"/>
<path d="M129.05 111.318C129.456 110.997 129.925 110.766 130.427 110.639C130.929 110.512 131.452 110.493 131.962 110.582C132.471 110.672 132.956 110.868 133.385 111.159C133.814 111.45 134.176 111.828 134.449 112.268C134.535 112.408 134.61 112.554 134.676 112.704L150.688 115.946L154.951 105.911C155.114 105.528 155.351 105.181 155.649 104.889C155.947 104.598 156.299 104.369 156.685 104.215C157.072 104.061 157.485 103.985 157.901 103.992C158.317 103.999 158.728 104.088 159.109 104.255C159.49 104.422 159.835 104.662 160.123 104.963C160.411 105.264 160.636 105.619 160.786 106.007C160.937 106.396 161.008 106.81 160.998 107.227C160.987 107.644 160.894 108.054 160.724 108.434L154.477 122.424L154.46 122.454C154.097 122.95 153.585 123.316 152.999 123.497C152.412 123.679 151.783 123.666 151.205 123.461L133.557 117.126C133.462 117.2 133.363 117.269 133.261 117.333C132.821 117.606 132.329 117.783 131.816 117.852C131.303 117.921 130.781 117.881 130.284 117.734C129.788 117.587 129.328 117.336 128.935 116.999C128.542 116.661 128.225 116.245 128.004 115.776C127.959 115.681 127.918 115.585 127.882 115.489C127.613 114.759 127.582 113.963 127.791 113.214C128.001 112.465 128.441 111.802 129.05 111.318Z" fill="#A0616A"/>
<path d="M191.441 98.1514C190.651 96.7494 189.5 95.4654 187.978 94.9472C186.013 94.2779 183.886 94.9905 181.865 95.4663C180.309 95.8328 178.683 96.0572 177.114 95.7478C175.545 95.4385 174.032 94.524 173.318 93.091C172.268 90.9828 173.152 88.4687 173.088 86.1136C173.056 84.8315 172.733 83.5737 172.144 82.4348C171.555 81.296 170.716 80.3059 169.689 79.5391C168.663 78.7723 167.476 78.2489 166.219 78.0083C164.961 77.7678 163.665 77.8163 162.429 78.1503C160.494 77.5911 158.743 77.5394 157.546 79.0289C156.041 79.0289 154.597 79.6279 153.532 80.6942C152.468 81.7604 151.87 83.2066 151.87 84.7145H157.298C157.04 86.1007 157.334 87.5328 158.117 88.7048C159.075 90.1147 160.741 91.1347 161.062 92.8097C161.373 94.433 160.271 95.9732 159.116 97.1531C157.96 98.333 156.62 99.5022 156.259 101.115C156.038 102.339 156.289 103.602 156.961 104.648C157.633 105.682 158.465 106.601 159.428 107.369C163.764 111.09 168.917 113.73 174.466 115.075C178.374 116.017 182.649 116.262 186.277 114.528C187.728 113.834 189.022 112.849 190.077 111.634C191.132 110.419 191.926 108.999 192.411 107.463C192.895 105.927 193.059 104.308 192.892 102.706C192.725 101.104 192.231 99.554 191.441 98.1514Z" fill="#2F2E41"/>
<path d="M192.666 208H129.223C129.135 208 129.05 207.965 128.987 207.902C128.925 207.839 128.889 207.754 128.889 207.666C128.889 207.577 128.925 207.492 128.987 207.429C129.05 207.366 129.135 207.331 129.223 207.331H192.666C192.755 207.331 192.84 207.366 192.902 207.429C192.965 207.492 193 207.577 193 207.666C193 207.754 192.965 207.839 192.902 207.902C192.84 207.965 192.755 208 192.666 208Z" fill="#CCCCCC"/>
</svg>
