<svg width="23" height="24" viewBox="0 0 23 24" fill="none" xmlns="http://www.w3.org/2000/svg">
<path d="M4.54891 15.5692C5.5588 15.566 6.53048 15.1684 7.27033 14.4554L14.4982 18.739C13.9976 20.768 15.0091 22.8704 16.8732 23.6755C18.7373 24.4806 20.8886 23.7442 21.9243 21.9464C22.9601 20.1486 22.5662 17.8347 20.9995 16.5134C19.4328 15.1922 17.1684 15.2644 15.6828 16.6829L8.45496 12.3993C8.53074 12.0988 8.57258 11.7901 8.57966 11.4796L15.6817 7.27023C17.0913 8.59941 19.206 8.72266 20.7504 7.56563C22.2947 6.4086 22.8465 4.28768 22.0729 2.48197C21.2993 0.676264 19.4118 -0.320482 17.5488 0.0928603C15.6858 0.506203 14.3568 2.21661 14.3631 4.19255C14.3672 4.53754 14.4126 4.88066 14.4982 5.21405L7.93538 9.10246C6.88411 7.41563 4.82685 6.73942 3.03072 7.49034C1.2346 8.24126 0.204561 10.2082 0.575041 12.1796C0.94552 14.1511 2.61236 15.5728 4.54891 15.5692Z" fill="white"/>
</svg>
