<svg width="37" height="31" viewBox="0 0 37 31" fill="none" xmlns="http://www.w3.org/2000/svg">
<path d="M2.4076 15.6079C2.25417 10.4147 4.98118 6.19344 9.85141 4.60941C9.85141 4.60941 10.98 4.19824 11.1827 4.97006C11.3854 5.74187 10.6881 5.99485 10.6881 5.99485C6.52661 7.3483 3.92306 11.1031 4.05475 15.5605C4.06531 15.9165 3.98414 16.2717 3.81994 16.5872C3.80648 16.6134 1.71561 20.2183 1.7007 20.2438C1.56549 20.4764 1.73362 20.6402 1.9001 20.6635L2.73661 20.7809C3.3932 20.8731 3.90753 21.3912 3.98725 22.0411C4.45872 25.8823 4.74819 27.0848 5.02792 27.5821C5.12503 27.7551 5.3118 27.8597 5.51223 27.8574C6.32804 27.848 8.23795 27.404 9.9261 26.3451C10.3069 26.1063 10.8115 26.214 11.0581 26.5865C11.1107 26.6663 11.5327 27.3368 11.8778 28.8747H21.0232C20.4861 27.2094 19.9885 25.0944 20.0239 23.0441C20.0239 23.0441 20.1546 22.3831 20.8767 22.3831C21.5678 22.3831 21.6715 23.0718 21.6715 23.0718C21.6322 25.3539 22.3447 27.7772 22.9493 29.4084C23.1458 29.9386 22.747 30.5 22.1755 30.5H11.2012C10.8009 30.5 10.4587 30.2165 10.3895 29.8279C10.2609 29.1047 10.1104 28.5665 9.98035 28.1883C9.08752 28.6484 8.09198 29.0238 7.14199 29.2521C5.68347 29.6028 4.67882 29.5446 4.15558 29.0789C3.32424 28.3388 2.98425 27.3611 2.36784 22.3709L1.66798 22.2727C0.304294 22.0815 -0.43594 20.6039 0.274685 19.4295L2.35997 15.8332C2.39352 15.7637 2.40987 15.6863 2.4076 15.6079Z" fill="#2086E9"/>
<path d="M19.9938 2.1528L19.1283 3.99651C18.7153 4.03166 18.3057 4.09765 17.903 4.1939L16.4867 2.70983C16.0423 2.25366 15.3302 2.16513 14.7815 2.49786L13.4221 3.31898C12.8633 3.64988 12.6235 4.32097 12.8507 4.91811L13.5764 6.80854C13.3087 7.11756 13.0656 7.44612 12.8492 7.79133L10.7756 7.72641C10.1275 7.70685 9.55446 8.13592 9.40596 8.75194L9.0368 10.2779C8.88761 10.8927 9.20259 11.5242 9.79016 11.7884L11.6787 12.6299C11.7141 13.0327 11.7811 13.4322 11.8791 13.8249L10.3556 15.2089C9.88724 15.6432 9.79535 16.3381 10.1356 16.8728L10.9757 18.1978C11.3153 18.7406 12.0014 18.9727 12.6136 18.7519L14.5525 18.0408C14.8689 18.3016 15.2053 18.5382 15.5588 18.7487L15.4889 20.7717C15.4675 21.4042 15.9064 21.9629 16.5378 22.1069L18.1015 22.4646C18.7314 22.6091 19.3793 22.3009 19.6511 21.7272L20.5166 19.8835C20.9296 19.8484 21.3392 19.7824 21.7419 19.6861L23.1582 21.1702C23.6026 21.6264 24.3147 21.7149 24.8634 21.3822L26.2221 20.5609C26.781 20.23 27.0208 19.5589 26.7936 18.9618L26.0678 17.0714C26.3356 16.7623 26.5787 16.4338 26.795 16.0886L28.8686 16.1535C29.2806 16.1659 29.6763 15.9947 29.944 15.6884L30.7845 16.5699C30.9485 16.7324 31.1562 16.8464 31.3839 16.8988C31.7015 16.9715 32.0359 16.9176 32.313 16.749L33.4023 16.0906C33.8981 15.7892 34.1108 15.1908 33.9124 14.6555L33.3596 13.212C33.5424 12.9972 33.7102 12.7707 33.862 12.534L35.4319 12.5854C36.019 12.6062 36.5392 12.2176 36.672 11.6592L36.9661 10.4436C37.1026 9.8882 36.8176 9.3168 36.2857 9.07944L34.8505 8.44201C34.8239 8.16445 34.7779 7.88901 34.7129 7.6176L35.8864 6.55333C36.2991 6.15962 36.3764 5.53953 36.0724 5.06186L35.3992 4.00029C35.0912 3.51685 34.478 3.31026 33.929 3.50496L32.4485 4.04656C32.2285 3.86857 31.9966 3.70518 31.7543 3.55748L31.8088 2.0257C31.831 1.45326 31.4339 0.946543 30.862 0.817601L29.6164 0.532654C29.0473 0.400397 28.4611 0.679329 28.2169 1.19857L27.5612 2.59965C27.2765 2.6267 26.9939 2.67264 26.7155 2.73713L25.6264 1.59407C25.2232 1.19261 24.5881 1.1182 24.0978 1.41499L23.3607 1.86053C23.2793 1.82349 23.1943 1.79423 23.1071 1.77316L21.5434 1.41546C20.9135 1.2709 20.2656 1.57919 19.9938 2.1528ZM29.51 7.00468L29.2736 6.63193C30.3857 7.04467 31.0901 8.11784 31.0095 9.27672C30.9289 10.4356 30.0822 11.4085 28.9229 11.6744L27.9641 11.2503C27.9287 10.8476 27.8617 10.4481 27.7637 10.0554L29.2872 8.67129C29.7567 8.23752 29.8496 7.54204 29.5095 7.00662L29.51 7.00468ZM24.7239 2.59613L25.9983 3.9358C26.177 4.12339 26.4507 4.19369 26.7013 4.11643C27.1333 3.98535 27.5815 3.91225 28.0335 3.89914C28.292 3.89069 28.5235 3.74006 28.631 3.51038L29.4082 1.84982L30.4445 2.08687L30.3779 3.9141C30.3688 4.16628 30.507 4.40147 30.7345 4.52112C31.1331 4.72881 31.5008 4.98853 31.8273 5.29314C32.0173 5.46999 32.2949 5.52418 32.5404 5.43238L34.295 4.78697L34.8568 5.67295L33.4834 6.91938C33.2908 7.09408 33.2183 7.36115 33.2971 7.60556C33.4308 8.02677 33.505 8.46387 33.5177 8.9048C33.526 9.15698 33.68 9.38259 33.9153 9.48707L35.6202 10.2435L35.3755 11.2548L33.5059 11.1936C33.2474 11.1851 33.0061 11.3203 32.8831 11.5424C32.6696 11.9316 32.4028 12.2907 32.09 12.6098C31.9074 12.7944 31.8499 13.0649 31.9422 13.3047L32.601 15.0154L31.6919 15.5649L30.4482 14.2629L30.6081 13.6021C30.6998 13.2235 30.6174 12.8251 30.3825 12.5112C31.8143 11.6814 32.5864 10.0865 32.3329 8.48231C32.0793 6.87814 30.8511 5.5871 29.2303 5.22108C28.8292 5.1319 28.416 5.10463 28.006 5.14025C27.6934 5.02017 27.3464 5.01553 27.0302 5.12721L25.0925 5.83856C24.7762 5.57783 24.4398 5.34118 24.0863 5.1307L24.1561 3.10769C24.1569 3.0532 24.154 2.99873 24.1473 2.94464L24.7239 2.59613ZM20.194 4.91246L21.2306 2.70867L22.7942 3.06637L22.7106 5.4902C22.702 5.74179 22.84 5.97627 23.0669 6.09578C23.5795 6.36503 24.0538 6.69834 24.4779 7.0873C24.6667 7.26122 24.9408 7.31491 25.1842 7.22568L27.5057 6.37559L28.3554 7.70751L26.5366 9.3584C26.3463 9.53136 26.2733 9.79479 26.3486 10.0374C26.5161 10.5814 26.6103 11.1445 26.6286 11.7125C26.637 11.9641 26.7905 12.1892 27.025 12.2938L29.2831 13.2983L28.9138 14.825L26.4294 14.7473C26.1715 14.7393 25.9309 14.8742 25.808 15.0958C25.5312 15.5963 25.1888 16.0595 24.7894 16.4739C24.6108 16.6584 24.5554 16.9258 24.6464 17.1631L25.5141 19.4265L24.1475 20.2576L22.4581 18.4859C22.2811 18.3005 22.0112 18.2297 21.7624 18.3035C21.2045 18.4678 20.6271 18.5606 20.0448 18.5794C19.7869 18.588 19.5559 18.7381 19.4483 18.967L18.4143 21.1714L16.8507 20.8137L16.9343 18.3898C16.9429 18.1383 16.8049 17.9038 16.578 17.7843C16.0655 17.515 15.5911 17.1817 15.167 16.7927C14.9782 16.6188 14.7041 16.5651 14.4607 16.6544L12.1392 17.5045L11.2895 16.1725L13.1083 14.5216C13.2986 14.3487 13.3716 14.0853 13.2963 13.8427C13.1288 13.2986 13.0347 12.7355 13.0163 12.1675C13.0079 11.9159 12.8544 11.6909 12.6199 11.5862L10.3619 10.5811L10.7311 9.05507L13.2156 9.13278C13.4734 9.14076 13.714 9.00581 13.8369 8.78427C14.1137 8.28379 14.4561 7.82052 14.8555 7.40617C15.0341 7.22166 15.0896 6.95424 14.9985 6.7169L14.1308 4.4535L15.4975 3.62245L17.1868 5.39416C17.3638 5.57956 17.6337 5.65031 17.8825 5.5765C18.4404 5.41219 19.0178 5.31947 19.6001 5.30068C19.8572 5.29101 20.0869 5.14081 20.194 4.91246Z" fill="#2086E9"/>
<path d="M18.6942 16.4344C21.1391 16.8548 23.4817 15.2101 23.9265 12.761C24.3714 10.312 22.7499 7.98587 20.305 7.56556C17.86 7.14525 15.5174 8.78988 15.0726 11.239C14.6308 13.6874 16.2509 16.0115 18.6942 16.4344ZM20.0749 8.83254C21.8213 9.13277 22.9794 10.7943 22.6617 12.5436C22.344 14.2929 20.6707 15.4677 18.9243 15.1675C17.1779 14.8672 16.0197 13.2057 16.3375 11.4564C16.6571 9.70829 18.329 8.53456 20.0749 8.83254Z" fill="#2086E9"/>
</svg>
