<svg width="29" height="28" viewBox="0 0 29 28" fill="none" xmlns="http://www.w3.org/2000/svg">
<path d="M13.1666 10.5C13.1666 8.56603 11.6006 7 9.66663 7C7.73266 7 6.16663 8.56603 6.16663 10.5C6.16663 12.434 7.73266 14 9.66663 14C11.6006 14 13.1666 12.434 13.1666 10.5ZM15.1666 10.5C15.1666 13.5385 12.7052 16 9.66663 16C6.62809 16 4.16663 13.5385 4.16663 10.5C4.16663 7.46147 6.62809 5 9.66663 5C12.7052 5 15.1666 7.46147 15.1666 10.5ZM2.66663 22.6429C2.66663 23.5862 2.5865 23.5 3.12251 23.5H16.7107C17.2468 23.5 17.1666 23.5862 17.1666 22.6429C17.1666 20.3547 13.8626 19 9.91663 19C5.97065 19 2.66663 20.3547 2.66663 22.6429ZM0.666626 22.6429C0.666626 18.7626 4.96555 17 9.91663 17C14.8677 17 19.1666 18.7626 19.1666 22.6429C19.1666 24.6593 18.3855 25.5 16.7107 25.5H3.12251C1.44773 25.5 0.666626 24.6593 0.666626 22.6429Z" fill="white"/>
<path d="M21.5628 9.63172C21.6246 9.44926 21.8608 9.40229 21.9877 9.54724L24.0394 11.8912C24.0684 11.9244 24.1057 11.9492 24.1474 11.9634L27.0979 12.9625C27.2803 13.0243 27.3273 13.2605 27.1824 13.3874L24.8384 15.4391C24.8052 15.4681 24.7804 15.5053 24.7662 15.547L23.7671 18.4976C23.7053 18.68 23.4691 18.727 23.3422 18.582L21.2905 16.238C21.2615 16.2049 21.2243 16.18 21.1826 16.1659L18.232 15.1668C18.0496 15.105 18.0026 14.8688 18.1476 14.7419L20.4916 12.6902C20.5247 12.6612 20.5496 12.6239 20.5637 12.5822L21.5628 9.63172Z" stroke="white" stroke-width="2" stroke-linejoin="round"/>
</svg>
