<svg width="31" height="31" viewBox="0 0 31 31" fill="none" xmlns="http://www.w3.org/2000/svg">
<g clip-path="url(#clip0)">
<path d="M15.5 0.5C7.24004 0.5 0.5 7.24115 0.5 15.5C0.5 23.76 7.24115 30.5 15.5 30.5C23.76 30.5 30.5 23.7588 30.5 15.5C30.5 7.24004 23.7588 0.5 15.5 0.5ZM27.1628 9.23328L23.0954 11.0821C22.3286 9.76883 21.2312 8.67143 19.9179 7.90461L21.7667 3.83721C24.0494 5.06867 25.9313 6.95064 27.1628 9.23328ZM22.5312 15.5C22.5312 19.377 19.377 22.5312 15.5 22.5312C11.623 22.5312 8.46875 19.377 8.46875 15.5C8.46875 11.623 11.623 8.46875 15.5 8.46875C19.377 8.46875 22.5312 11.623 22.5312 15.5ZM15.5 2.25781C17.1421 2.25781 18.715 2.5591 20.1673 3.10795L18.3189 7.17453C17.4337 6.874 16.4855 6.71094 15.5 6.71094C14.5145 6.71094 13.5663 6.874 12.6811 7.17453L10.8327 3.10795C12.285 2.5591 13.8579 2.25781 15.5 2.25781ZM9.23334 3.83721L11.0821 7.90461C9.76889 8.67143 8.67148 9.76883 7.90467 11.0821L3.83727 9.23328C5.06867 6.95064 6.95064 5.06867 9.23334 3.83721ZM2.25781 15.5C2.25781 13.8579 2.5591 12.285 3.10795 10.8327L7.17453 12.6812C6.874 13.5663 6.71094 14.5145 6.71094 15.5C6.71094 16.4855 6.874 17.4337 7.17453 18.3188L3.10795 20.1673C2.5591 18.715 2.25781 17.1421 2.25781 15.5ZM3.83721 21.7667L7.90461 19.9179C8.67143 21.2311 9.76883 22.3286 11.0821 23.0953L9.23328 27.1627C6.95064 25.9313 5.06867 24.0494 3.83721 21.7667ZM15.5 28.7422C13.8579 28.7422 12.285 28.4409 10.8327 27.892L12.6811 23.8255C13.5663 24.126 14.5145 24.2891 15.5 24.2891C16.4855 24.2891 17.4337 24.126 18.3189 23.8255L20.1673 27.892C18.715 28.4409 17.1421 28.7422 15.5 28.7422ZM21.7667 27.1628L19.9179 23.0954C21.2311 22.3286 22.3286 21.2312 23.0953 19.9179L27.1627 21.7667C25.9313 24.0494 24.0494 25.9313 21.7667 27.1628ZM23.8255 18.3188C24.126 17.4337 24.2891 16.4855 24.2891 15.5C24.2891 14.5145 24.126 13.5663 23.8255 12.6812L27.892 10.8327C28.4409 12.285 28.7422 13.8579 28.7422 15.5C28.7422 17.1421 28.4409 18.715 27.892 20.1673L23.8255 18.3188Z" fill="white"/>
<path d="M14.5274 16.8824C14.5274 16.5643 14.6252 16.2606 14.8207 15.9714C15.0237 15.6822 15.2418 15.4508 15.4749 15.2773C15.708 15.0965 15.9223 14.8869 16.1178 14.6483C16.3209 14.4097 16.4224 14.1711 16.4224 13.9325C16.4224 13.6794 16.3322 13.4842 16.1517 13.3468C15.9712 13.2095 15.7193 13.1408 15.3959 13.1408C14.7643 13.1408 14.3169 13.4625 14.0537 14.106L12.7227 13.3685C12.9483 12.8335 13.3054 12.4214 13.7942 12.1322C14.2905 11.8357 14.8432 11.6875 15.4523 11.6875C16.1366 11.6875 16.727 11.8791 17.2233 12.2623C17.7271 12.6383 17.979 13.1588 17.979 13.824C17.979 14.1277 17.9113 14.4097 17.776 14.6699C17.6481 14.9302 17.4902 15.1544 17.3022 15.3424C17.1217 15.5231 16.9375 15.6966 16.7495 15.8629C16.569 16.022 16.4111 16.1883 16.2758 16.3618C16.1479 16.5353 16.084 16.7089 16.084 16.8824H14.5274ZM15.9825 19.3009C15.7945 19.4816 15.5689 19.572 15.3057 19.572C15.0425 19.572 14.8169 19.4816 14.6289 19.3009C14.4409 19.1201 14.3469 18.9032 14.3469 18.6502C14.3469 18.3971 14.4409 18.1802 14.6289 17.9994C14.8169 17.8187 15.0425 17.7283 15.3057 17.7283C15.5689 17.7283 15.7945 17.8187 15.9825 17.9994C16.1705 18.1802 16.2645 18.3971 16.2645 18.6502C16.2645 18.9032 16.1705 19.1201 15.9825 19.3009Z" fill="white"/>
</g>
<defs>
<clipPath id="clip0">
<rect width="30" height="30" fill="white" transform="translate(0.5 0.5)"/>
</clipPath>
</defs>
</svg>
