<svg width="312" height="312" viewBox="0 0 312 312" fill="none" xmlns="http://www.w3.org/2000/svg">
<circle cx="156" cy="156" r="150" fill="#4D8061"/>
<circle cx="156" cy="156" r="153" stroke="white" stroke-opacity="0.5" stroke-width="6"/>
<path fill-rule="evenodd" clip-rule="evenodd" d="M84.1003 24.3227C91.2923 20.3873 98.8419 17.024 106.688 14.294L155.493 156.002L84.1003 24.3227ZM63.4988 37.909L155.493 156.002L45.3874 54.683C50.9523 48.6109 57.0106 42.9984 63.4988 37.909ZM30.178 74.3048L155.493 156.002L18.4711 96.0233C21.7846 88.4361 25.7075 81.1759 30.178 74.3048ZM10.4497 119.589L155.493 156.002L6.47852 143.93C7.14125 135.607 8.48347 127.474 10.4497 119.589ZM6.53323 168.738L155.493 156.002L10.6134 193.061C8.61142 185.184 7.23283 177.058 6.53323 168.738ZM18.4003 215.814L155.493 156.002L30.0813 237.546C25.6191 230.67 21.7048 223.406 18.4003 215.814ZM45.2672 257.186L155.493 156.002L63.3583 273.981C56.8764 268.884 50.8249 263.264 45.2672 257.186ZM84.1596 287.71L155.493 156.002L106.751 297.728C98.904 295.002 91.3531 291.642 84.1596 287.71ZM180.23 304.053L155.493 156.002L204.404 298.019C196.614 300.673 188.536 302.704 180.23 304.053ZM227.114 288.104L155.493 156.002L247.868 274.585C241.356 279.637 234.417 284.164 227.114 288.104ZM266.145 257.825L155.493 156.002L281.517 238.162C276.938 245.143 271.792 251.719 266.145 257.825ZM293.364 216.353L155.493 156.002L301.489 192.655C299.433 200.842 296.704 208.762 293.364 216.353ZM305.515 168.156L155.493 156.002L305.46 143.18C305.818 147.406 306 151.682 306 156C306 160.092 305.836 164.146 305.515 168.156ZM301.326 118.7L155.493 156.002L293.439 95.8179C296.657 103.157 299.305 110.803 301.326 118.7ZM281.619 73.9936L155.493 156.002L266.271 54.3118C271.911 60.4243 277.048 67.0067 281.619 73.9936ZM248.014 37.5287L155.493 156.002L227.059 23.8659C234.437 27.8421 241.444 32.4181 248.014 37.5287ZM204.343 13.9607L155.493 156.002L180.166 7.93642C188.473 9.28194 196.552 11.3098 204.343 13.9607ZM155.491 6.00085L155.493 156.002L130.783 8.11056C138.819 6.7501 147.073 6.02883 155.491 6.00085Z" fill="#25272A"/>
<path fill-rule="evenodd" clip-rule="evenodd" d="M227.114 288.104C219.881 292.006 212.29 295.332 204.404 298.019L155.493 156.002L227.114 288.104ZM247.868 274.585L155.493 156.002L266.145 257.825C260.528 263.898 254.414 269.507 247.868 274.585ZM281.517 238.162L155.493 156.002L293.364 216.353C290.01 223.976 286.04 231.267 281.517 238.162ZM301.489 192.655L155.493 156.002L305.515 168.156C304.843 176.535 303.482 184.72 301.489 192.655ZM305.46 143.18L155.493 156.002L301.326 118.7C303.354 126.626 304.751 134.805 305.46 143.18ZM293.439 95.818L155.493 156.002L281.619 73.9937C286.133 80.8947 290.094 88.1905 293.439 95.818ZM266.271 54.3119L155.493 156.002L248.014 37.5288C254.554 42.6151 260.661 48.2309 266.271 54.3119ZM227.059 23.866L155.493 156.002L204.343 13.9607C212.231 16.6444 219.823 19.9667 227.059 23.866ZM130.783 8.1106L155.493 156.002L106.688 14.294C114.449 11.5935 122.501 9.51263 130.783 8.1106ZM84.1004 24.3227L155.493 156.002L63.4988 37.909C69.9605 32.8405 76.8486 28.2908 84.1004 24.3227ZM45.3874 54.6831L155.493 156.002L30.1781 74.3048C34.7073 67.3435 39.7985 60.7815 45.3874 54.6831ZM18.4711 96.0234L155.493 156.002L10.4497 119.589C12.4791 111.451 15.1732 103.575 18.4711 96.0234ZM6.47855 143.93L155.493 156.002L6.53326 168.738C6.18014 164.539 6 160.291 6 156C6 151.937 6.16154 147.912 6.47855 143.93ZM10.6134 193.061L155.493 156.002L18.4004 215.814C15.2224 208.514 12.6084 200.911 10.6134 193.061ZM30.0814 237.547L155.493 156.002L45.2673 257.186C39.6857 251.081 34.6023 244.513 30.0814 237.547ZM63.3584 273.981L155.493 156.002L84.1597 287.71C76.8336 283.705 69.8783 279.107 63.3584 273.981ZM106.751 297.728L155.493 156.002L130.848 303.901C122.566 302.502 114.513 300.425 106.751 297.728ZM155.495 305.999L155.493 156.002L180.23 304.053C172.342 305.334 164.249 306 156 306C155.832 306 155.663 306 155.495 305.999Z" fill="#E84D40"/>
<path fill-rule="evenodd" clip-rule="evenodd" d="M155.491 6.00085L155.493 156.003L130.848 303.901C138.866 305.254 147.099 305.972 155.495 305.999L155.493 156.003L180.166 7.93641C172.299 6.66227 164.227 6 156 6C155.83 6 155.66 6.00028 155.491 6.00085Z" fill="#46A098"/>
<circle cx="156" cy="156" r="127.559" fill="#3F7568"/>
<circle cx="156" cy="156" r="124.559" stroke="white" stroke-opacity="0.5" stroke-width="6"/>
<path d="M165.312 288.741C165.468 288.569 165.675 288.479 165.933 288.469C166.191 288.46 166.406 288.536 166.578 288.696C166.745 288.856 166.833 289.07 166.843 289.338L167.107 296.828L167.142 296.827L168.714 295.649C168.871 295.528 169.037 295.465 169.212 295.459C169.401 295.452 169.558 295.506 169.682 295.622C169.806 295.742 169.872 295.902 169.879 296.1C169.889 296.372 169.761 296.607 169.495 296.806L167.505 298.31C167.299 298.465 167.118 298.57 166.963 298.626C166.803 298.683 166.624 298.715 166.426 298.722C166.112 298.733 165.863 298.651 165.676 298.478C165.49 298.309 165.392 298.07 165.381 297.761L165.086 289.4C165.077 289.132 165.152 288.912 165.312 288.741Z" fill="white"/>
<path d="M165.927 22.9674C164.705 22.8532 163.791 22.302 163.183 21.3138C162.576 20.3211 162.348 19.0231 162.498 17.4199C162.647 15.8259 163.111 14.5997 163.891 13.7412C164.676 12.8831 165.677 12.511 166.894 12.6248C168.107 12.7381 169.017 13.2889 169.624 14.2771C170.232 15.2606 170.461 16.5494 170.312 18.1434C170.163 19.742 169.698 20.9751 168.917 21.8428C168.141 22.7063 167.144 23.0812 165.927 22.9674ZM166.063 21.5135C166.734 21.5762 167.283 21.2986 167.712 20.6806C168.14 20.0627 168.41 19.1634 168.52 17.9828C168.629 16.816 168.528 15.8891 168.217 15.202C167.91 14.5154 167.424 14.1409 166.758 14.0787C166.092 14.0164 165.54 14.2961 165.102 14.9178C164.669 15.5353 164.398 16.4229 164.29 17.5805C164.179 18.7611 164.277 19.697 164.583 20.3882C164.895 21.0753 165.388 21.4504 166.063 21.5135Z" fill="white"/>
<path d="M212.363 276.374C213.144 276.054 213.861 275.928 214.511 275.995C215.162 276.063 215.713 276.288 216.164 276.672C216.367 276.838 216.514 277.033 216.605 277.255C216.694 277.472 216.701 277.671 216.625 277.852C216.545 278.034 216.39 278.173 216.159 278.267C215.993 278.335 215.838 278.354 215.696 278.322C215.549 278.292 215.398 278.21 215.243 278.074C214.928 277.779 214.579 277.598 214.197 277.53C213.817 277.466 213.384 277.534 212.897 277.733C212.376 277.946 212.009 278.254 211.794 278.656C211.575 279.059 211.553 279.472 211.726 279.895C211.922 280.388 212.244 280.697 212.689 280.824C213.133 280.957 213.653 280.901 214.251 280.656L214.776 280.441C214.977 280.359 215.159 280.349 215.324 280.411C215.487 280.479 215.606 280.605 215.681 280.788C215.756 280.972 215.759 281.143 215.689 281.301C215.617 281.465 215.48 281.589 215.279 281.671L214.793 281.87C214.284 282.078 213.928 282.376 213.723 282.764C213.518 283.152 213.5 283.553 213.67 283.967C213.837 284.377 214.105 284.647 214.472 284.776C214.836 284.911 215.268 284.876 215.767 284.671C216.194 284.497 216.506 284.265 216.701 283.975C216.899 283.69 217.001 283.331 217.009 282.9C217.016 282.662 217.059 282.48 217.137 282.354C217.21 282.229 217.341 282.128 217.529 282.051C217.755 281.958 217.956 281.949 218.13 282.022C218.3 282.097 218.429 282.241 218.517 282.454C218.611 282.685 218.648 282.927 218.626 283.18C218.596 283.75 218.384 284.286 217.99 284.786C217.597 285.286 217.037 285.685 216.311 285.982C215.363 286.37 214.512 286.457 213.756 286.243C212.996 286.03 212.468 285.563 212.173 284.842C211.942 284.278 211.928 283.733 212.132 283.206C212.335 282.679 212.7 282.238 213.227 281.883L213.214 281.851C212.496 282.07 211.851 282.065 211.279 281.835C210.708 281.61 210.292 281.18 210.032 280.544C209.698 279.728 209.749 278.932 210.184 278.156C210.62 277.384 211.347 276.79 212.363 276.374ZM204.359 279.651C205.084 279.353 205.794 279.267 206.489 279.392C207.183 279.516 207.827 279.848 208.422 280.388C209.057 280.965 209.589 281.777 210.017 282.823C210.648 284.364 210.808 285.705 210.497 286.844C210.187 287.988 209.445 288.8 208.271 289.281C207.584 289.562 206.924 289.673 206.291 289.613C205.66 289.557 205.134 289.351 204.714 288.995C204.542 288.856 204.422 288.701 204.352 288.53C204.273 288.338 204.272 288.151 204.347 287.971C204.425 287.794 204.57 287.663 204.784 287.575C204.942 287.511 205.095 287.49 205.244 287.514C205.391 287.543 205.566 287.617 205.768 287.733C206.102 287.94 206.427 288.059 206.744 288.089C207.058 288.125 207.385 288.073 207.727 287.933C208.414 287.652 208.821 287.136 208.948 286.386C209.075 285.637 208.926 284.718 208.501 283.631L208.461 283.535L208.429 283.548C208.423 284.069 208.252 284.558 207.915 285.014C207.576 285.477 207.104 285.833 206.497 286.081C205.609 286.445 204.766 286.456 203.969 286.114C203.168 285.779 202.588 285.171 202.228 284.292C201.843 283.352 201.854 282.446 202.259 281.572C202.659 280.7 203.359 280.06 204.359 279.651ZM206.468 280.986C205.962 280.774 205.451 280.774 204.935 280.985C204.418 281.197 204.052 281.551 203.837 282.048C203.623 282.549 203.62 283.054 203.828 283.562C204.041 284.093 204.39 284.459 204.876 284.659C205.361 284.859 205.871 284.849 206.405 284.631C206.939 284.412 207.313 284.06 207.527 283.573C207.744 283.091 207.747 282.593 207.537 282.081C207.326 281.564 206.969 281.199 206.468 280.986Z" fill="white"/>
<path d="M286.608 128.524C286.466 127.691 286.499 126.965 286.707 126.344C286.915 125.724 287.256 125.236 287.728 124.879C287.935 124.717 288.156 124.617 288.393 124.576C288.625 124.537 288.821 124.574 288.98 124.687C289.141 124.805 289.242 124.986 289.284 125.232C289.314 125.409 289.298 125.564 289.236 125.696C289.176 125.833 289.062 125.962 288.895 126.084C288.539 126.328 288.286 126.628 288.136 126.986C287.991 127.343 287.963 127.781 288.051 128.299C288.145 128.854 288.365 129.28 288.711 129.577C289.057 129.878 289.455 129.991 289.905 129.914C290.429 129.829 290.801 129.584 291.022 129.176C291.248 128.773 291.307 128.253 291.199 127.616L291.104 127.056C291.067 126.843 291.097 126.662 291.194 126.514C291.296 126.371 291.445 126.282 291.64 126.249C291.836 126.216 292.003 126.25 292.142 126.353C292.287 126.459 292.377 126.62 292.414 126.833L292.502 127.352C292.594 127.893 292.807 128.306 293.141 128.591C293.475 128.876 293.862 128.981 294.304 128.905C294.74 128.831 295.062 128.629 295.267 128.299C295.479 127.973 295.539 127.544 295.448 127.012C295.371 126.557 295.212 126.203 294.973 125.948C294.737 125.694 294.41 125.515 293.99 125.414C293.76 125.355 293.592 125.273 293.485 125.17C293.379 125.071 293.31 124.921 293.275 124.721C293.234 124.48 293.269 124.282 293.378 124.128C293.488 123.978 293.657 123.884 293.885 123.845C294.13 123.803 294.374 123.82 294.616 123.896C295.167 124.05 295.643 124.374 296.045 124.867C296.447 125.36 296.714 125.994 296.846 126.767C297.018 127.777 296.917 128.627 296.543 129.318C296.17 130.013 295.599 130.426 294.83 130.557C294.23 130.659 293.695 130.554 293.225 130.24C292.755 129.927 292.404 129.474 292.173 128.882L292.138 128.888C292.196 129.636 292.05 130.265 291.701 130.774C291.357 131.281 290.846 131.593 290.169 131.708C289.3 131.856 288.534 131.633 287.871 131.039C287.213 130.445 286.792 129.606 286.608 128.524ZM287.748 134.028C287.703 133.76 287.733 133.542 287.841 133.374C287.953 133.21 288.123 133.108 288.35 133.069C288.519 133.041 288.672 133.05 288.811 133.096C288.95 133.143 289.125 133.247 289.335 133.407L292.828 135.909C293.553 136.431 294.1 136.768 294.468 136.921C294.835 137.074 295.208 137.118 295.585 137.054C296.026 136.979 296.362 136.765 296.592 136.412C296.827 136.059 296.904 135.645 296.823 135.172C296.673 134.285 296.122 133.743 295.17 133.544C294.968 133.485 294.814 133.404 294.708 133.3C294.601 133.197 294.531 133.047 294.498 132.851C294.458 132.615 294.492 132.417 294.601 132.258C294.709 132.099 294.875 132.001 295.098 131.963C295.221 131.942 295.347 131.939 295.476 131.955C295.76 131.977 296.045 132.055 296.33 132.189C296.615 132.327 296.886 132.517 297.143 132.759C297.404 133 297.632 133.31 297.828 133.689C298.023 134.067 298.16 134.486 298.238 134.946C298.405 135.928 298.278 136.773 297.855 137.482C297.438 138.189 296.815 138.614 295.987 138.755C295.428 138.85 294.878 138.784 294.339 138.558C293.805 138.335 293.055 137.873 292.088 137.172L289.48 135.292L289.446 135.298L290.115 139.228C290.154 139.46 290.119 139.653 290.01 139.807C289.901 139.966 289.737 140.064 289.519 140.101C289.301 140.138 289.114 140.1 288.959 139.986C288.809 139.876 288.715 139.705 288.675 139.473L287.748 134.028Z" fill="white"/>
<path d="M209.267 33.6364C208.572 33.3037 208.037 32.8733 207.66 32.3453C207.29 31.8151 207.102 31.2952 207.095 30.7856C207.093 30.5648 207.128 30.3795 207.2 30.2297C207.292 30.0383 207.427 29.9111 207.605 29.8482C207.784 29.7853 207.979 29.8047 208.191 29.9063C208.349 29.982 208.467 30.0842 208.543 30.2129C208.626 30.3394 208.692 30.5168 208.741 30.745C208.82 31.146 208.949 31.4709 209.126 31.7196C209.308 31.9703 209.58 32.1824 209.942 32.3557C210.624 32.6824 211.283 32.6371 211.918 32.2197C212.556 31.8043 213.13 31.0763 213.638 30.0358L213.686 29.9359L213.661 29.924C213.275 30.2814 212.8 30.4887 212.236 30.5458C211.671 30.6029 211.1 30.4931 210.521 30.2161C209.668 29.8077 209.089 29.1903 208.784 28.3639C208.479 27.5375 208.532 26.6936 208.945 25.8322C209.383 24.9167 210.06 24.3149 210.975 24.0268C211.897 23.7366 212.845 23.8245 213.818 24.2907C214.526 24.6294 215.066 25.0979 215.44 25.6961C215.817 26.2963 216.004 26.9968 215.999 27.7976C215.991 28.6686 215.745 29.6097 215.261 30.6209C214.542 32.1231 213.653 33.1402 212.596 33.6722C211.538 34.2042 210.428 34.1922 209.267 33.6364ZM211.493 29.147C212.018 29.3981 212.531 29.4419 213.034 29.2785C213.537 29.1151 213.908 28.7837 214.147 28.2844C214.39 27.7767 214.419 27.2665 214.235 26.7537C214.055 26.243 213.711 25.8661 213.204 25.623C212.7 25.3819 212.191 25.3504 211.676 25.5285C211.163 25.7023 210.789 26.0348 210.554 26.5258C210.309 27.0377 210.275 27.5408 210.453 28.035C210.635 28.5313 210.982 28.902 211.493 29.147Z" fill="white"/>
<path d="M286.743 177.49C286.884 176.737 287.174 176.089 287.613 175.547C288.057 175.006 288.569 174.665 289.149 174.525C289.4 174.464 289.632 174.453 289.845 174.493C290.072 174.535 290.238 174.637 290.344 174.797C290.455 174.959 290.488 175.155 290.445 175.387C290.41 175.572 290.344 175.717 290.244 175.821C290.144 175.929 289.995 176.011 289.797 176.068C289.362 176.16 289.003 176.349 288.72 176.634C288.441 176.92 288.258 177.296 288.171 177.764C288.062 178.344 288.159 178.855 288.462 179.296C288.764 179.738 289.205 180.013 289.786 180.121C290.348 180.226 290.846 180.127 291.278 179.823C291.709 179.523 291.979 179.083 292.088 178.502C292.2 177.904 292.089 177.355 291.755 176.856C291.589 176.614 291.486 176.423 291.446 176.285C291.405 176.15 291.404 175.983 291.441 175.784C291.492 175.512 291.615 175.319 291.81 175.205C292.005 175.091 292.226 175.062 292.474 175.118C292.519 175.126 292.555 175.135 292.581 175.145L296.23 176.151C296.605 176.254 296.861 176.419 296.997 176.646C297.132 176.878 297.163 177.188 297.09 177.579L296.299 181.81C296.258 182.032 296.159 182.199 296.002 182.31C295.845 182.422 295.66 182.458 295.447 182.418C295.229 182.377 295.067 182.277 294.961 182.116C294.855 181.955 294.823 181.764 294.864 181.542L295.605 177.576L292.749 176.774L292.742 176.808C293.012 177.075 293.199 177.417 293.304 177.836C293.408 178.259 293.414 178.715 293.322 179.205C293.147 180.144 292.704 180.859 291.992 181.35C291.281 181.841 290.456 181.999 289.517 181.824C288.492 181.632 287.722 181.134 287.206 180.329C286.694 179.525 286.54 178.578 286.743 177.49Z" fill="white"/>
<path d="M234.598 264.171C234.826 264.023 235.039 263.965 235.235 263.997C235.431 264.035 235.591 264.151 235.716 264.345C235.809 264.488 235.862 264.633 235.874 264.779C235.886 264.925 235.86 265.126 235.795 265.383L234.879 269.58C234.686 270.453 234.592 271.089 234.597 271.487C234.602 271.885 234.709 272.244 234.917 272.566C235.16 272.941 235.49 273.165 235.905 273.237C236.322 273.313 236.732 273.22 237.135 272.959C237.89 272.47 238.17 271.749 237.977 270.797C237.951 270.588 237.965 270.414 238.018 270.276C238.071 270.137 238.181 270.013 238.347 269.905C238.549 269.775 238.744 269.728 238.933 269.765C239.121 269.802 239.277 269.916 239.4 270.105C239.468 270.21 239.52 270.324 239.557 270.449C239.65 270.719 239.691 271.011 239.68 271.326C239.666 271.643 239.598 271.967 239.478 272.298C239.359 272.633 239.165 272.966 238.895 273.295C238.624 273.624 238.293 273.915 237.902 274.169C237.066 274.711 236.239 274.928 235.421 274.82C234.606 274.716 233.97 274.312 233.514 273.607C233.205 273.131 233.048 272.6 233.043 272.016C233.036 271.437 233.164 270.565 233.426 269.4L234.121 266.261L234.103 266.232L230.758 268.4C230.56 268.528 230.369 268.572 230.184 268.533C229.995 268.496 229.84 268.384 229.72 268.199C229.599 268.013 229.561 267.826 229.604 267.639C229.646 267.457 229.766 267.303 229.963 267.175L234.598 264.171ZM223.596 271.409C223.645 271.196 223.776 271.02 223.989 270.882C224.202 270.744 224.417 270.698 224.634 270.745C224.851 270.791 225.033 270.928 225.181 271.157L225.821 272.144L229.125 270.002C229.393 269.829 229.66 269.766 229.926 269.813C230.189 269.862 230.403 270.013 230.566 270.265C230.751 270.551 230.862 270.96 230.899 271.492C230.974 272.625 230.982 274.495 230.922 277.101C230.915 277.683 230.852 278.12 230.733 278.412C230.612 278.709 230.397 278.959 230.088 279.159C229.7 279.41 229.336 279.509 228.993 279.456C228.651 279.403 228.367 279.202 228.141 278.854L225.19 274.301L224.604 274.681C224.41 274.807 224.22 274.848 224.032 274.804C223.843 274.767 223.69 274.658 223.572 274.476C223.451 274.29 223.413 274.103 223.456 273.916C223.496 273.731 223.614 273.574 223.812 273.446L224.392 273.07L223.753 272.083C223.602 271.85 223.55 271.626 223.596 271.409ZM226.573 273.355L229.449 277.792L229.472 277.777C229.52 276.316 229.546 275.112 229.548 274.165C229.55 273.219 229.521 272.343 229.463 271.54L229.436 271.5L226.573 273.355Z" fill="white"/>
<path d="M279.564 106.102C279.469 105.847 279.459 105.627 279.533 105.442C279.613 105.26 279.762 105.129 279.978 105.048C280.138 104.989 280.29 104.969 280.436 104.989C280.581 105.009 280.771 105.079 281.008 105.198L284.904 107.008C285.714 107.387 286.314 107.617 286.703 107.699C287.093 107.781 287.467 107.755 287.826 107.622C288.246 107.467 288.536 107.194 288.697 106.805C288.862 106.414 288.861 105.994 288.694 105.544C288.381 104.7 287.739 104.269 286.768 104.251C286.558 104.23 286.392 104.178 286.268 104.096C286.144 104.014 286.047 103.88 285.978 103.694C285.895 103.469 285.892 103.269 285.969 103.093C286.047 102.916 286.191 102.789 286.403 102.71C286.52 102.667 286.643 102.641 286.773 102.632C287.056 102.601 287.351 102.625 287.655 102.703C287.962 102.787 288.263 102.923 288.56 103.113C288.861 103.302 289.143 103.564 289.405 103.9C289.668 104.236 289.88 104.622 290.042 105.059C290.388 105.993 290.42 106.848 290.136 107.622C289.857 108.395 289.323 108.927 288.536 109.219C288.004 109.416 287.452 109.454 286.88 109.331C286.314 109.211 285.491 108.897 284.412 108.387L281.5 107.023L281.467 107.035L282.853 110.773C282.935 110.993 282.936 111.19 282.858 111.362C282.78 111.538 282.638 111.665 282.43 111.742C282.222 111.819 282.032 111.815 281.858 111.732C281.691 111.652 281.566 111.501 281.484 111.28L279.564 106.102ZM283.179 116.43C282.753 115.279 282.853 114.216 283.48 113.24C284.112 112.263 285.183 111.494 286.692 110.935C288.193 110.378 289.5 110.265 290.611 110.596C291.725 110.931 292.494 111.672 292.919 112.818C293.343 113.96 293.241 115.019 292.613 115.995C291.99 116.969 290.928 117.734 289.427 118.29C287.922 118.849 286.609 118.964 285.489 118.636C284.374 118.312 283.604 117.576 283.179 116.43ZM284.549 115.922C284.783 116.554 285.271 116.928 286.014 117.047C286.756 117.165 287.683 117.018 288.795 116.606C289.894 116.198 290.686 115.706 291.17 115.127C291.656 114.554 291.783 113.953 291.55 113.326C291.317 112.699 290.826 112.322 290.076 112.197C289.332 112.074 288.415 112.215 287.324 112.619C286.213 113.032 285.412 113.525 284.921 114.101C284.437 114.679 284.313 115.286 284.549 115.922Z" fill="white"/>
<path d="M181.798 24.6593C181.534 24.5893 181.349 24.4707 181.241 24.3034C181.138 24.1329 181.116 23.9362 181.176 23.7132C181.219 23.5483 181.291 23.4123 181.392 23.3052C181.492 23.1982 181.658 23.0826 181.892 22.9586L185.619 20.8206C186.395 20.3779 186.93 20.0212 187.221 19.7502C187.513 19.4793 187.708 19.1588 187.807 18.7888C187.922 18.3563 187.867 17.9621 187.641 17.6062C187.417 17.2458 187.074 17.004 186.61 16.8806C185.74 16.6493 185.018 16.9249 184.442 17.7075C184.304 17.8665 184.166 17.973 184.028 18.0269C183.889 18.0808 183.724 18.0822 183.532 18.0312C183.3 17.9695 183.135 17.8562 183.035 17.6913C182.936 17.5264 182.916 17.3348 182.974 17.1163C183.006 16.9959 183.056 16.8803 183.123 16.7694C183.261 16.5197 183.45 16.2931 183.691 16.0897C183.936 15.8874 184.221 15.72 184.548 15.5872C184.875 15.45 185.252 15.3712 185.678 15.3507C186.103 15.3303 186.541 15.38 186.991 15.4998C187.955 15.756 188.67 16.2234 189.139 16.9019C189.609 17.5759 189.736 18.3187 189.52 19.1302C189.374 19.6786 189.086 20.151 188.656 20.5474C188.232 20.9405 187.5 21.4309 186.46 22.0184L183.667 23.6097L183.658 23.6432L187.51 24.668C187.737 24.7285 187.898 24.8406 187.993 25.0043C188.093 25.1692 188.114 25.3587 188.057 25.5727C188 25.7867 187.887 25.9405 187.719 26.0343C187.557 26.1247 187.362 26.1397 187.134 26.0792L181.798 24.6593ZM195.222 27.6005C194.383 27.936 193.41 27.9566 192.305 27.6624C191.199 27.3682 190.366 26.8672 189.804 26.1593C189.243 25.4514 189.072 24.6851 189.292 23.8602C189.457 23.2405 189.799 22.761 190.319 22.4219C190.839 22.0828 191.442 21.933 192.129 21.9724L192.139 21.9323C191.621 21.6369 191.246 21.253 191.013 20.7806C190.787 20.3049 190.742 19.8085 190.88 19.2913C191.078 18.5467 191.56 18.0162 192.327 17.6999C193.098 17.3847 193.981 17.3594 194.975 17.6239C195.97 17.8884 196.721 18.3485 197.229 19.0041C197.738 19.6597 197.892 20.362 197.693 21.1111C197.558 21.6193 197.274 22.0213 196.842 22.317C196.41 22.6126 195.895 22.7644 195.296 22.7721L195.285 22.8123C195.901 23.1192 196.349 23.5512 196.63 24.1083C196.918 24.6621 196.979 25.2466 196.816 25.8619C196.596 26.6868 196.065 27.2663 195.222 27.6005ZM193.863 21.8038C194.363 21.9367 194.806 21.9114 195.194 21.7282C195.586 21.546 195.838 21.2454 195.95 20.8263C196.063 20.3983 195.995 20.0078 195.746 19.6549C195.5 19.3032 195.128 19.0609 194.629 18.928C194.129 18.7952 193.683 18.822 193.289 19.0086C192.902 19.1919 192.651 19.4953 192.539 19.9189C192.427 20.338 192.494 20.7234 192.74 21.0752C192.985 21.4269 193.36 21.6698 193.863 21.8038ZM191.358 25.5129C191.648 25.9145 192.08 26.1919 192.655 26.3449C193.23 26.4979 193.743 26.472 194.194 26.2673C194.645 26.0626 194.932 25.7261 195.057 25.258C195.183 24.7854 195.1 24.3505 194.81 23.9533C194.525 23.5529 194.093 23.2755 193.513 23.1213C192.938 22.9683 192.425 22.9942 191.974 23.1989C191.523 23.4036 191.236 23.7401 191.111 24.2082C190.987 24.6764 191.069 25.1113 191.358 25.5129Z" fill="white"/>
<path d="M190.67 285.082C190.791 284.885 190.977 284.757 191.229 284.701C191.481 284.644 191.707 284.678 191.905 284.804C192.099 284.93 192.226 285.124 192.285 285.385L193.933 292.696L193.967 292.689L195.293 291.241C195.425 291.092 195.577 290.999 195.748 290.961C195.933 290.919 196.097 290.944 196.24 291.034C196.384 291.129 196.478 291.274 196.522 291.467C196.582 291.733 196.5 291.988 196.276 292.232L194.599 294.079C194.425 294.269 194.267 294.407 194.125 294.491C193.978 294.576 193.808 294.64 193.615 294.684C193.309 294.753 193.048 294.719 192.833 294.583C192.619 294.452 192.478 294.235 192.41 293.934L190.57 285.772C190.511 285.511 190.544 285.281 190.67 285.082ZM184.918 286.06C185.742 285.874 186.469 285.868 187.1 286.043C187.73 286.218 188.236 286.532 188.617 286.985C188.79 287.183 188.902 287.399 188.955 287.633C189.007 287.862 188.98 288.06 188.876 288.225C188.767 288.392 188.59 288.502 188.347 288.557C188.172 288.597 188.016 288.589 187.881 288.534C187.741 288.481 187.606 288.374 187.476 288.214C187.214 287.871 186.9 287.635 186.535 287.504C186.171 287.378 185.732 287.373 185.219 287.489C184.67 287.613 184.257 287.855 183.978 288.215C183.696 288.577 183.605 288.981 183.705 289.426C183.817 289.945 184.083 290.304 184.501 290.502C184.916 290.707 185.439 290.738 186.069 290.596L186.622 290.471C186.834 290.423 187.016 290.444 187.168 290.533C187.317 290.627 187.413 290.771 187.457 290.964C187.501 291.158 187.475 291.327 187.38 291.471C187.281 291.621 187.126 291.72 186.915 291.767L186.401 291.883C185.866 292.004 185.465 292.239 185.198 292.587C184.931 292.936 184.847 293.328 184.946 293.765C185.043 294.197 185.262 294.507 185.602 294.695C185.939 294.889 186.371 294.926 186.898 294.808C187.348 294.706 187.693 294.529 187.934 294.276C188.176 294.027 188.337 293.691 188.416 293.266C188.463 293.033 188.535 292.861 188.633 292.749C188.726 292.638 188.872 292.561 189.07 292.516C189.308 292.462 189.507 292.486 189.667 292.587C189.823 292.689 189.926 292.853 189.977 293.078C190.031 293.321 190.027 293.565 189.965 293.811C189.84 294.369 189.542 294.862 189.071 295.29C188.6 295.717 187.982 296.017 187.216 296.19C186.217 296.415 185.363 296.36 184.653 296.023C183.939 295.687 183.496 295.139 183.325 294.379C183.191 293.785 183.268 293.245 183.556 292.759C183.843 292.273 184.277 291.899 184.856 291.636L184.848 291.602C184.104 291.699 183.469 291.587 182.942 291.265C182.417 290.949 182.078 290.455 181.927 289.785C181.733 288.925 181.915 288.148 182.473 287.455C183.032 286.766 183.847 286.301 184.918 286.06Z" fill="white"/>
<path d="M288.576 152.894C288.41 152.733 288.326 152.524 288.326 152.265C288.325 152.007 288.408 151.794 288.574 151.628C288.739 151.466 288.956 151.385 289.224 151.385L296.719 151.371L296.719 151.337L295.595 149.726C295.479 149.565 295.421 149.397 295.421 149.221C295.42 149.032 295.48 148.878 295.6 148.757C295.724 148.637 295.886 148.577 296.084 148.577C296.356 148.576 296.587 148.712 296.777 148.984L298.213 151.023C298.361 151.235 298.46 151.419 298.511 151.576C298.563 151.737 298.588 151.917 298.589 152.115C298.589 152.429 298.5 152.676 298.32 152.856C298.145 153.037 297.903 153.127 297.594 153.128L289.227 153.142C288.959 153.143 288.742 153.06 288.576 152.894ZM288.334 156.845C288.333 156.601 288.4 156.402 288.533 156.25C288.672 156.102 288.847 156.028 289.059 156.027C289.234 156.027 289.424 156.077 289.627 156.178L296.969 160.048L297.004 160.048L296.996 155.543C296.996 155.321 297.062 155.139 297.196 154.995C297.329 154.852 297.507 154.78 297.728 154.78C297.945 154.78 298.121 154.848 298.255 154.987C298.389 155.129 298.456 155.314 298.456 155.54L298.466 160.786C298.466 161.109 298.377 161.367 298.197 161.561C298.017 161.76 297.773 161.86 297.464 161.86C297.196 161.861 296.839 161.746 296.391 161.516L288.854 157.647C288.665 157.55 288.531 157.44 288.452 157.316C288.374 157.196 288.334 157.039 288.334 156.845Z" fill="white"/>
<path d="M242.474 54.974C241.857 54.3979 241.443 53.8001 241.232 53.1806C241.021 52.5611 240.996 51.9663 241.156 51.396C241.222 51.1424 241.337 50.9279 241.501 50.7525C241.661 50.5805 241.84 50.4911 242.035 50.4844C242.234 50.4808 242.425 50.564 242.607 50.734C242.738 50.8568 242.82 50.9894 242.851 51.132C242.885 51.2777 242.873 51.4495 242.815 51.6474C242.679 52.0568 242.659 52.4492 242.757 52.8245C242.858 53.1964 243.101 53.5618 243.485 53.9207C243.897 54.3047 244.33 54.5102 244.785 54.5369C245.243 54.5668 245.627 54.4148 245.939 54.0809C246.305 53.6962 246.452 53.2749 246.38 52.8171C246.316 52.3591 246.047 51.9097 245.575 51.469L245.16 51.0818C245.002 50.9338 244.916 50.7719 244.903 50.5961C244.897 50.42 244.962 50.2595 245.097 50.1144C245.233 49.9694 245.387 49.8955 245.56 49.8928C245.739 49.8899 245.908 49.9624 246.067 50.1104L246.451 50.4693C246.853 50.8439 247.272 51.0432 247.711 51.0673C248.149 51.0914 248.521 50.9398 248.826 50.6127C249.128 50.2889 249.261 49.9334 249.225 49.5462C249.195 49.1588 248.983 48.7809 248.589 48.4126C248.251 48.0978 247.91 47.912 247.566 47.8553C247.224 47.7953 246.856 47.8521 246.46 48.0257C246.241 48.1181 246.058 48.1554 245.911 48.1376C245.766 48.123 245.62 48.0464 245.472 47.9079C245.293 47.7411 245.2 47.5631 245.194 47.374C245.191 47.188 245.268 47.0107 245.425 46.8421C245.595 46.66 245.8 46.5256 246.038 46.4391C246.569 46.2281 247.145 46.1969 247.763 46.3453C248.382 46.4937 248.978 46.8355 249.552 47.3707C250.3 48.0696 250.735 48.807 250.857 49.583C250.982 50.3621 250.778 51.0367 250.246 51.6067C249.83 52.0519 249.341 52.2924 248.777 52.3281C248.214 52.3639 247.66 52.2164 247.117 51.8859L247.093 51.9112C247.593 52.4718 247.858 53.06 247.889 53.6759C247.923 54.2884 247.705 54.8459 247.236 55.3485C246.635 55.9927 245.891 56.2795 245.004 56.2088C244.12 56.1349 243.277 55.7232 242.474 54.974ZM248.726 60.8096C247.829 59.9722 247.442 58.9768 247.565 57.8235C247.692 56.6669 248.305 55.5 249.403 54.3229C250.496 53.1525 251.613 52.4661 252.755 52.2635C253.9 52.0641 254.92 52.3815 255.814 53.2157C256.704 54.0468 257.088 55.039 256.964 56.1923C256.844 57.3422 256.238 58.5023 255.145 59.6727C254.05 60.8464 252.928 61.5379 251.779 61.7473C250.638 61.9564 249.62 61.6438 248.726 60.8096ZM249.722 59.7421C250.215 60.2017 250.819 60.3179 251.536 60.0909C252.253 59.8638 253.016 59.3168 253.825 58.45C254.625 57.5933 255.111 56.798 255.285 56.0641C255.463 55.3333 255.307 54.7397 254.818 54.2832C254.328 53.8267 253.721 53.7106 252.994 53.9347C252.274 54.1587 251.517 54.6956 250.724 55.5456C249.914 56.4124 249.42 57.2129 249.239 57.947C249.066 58.681 249.227 59.2793 249.722 59.7421Z" fill="white"/>
<path d="M274.039 215.54C274.435 214.794 274.906 214.24 275.45 213.876C275.993 213.512 276.561 213.334 277.154 213.341C277.416 213.339 277.653 213.395 277.865 213.507C278.072 213.618 278.205 213.767 278.262 213.954C278.317 214.145 278.286 214.351 278.169 214.571C278.084 214.73 277.977 214.842 277.847 214.909C277.716 214.98 277.546 215.013 277.34 215.008C276.909 214.982 276.526 215.066 276.188 215.257C275.855 215.451 275.565 215.78 275.318 216.244C275.054 216.741 274.967 217.213 275.059 217.659C275.149 218.109 275.395 218.441 275.798 218.656C276.264 218.909 276.709 218.942 277.133 218.755C277.559 218.574 277.923 218.198 278.227 217.628L278.494 217.127C278.595 216.936 278.73 216.811 278.896 216.753C279.065 216.702 279.237 216.723 279.412 216.816C279.587 216.909 279.698 217.039 279.745 217.205C279.795 217.378 279.768 217.56 279.667 217.751L279.419 218.216C279.161 218.7 279.078 219.157 279.168 219.587C279.258 220.017 279.5 220.336 279.896 220.547C280.287 220.755 280.664 220.791 281.029 220.656C281.396 220.527 281.706 220.224 281.959 219.748C282.176 219.341 282.267 218.963 282.233 218.616C282.202 218.27 282.052 217.929 281.782 217.592C281.636 217.404 281.553 217.237 281.532 217.09C281.508 216.947 281.545 216.786 281.64 216.607C281.755 216.391 281.903 216.255 282.084 216.2C282.263 216.149 282.454 216.178 282.657 216.286C282.877 216.403 283.06 216.566 283.205 216.774C283.547 217.232 283.726 217.78 283.742 218.416C283.759 219.052 283.583 219.716 283.215 220.408C282.734 221.313 282.134 221.924 281.416 222.242C280.695 222.564 279.991 222.542 279.303 222.176C278.765 221.889 278.406 221.479 278.226 220.944C278.046 220.409 278.045 219.836 278.223 219.225L278.193 219.209C277.781 219.836 277.281 220.245 276.694 220.434C276.111 220.626 275.516 220.56 274.91 220.237C274.132 219.823 273.662 219.178 273.501 218.303C273.343 217.43 273.523 216.509 274.039 215.54ZM269.119 225.401C269.058 225.191 269.088 224.974 269.207 224.75C269.326 224.526 269.492 224.381 269.704 224.316C269.916 224.252 270.142 224.283 270.383 224.411L271.421 224.964L273.272 221.488C273.421 221.207 273.624 221.022 273.88 220.934C274.134 220.849 274.393 220.878 274.658 221.019C274.96 221.179 275.255 221.483 275.545 221.93C276.161 222.885 277.075 224.516 278.287 226.823C278.563 227.336 278.72 227.749 278.757 228.061C278.796 228.38 278.729 228.702 278.556 229.028C278.339 229.436 278.068 229.699 277.743 229.819C277.418 229.938 277.072 229.901 276.706 229.706L271.916 227.156L271.588 227.773C271.48 227.977 271.333 228.105 271.148 228.158C270.965 228.218 270.777 228.196 270.586 228.094C270.391 227.99 270.266 227.846 270.213 227.661C270.158 227.48 270.186 227.285 270.296 227.078L270.621 226.467L269.583 225.914C269.338 225.784 269.184 225.613 269.119 225.401ZM272.667 225.658L277.334 228.143L277.347 228.118C276.68 226.817 276.118 225.752 275.661 224.923C275.203 224.094 274.754 223.343 274.313 222.669L274.27 222.647L272.667 225.658Z" fill="white"/>
<path d="M271.45 91.3254C271.34 91.107 271.311 90.8997 271.362 90.7035C271.419 90.5094 271.542 90.3646 271.732 90.2692C271.888 90.1903 272.08 90.1506 272.307 90.1499L280.605 90.3178L280.636 90.3022L278.61 86.2785C278.51 86.0807 278.488 85.8878 278.543 85.6999C278.598 85.512 278.725 85.3682 278.922 85.2686C279.116 85.1711 279.304 85.154 279.486 85.2175C279.669 85.285 279.812 85.4197 279.914 85.6217L282.273 90.3068C282.419 90.5952 282.454 90.8665 282.381 91.1205C282.309 91.3786 282.136 91.5772 281.86 91.7162C281.621 91.8366 281.249 91.8944 280.746 91.8896L272.275 91.8089C272.062 91.8075 271.893 91.7687 271.767 91.6928C271.643 91.6209 271.537 91.4984 271.45 91.3254Z" fill="white"/>
<path d="M246.317 252.836C246.947 252.274 247.581 251.917 248.217 251.764C248.853 251.61 249.447 251.639 250.001 251.851C250.247 251.94 250.45 252.074 250.61 252.253C250.767 252.429 250.839 252.614 250.828 252.81C250.814 253.008 250.713 253.19 250.527 253.356C250.393 253.476 250.254 253.545 250.109 253.563C249.961 253.584 249.791 253.556 249.599 253.48C249.204 253.307 248.815 253.252 248.432 253.315C248.052 253.381 247.666 253.59 247.274 253.94C246.854 254.314 246.61 254.727 246.541 255.177C246.47 255.631 246.586 256.028 246.89 256.369C247.24 256.768 247.646 256.953 248.108 256.924C248.57 256.901 249.042 256.675 249.524 256.245L249.948 255.867C250.11 255.723 250.279 255.652 250.455 255.656C250.631 255.666 250.785 255.745 250.917 255.893C251.049 256.041 251.108 256.201 251.095 256.374C251.082 256.553 250.994 256.714 250.832 256.859L250.44 257.209C250.03 257.574 249.793 257.974 249.729 258.408C249.665 258.842 249.782 259.226 250.08 259.56C250.375 259.891 250.717 260.056 251.105 260.055C251.494 260.061 251.89 259.884 252.292 259.525C252.637 259.218 252.853 258.895 252.941 258.557C253.032 258.223 253.009 257.85 252.872 257.441C252.8 257.214 252.78 257.029 252.811 256.883C252.839 256.741 252.928 256.603 253.08 256.467C253.262 256.305 253.448 256.229 253.637 256.239C253.822 256.253 253.992 256.346 254.145 256.518C254.311 256.704 254.426 256.92 254.491 257.166C254.652 257.714 254.631 258.289 254.427 258.892C254.222 259.495 253.827 260.057 253.242 260.579C252.478 261.261 251.704 261.627 250.92 261.677C250.132 261.73 249.479 261.465 248.96 260.884C248.555 260.429 248.36 259.92 248.376 259.355C248.392 258.791 248.589 258.253 248.968 257.742L248.945 257.716C248.341 258.162 247.731 258.372 247.115 258.347C246.502 258.325 245.967 258.058 245.509 257.545C244.923 256.887 244.705 256.12 244.856 255.243C245.011 254.369 245.498 253.567 246.317 252.836Z" fill="white"/>
<path d="M222.984 40.7014C222.754 40.5558 222.612 40.3869 222.559 40.1949C222.512 40.0015 222.551 39.8073 222.674 39.6124C222.765 39.4682 222.875 39.36 223.002 39.2879C223.13 39.2157 223.324 39.1555 223.584 39.1071L227.78 38.1847C228.654 37.9952 229.27 37.8149 229.63 37.6439C229.989 37.4728 230.271 37.2256 230.476 36.902C230.716 36.5239 230.781 36.1314 230.673 35.7243C230.567 35.3134 230.312 34.9796 229.906 34.7229C229.146 34.2416 228.374 34.2879 227.59 34.8619C227.411 34.9723 227.248 35.0325 227.099 35.0424C226.951 35.0523 226.793 35.0042 226.626 34.898C226.423 34.7697 226.299 34.612 226.253 34.4249C226.208 34.2378 226.246 34.0488 226.367 33.8578C226.433 33.7525 226.516 33.6572 226.614 33.5717C226.82 33.3748 227.068 33.2153 227.359 33.0933C227.653 32.9738 227.976 32.8996 228.327 32.8708C228.681 32.8382 229.064 32.8759 229.476 32.984C229.888 33.092 230.291 33.2707 230.684 33.52C231.526 34.0531 232.069 34.7135 232.313 35.5014C232.559 36.2853 232.458 37.032 232.009 37.7414C231.705 38.2209 231.289 38.5852 230.76 38.8345C230.237 39.0823 229.392 39.3307 228.224 39.5796L225.081 40.2603L225.063 40.2896L228.431 42.422C228.63 42.5479 228.75 42.7031 228.791 42.8878C228.837 43.0748 228.8 43.2619 228.682 43.449C228.563 43.6361 228.41 43.7492 228.221 43.7882C228.039 43.8258 227.848 43.7816 227.65 43.6557L222.984 40.7014ZM232.201 46.7752C231.539 46.3556 231.057 45.8268 230.757 45.1888C230.456 44.5508 230.353 43.8332 230.449 43.0361C230.551 42.1838 230.905 41.2801 231.51 40.3251C232.401 38.918 233.401 38.0112 234.51 37.605C235.622 37.1948 236.713 37.3291 237.785 38.0078C238.413 38.4052 238.885 38.8792 239.203 39.4298C239.523 39.9764 239.66 40.5243 239.612 41.0732C239.598 41.2937 239.542 41.4819 239.443 41.6378C239.332 41.8132 239.181 41.9224 238.99 41.9653C238.802 42.0043 238.61 41.9621 238.415 41.8386C238.271 41.7473 238.165 41.634 238.098 41.4986C238.037 41.3618 237.996 41.1772 237.973 40.9447C237.949 40.5524 237.857 40.2186 237.698 39.9433C237.546 39.6665 237.314 39.4295 237.002 39.232C236.374 38.8346 235.718 38.8014 235.034 39.1324C234.349 39.4634 233.687 40.1171 233.047 41.0934L232.991 41.1811L233.02 41.1996C233.448 40.9028 233.946 40.7593 234.513 40.769C235.087 40.7772 235.651 40.9566 236.204 41.307C237.015 41.8204 237.512 42.5012 237.696 43.3493C237.886 44.196 237.727 45.0208 237.219 45.8238C236.676 46.6814 235.931 47.1981 234.984 47.374C234.041 47.5523 233.113 47.3528 232.201 46.7752ZM232.068 44.2824C232.188 44.8172 232.484 45.2339 232.955 45.5325C233.427 45.8312 233.928 45.9243 234.457 45.812C234.99 45.6958 235.403 45.4058 235.696 44.9419C236.006 44.461 236.102 43.9647 235.984 43.453C235.866 42.9412 235.563 42.5311 235.076 42.2225C234.588 41.914 234.084 41.8133 233.563 41.9202C233.045 42.0233 232.637 42.3088 232.341 42.7765C232.043 43.2482 231.951 43.7501 232.068 44.2824Z" fill="white"/>
<path d="M283.26 192.804C283.341 192.544 283.468 192.363 283.639 192.262C283.814 192.167 284.011 192.154 284.232 192.222C284.395 192.273 284.527 192.351 284.63 192.456C284.733 192.56 284.841 192.732 284.955 192.97L286.932 196.785C287.341 197.58 287.675 198.129 287.933 198.432C288.192 198.735 288.503 198.943 288.869 199.057C289.296 199.191 289.692 199.152 290.058 198.943C290.427 198.734 290.683 198.401 290.826 197.943C291.095 197.084 290.85 196.35 290.093 195.742C289.94 195.597 289.839 195.455 289.791 195.314C289.743 195.174 289.749 195.009 289.808 194.819C289.88 194.59 290 194.43 290.169 194.337C290.338 194.245 290.53 194.233 290.746 194.3C290.865 194.337 290.978 194.392 291.086 194.464C291.33 194.613 291.548 194.812 291.741 195.06C291.933 195.313 292.088 195.606 292.207 195.938C292.33 196.271 292.392 196.651 292.395 197.077C292.397 197.503 292.329 197.938 292.19 198.383C291.893 199.334 291.395 200.03 290.697 200.469C290.004 200.91 289.256 201.005 288.455 200.755C287.913 200.586 287.454 200.278 287.076 199.831C286.701 199.39 286.242 198.638 285.7 197.575L284.229 194.716L284.196 194.705L283.008 198.51C282.938 198.735 282.819 198.891 282.651 198.979C282.482 199.071 282.292 199.084 282.081 199.018C281.869 198.952 281.72 198.833 281.634 198.661C281.55 198.495 281.544 198.3 281.614 198.075L283.26 192.804ZM280.874 200.445C280.955 200.185 281.081 200.005 281.253 199.904C281.428 199.809 281.625 199.795 281.845 199.864C282.008 199.915 282.141 199.993 282.244 200.097C282.347 200.202 282.455 200.374 282.569 200.612L284.546 204.427C284.955 205.222 285.289 205.77 285.547 206.073C285.805 206.376 286.117 206.585 286.483 206.699C286.91 206.832 287.306 206.794 287.671 206.584C288.041 206.376 288.297 206.043 288.44 205.585C288.708 204.726 288.464 203.992 287.707 203.384C287.554 203.239 287.453 203.097 287.405 202.956C287.357 202.815 287.363 202.65 287.422 202.461C287.493 202.232 287.614 202.071 287.783 201.979C287.952 201.887 288.144 201.874 288.36 201.942C288.479 201.979 288.592 202.034 288.7 202.106C288.944 202.255 289.162 202.453 289.355 202.702C289.547 202.955 289.702 203.248 289.82 203.58C289.943 203.913 290.006 204.293 290.008 204.719C290.011 205.145 289.942 205.58 289.804 206.025C289.507 206.976 289.009 207.672 288.311 208.111C287.618 208.552 286.87 208.647 286.069 208.397C285.527 208.228 285.067 207.92 284.69 207.473C284.315 207.032 283.856 206.28 283.314 205.216L281.843 202.357L281.81 202.347L280.622 206.152C280.551 206.377 280.433 206.533 280.265 206.621C280.096 206.713 279.906 206.726 279.694 206.66C279.483 206.594 279.334 206.475 279.248 206.303C279.164 206.137 279.158 205.941 279.228 205.717L280.874 200.445Z" fill="white"/>
<path d="M260.244 72.6001C260.014 72.5728 259.82 72.4565 259.663 72.2513C259.507 72.0461 259.444 71.8271 259.475 71.5942C259.508 71.3651 259.631 71.1692 259.844 71.0066L265.797 66.4527L265.776 66.4253L263.906 65.8257C263.716 65.7676 263.568 65.6689 263.461 65.5296C263.346 65.3794 263.3 65.2202 263.322 65.052C263.349 64.881 263.44 64.7353 263.598 64.6148C263.814 64.4494 264.08 64.4173 264.396 64.5186L266.774 65.2697C267.02 65.3485 267.211 65.4348 267.347 65.5286C267.485 65.626 267.615 65.7535 267.735 65.9111C267.926 66.1602 268.004 66.411 267.971 66.6632C267.941 66.9126 267.803 67.1313 267.557 67.3191L260.912 72.4027C260.7 72.5653 260.477 72.6311 260.244 72.6001ZM264.049 77.5735C263.819 77.5461 263.625 77.4299 263.468 77.2246C263.311 77.0194 263.248 76.8004 263.279 76.5676C263.313 76.3384 263.436 76.1425 263.649 75.9799L269.601 71.4261L269.58 71.3986L267.71 70.7991C267.52 70.7409 267.372 70.6422 267.266 70.5029C267.151 70.3527 267.105 70.1935 267.127 70.0253C267.153 69.8544 267.245 69.7086 267.402 69.5881C267.619 69.4227 267.885 69.3906 268.2 69.4919L270.578 70.243C270.825 70.3219 271.016 70.4082 271.151 70.5019C271.29 70.5993 271.419 70.7268 271.54 70.8844C271.73 71.1336 271.809 71.3843 271.775 71.6365C271.745 71.886 271.608 72.1046 271.362 72.2924L264.717 77.3761C264.504 77.5387 264.281 77.6045 264.049 77.5735Z" fill="white"/>
<path d="M262.562 234.65C262.529 234.421 262.591 234.204 262.749 233.999C262.906 233.795 263.102 233.677 263.335 233.647C263.565 233.62 263.786 233.688 263.998 233.852L269.937 238.423L269.958 238.396L270.053 236.434C270.061 236.236 270.118 236.067 270.224 235.928C270.34 235.778 270.482 235.692 270.65 235.67C270.822 235.651 270.986 235.702 271.144 235.823C271.359 235.989 271.459 236.238 271.443 236.569L271.333 239.061C271.32 239.319 271.287 239.526 271.231 239.681C271.173 239.84 271.083 239.998 270.962 240.155C270.771 240.404 270.549 240.544 270.297 240.577C270.048 240.613 269.801 240.536 269.556 240.348L262.926 235.245C262.714 235.081 262.593 234.883 262.562 234.65ZM258.699 239.159C259.166 238.552 259.718 238.107 260.356 237.823C260.997 237.543 261.608 237.471 262.188 237.61C262.44 237.669 262.651 237.765 262.823 237.897C263.006 238.038 263.108 238.204 263.13 238.395C263.155 238.589 263.096 238.78 262.952 238.966C262.837 239.116 262.711 239.214 262.576 239.262C262.438 239.313 262.268 239.318 262.065 239.279C261.636 239.164 261.23 239.169 260.848 239.294C260.47 239.422 260.136 239.675 259.846 240.051C259.486 240.519 259.341 241.018 259.41 241.549C259.479 242.08 259.747 242.525 260.215 242.885C260.669 243.234 261.157 243.371 261.68 243.297C262.2 243.226 262.641 242.956 263.001 242.488C263.372 242.005 263.523 241.466 263.452 240.87C263.414 240.579 263.409 240.362 263.436 240.221C263.461 240.082 263.535 239.933 263.659 239.772C263.828 239.553 264.025 239.437 264.25 239.424C264.476 239.411 264.686 239.485 264.882 239.648C264.918 239.676 264.946 239.7 264.965 239.721L267.76 242.273C268.047 242.535 268.2 242.798 268.218 243.062C268.233 243.33 268.119 243.621 267.877 243.936L265.252 247.347C265.114 247.526 264.95 247.63 264.76 247.658C264.569 247.686 264.388 247.634 264.216 247.502C264.041 247.367 263.942 247.203 263.92 247.012C263.899 246.821 263.957 246.636 264.095 246.456L266.556 243.259L264.374 241.248L264.353 241.276C264.472 241.635 264.484 242.025 264.387 242.446C264.288 242.87 264.086 243.279 263.782 243.674C263.2 244.431 262.48 244.867 261.623 244.982C260.766 245.097 259.959 244.863 259.202 244.28C258.376 243.644 257.916 242.85 257.822 241.899C257.731 240.95 258.023 240.037 258.699 239.159Z" fill="white"/>
<path d="M141.639 22.5788C141.367 22.5884 141.155 22.5289 141.003 22.4004C140.855 22.2671 140.777 22.0852 140.769 21.8547C140.763 21.6841 140.792 21.533 140.857 21.4014C140.921 21.2699 141.047 21.1108 141.235 20.9241L144.178 17.7942C144.792 17.1447 145.199 16.6479 145.4 16.3038C145.6 15.9597 145.693 15.5963 145.68 15.2137C145.664 14.7664 145.497 14.4053 145.178 14.1303C144.858 13.8507 144.459 13.7194 143.98 13.7363C143.08 13.768 142.469 14.242 142.146 15.1582C142.061 15.3505 141.959 15.4926 141.843 15.5844C141.726 15.6763 141.568 15.7257 141.37 15.7327C141.13 15.7411 140.939 15.6809 140.796 15.5521C140.653 15.4233 140.577 15.2459 140.569 15.02C140.565 14.8955 140.579 14.7703 140.611 14.6445C140.671 14.3654 140.786 14.0936 140.957 13.8291C141.132 13.5644 141.357 13.321 141.63 13.099C141.904 12.8724 142.241 12.6873 142.643 12.5439C143.044 12.4005 143.477 12.3206 143.943 12.3042C144.939 12.269 145.76 12.5078 146.406 13.0206C147.051 13.5287 147.389 14.2024 147.419 15.0415C147.439 15.6086 147.301 16.1444 147.005 16.6488C146.713 17.1485 146.155 17.8306 145.332 18.6953L143.122 21.0307L143.123 21.0653L147.107 20.9248C147.342 20.9165 147.529 20.9768 147.667 21.1058C147.81 21.2347 147.886 21.4097 147.893 21.6311C147.901 21.8524 147.838 22.0323 147.705 22.1709C147.576 22.3047 147.393 22.3758 147.158 22.3841L141.639 22.5788Z" fill="white"/>
<path d="M150.312 288.563C151.534 288.677 152.449 289.228 153.056 290.217C153.663 291.209 153.892 292.507 153.742 294.11C153.593 295.704 153.128 296.931 152.348 297.789C151.564 298.647 150.563 299.019 149.346 298.906C148.133 298.792 147.223 298.241 146.616 297.253C146.008 296.27 145.778 294.981 145.927 293.387C146.077 291.788 146.542 290.555 147.323 289.688C148.099 288.824 149.095 288.449 150.312 288.563ZM150.177 290.017C149.506 289.954 148.956 290.232 148.528 290.85C148.099 291.468 147.83 292.367 147.72 293.548C147.611 294.714 147.712 295.641 148.023 296.328C148.329 297.015 148.815 297.389 149.482 297.452C150.148 297.514 150.7 297.234 151.138 296.613C151.571 295.995 151.842 295.107 151.95 293.95C152.06 292.769 151.962 291.833 151.656 291.142C151.345 290.455 150.852 290.08 150.177 290.017ZM141.666 287.755C142.888 287.869 143.803 288.42 144.41 289.408C145.017 290.401 145.246 291.699 145.096 293.302C144.947 294.896 144.482 296.123 143.702 296.981C142.918 297.839 141.917 298.211 140.699 298.097C139.487 297.984 138.577 297.433 137.969 296.445C137.362 295.462 137.132 294.173 137.281 292.579C137.431 290.98 137.896 289.747 138.677 288.879C139.452 288.016 140.449 287.641 141.666 287.755ZM141.53 289.209C140.86 289.146 140.31 289.424 139.882 290.042C139.453 290.66 139.184 291.559 139.073 292.739C138.964 293.906 139.065 294.833 139.376 295.52C139.683 296.207 140.169 296.581 140.835 296.644C141.501 296.706 142.054 296.426 142.492 295.804C142.925 295.187 143.195 294.299 143.304 293.142C143.414 291.961 143.316 291.025 143.01 290.334C142.699 289.647 142.206 289.272 141.53 289.209Z" fill="white"/>
<path d="M97.8318 35.1392C97.0505 35.4591 96.3344 35.5852 95.6835 35.5176C95.0327 35.4501 94.4817 35.2245 94.0305 34.8408C93.8278 34.6746 93.6811 34.4804 93.5902 34.2584C93.501 34.0406 93.4943 33.8415 93.5699 33.6609C93.6499 33.4787 93.8051 33.3403 94.0357 33.2459C94.2022 33.1778 94.3567 33.1594 94.4992 33.1908C94.6459 33.2204 94.7969 33.3032 94.9522 33.439C95.2673 33.7338 95.6158 33.9152 95.9976 33.9832C96.3777 34.047 96.8111 33.9792 97.2978 33.78C97.8187 33.5667 98.1864 33.2592 98.4008 32.8573C98.6194 32.4537 98.6422 32.0406 98.4692 31.6179C98.2724 31.1251 97.9512 30.8154 97.5055 30.6888C97.0624 30.5561 96.5419 30.6122 95.9441 30.8569L95.419 31.0719C95.2183 31.154 95.0354 31.1641 94.8704 31.102C94.708 31.0339 94.5891 30.9081 94.514 30.7245C94.4388 30.5409 94.4362 30.37 94.506 30.2118C94.5783 30.0475 94.7149 29.9243 94.9155 29.8422L95.4023 29.6429C95.9104 29.4349 96.267 29.1369 96.472 28.7488C96.6771 28.3608 96.6949 27.9597 96.5253 27.5455C96.3575 27.1356 96.0902 26.8662 95.7233 26.7372C95.3589 26.6022 94.927 26.6369 94.4274 26.8414C94.0004 27.0162 93.6892 27.2484 93.4936 27.5378C93.2963 27.823 93.1938 28.1815 93.1861 28.6134C93.1786 28.8508 93.1359 29.0328 93.0581 29.1593C92.9846 29.2841 92.8539 29.385 92.666 29.4619C92.4397 29.5546 92.2393 29.5643 92.0648 29.4912C91.8946 29.4163 91.7658 29.2721 91.6784 29.0586C91.584 28.8281 91.5473 28.5863 91.5684 28.3334C91.5989 27.7626 91.811 27.2271 92.2045 26.727C92.598 26.2269 93.1577 25.8283 93.8835 25.5311C94.8314 25.1431 95.6832 25.0561 96.4389 25.2702C97.1988 25.4825 97.7265 25.9495 98.0219 26.6711C98.2526 27.2347 98.2664 27.7799 98.0633 28.3068C97.8603 28.8336 97.495 29.2748 96.9675 29.6303L96.9806 29.6623C97.6985 29.4432 98.3437 29.4483 98.9162 29.6776C99.4869 29.9026 99.9025 30.3332 100.163 30.9694C100.497 31.7849 100.446 32.5808 100.011 33.3571C99.5745 34.1292 98.848 34.7232 97.8318 35.1392ZM105.683 31.9252C104.974 32.2154 104.273 32.323 103.579 32.2481C102.883 32.1688 102.319 31.9236 101.887 31.5125C101.699 31.3349 101.565 31.1458 101.483 30.9451C101.395 30.7316 101.39 30.5367 101.468 30.3605C101.543 30.18 101.69 30.0451 101.908 29.956C102.083 29.8843 102.241 29.862 102.381 29.8892C102.526 29.9146 102.677 29.9952 102.832 30.131C103.145 30.4463 103.499 30.6457 103.892 30.7291C104.283 30.8082 104.699 30.7577 105.138 30.5776C105.685 30.3539 106.062 29.9953 106.268 29.5019C106.475 29.0084 106.467 28.4884 106.243 27.9419C106.026 27.4124 105.673 27.0486 105.183 26.8503C104.697 26.6504 104.181 26.6622 103.635 26.886C103.071 27.1167 102.67 27.5076 102.432 28.0587C102.319 28.3295 102.214 28.5193 102.119 28.628C102.028 28.735 101.889 28.8269 101.701 28.9038C101.445 29.0087 101.216 29.0101 101.015 28.9081C100.814 28.806 100.669 28.6358 100.582 28.3975C100.564 28.3548 100.552 28.3198 100.546 28.2924L99.4118 24.6813C99.2949 24.3104 99.295 24.0062 99.4122 23.7688C99.5336 23.5297 99.7779 23.3349 100.145 23.1846L104.129 21.5537C104.338 21.4681 104.532 21.461 104.711 21.5323C104.89 21.6037 105.02 21.7398 105.102 21.9404C105.186 22.1454 105.189 22.336 105.112 22.5123C105.035 22.6885 104.891 22.8195 104.682 22.9051L100.948 24.4337L101.824 27.2681L101.856 27.255C101.934 26.8843 102.12 26.5413 102.415 26.2262C102.714 25.9094 103.094 25.6566 103.555 25.4678C104.439 25.106 105.28 25.0906 106.079 25.4218C106.877 25.7529 107.458 26.3604 107.819 27.2442C108.214 28.2092 108.214 29.1268 107.817 29.997C107.419 30.863 106.707 31.5057 105.683 31.9252Z" fill="white"/>
<path d="M24.4104 181.497C24.552 182.33 24.5189 183.056 24.3109 183.676C24.103 184.297 23.7626 184.785 23.2898 185.142C23.0832 185.303 22.8617 185.404 22.6252 185.444C22.3933 185.484 22.1974 185.447 22.0378 185.334C21.8773 185.216 21.7762 185.034 21.7344 184.789C21.7042 184.611 21.72 184.457 21.7817 184.324C21.8427 184.188 21.9564 184.058 22.1228 183.936C22.4792 183.693 22.7323 183.393 22.882 183.035C23.0272 182.678 23.0556 182.24 22.9674 181.722C22.8729 181.167 22.653 180.741 22.3076 180.444C21.9615 180.143 21.5632 180.03 21.113 180.107C20.5891 180.191 20.2168 180.437 19.996 180.845C19.7698 181.248 19.7109 181.768 19.8193 182.405L19.9146 182.964C19.9509 183.178 19.9208 183.359 19.8243 183.506C19.7224 183.65 19.5736 183.739 19.3781 183.772C19.1825 183.805 19.0151 183.77 18.876 183.668C18.7315 183.561 18.641 183.401 18.6047 183.187L18.5164 182.669C18.4243 182.128 18.2112 181.715 17.8773 181.43C17.5433 181.145 17.1557 181.04 16.7146 181.115C16.2779 181.19 15.9566 181.392 15.7507 181.722C15.5395 182.048 15.4791 182.477 15.5697 183.009C15.6471 183.464 15.8057 183.818 16.0455 184.072C16.2808 184.327 16.6083 184.505 17.0281 184.607C17.2581 184.666 17.4264 184.748 17.533 184.851C17.6387 184.95 17.7086 185.1 17.7427 185.3C17.7837 185.541 17.7495 185.739 17.6401 185.893C17.5299 186.043 17.361 186.137 17.1336 186.176C16.888 186.217 16.6441 186.2 16.4019 186.125C15.8515 185.97 15.3751 185.647 14.973 185.153C14.5708 184.66 14.3039 184.027 14.1723 183.254C14.0004 182.244 14.1014 181.394 14.4752 180.703C14.8483 180.008 15.4191 179.595 16.1878 179.464C16.7881 179.362 17.3232 179.467 17.7931 179.78C18.2629 180.094 18.6137 180.546 18.8456 181.139L18.8797 181.133C18.8225 180.384 18.9683 179.756 19.3169 179.247C19.6611 178.739 20.172 178.428 20.8496 178.312C21.7184 178.165 22.4841 178.388 23.1468 178.981C23.8049 179.576 24.2261 180.415 24.4104 181.497ZM22.6241 172.859C22.815 172.99 22.9321 173.183 22.9754 173.438C23.0188 173.693 22.9725 173.916 22.8366 174.108C22.7 174.295 22.4998 174.411 22.236 174.456L14.8473 175.713L14.8531 175.747L16.2289 177.149C16.3697 177.289 16.4549 177.445 16.4843 177.618C16.516 177.804 16.4828 177.967 16.3847 178.105C16.282 178.244 16.1329 178.33 15.9373 178.364C15.669 178.409 15.4187 178.314 15.1866 178.077L13.4318 176.305C13.2506 176.121 13.1218 175.955 13.0455 175.809C12.9684 175.659 12.9132 175.485 12.8799 175.29C12.8272 174.981 12.8745 174.722 13.0217 174.515C13.1643 174.308 13.388 174.178 13.6927 174.127L21.941 172.723C22.2048 172.678 22.4325 172.723 22.6241 172.859Z" fill="white"/>
<path d="M104.819 279.508C105.036 279.428 105.261 279.443 105.494 279.555C105.727 279.666 105.883 279.833 105.961 280.055C106.035 280.274 106.014 280.505 105.899 280.746L102.662 287.506L102.693 287.521L104.632 287.206C104.827 287.172 105.004 287.192 105.162 287.268C105.333 287.35 105.446 287.471 105.503 287.631C105.557 287.795 105.542 287.966 105.456 288.145C105.338 288.391 105.116 288.54 104.789 288.593L102.329 289.004C102.074 289.045 101.864 289.055 101.701 289.033C101.533 289.009 101.36 288.954 101.181 288.869C100.898 288.733 100.714 288.545 100.63 288.305C100.543 288.07 100.567 287.812 100.7 287.533L104.313 279.987C104.429 279.745 104.597 279.586 104.819 279.508ZM99.5177 276.624C100.625 277.154 101.292 277.988 101.52 279.125C101.746 280.267 101.511 281.564 100.816 283.016C100.125 284.46 99.2645 285.45 98.2357 285.985C97.2027 286.519 96.1348 286.522 95.0321 285.994C93.9335 285.468 93.2702 284.636 93.0423 283.499C92.8124 282.366 93.0431 281.077 93.7344 279.633C94.4277 278.185 95.2908 277.189 96.3236 276.645C97.3502 276.103 98.4149 276.097 99.5177 276.624ZM98.8871 277.942C98.2796 277.651 97.6679 277.721 97.0521 278.153C96.4363 278.584 95.8724 279.335 95.3603 280.404C94.8543 281.461 94.6284 282.366 94.6825 283.118C94.7325 283.868 95.0592 284.388 95.6626 284.677C96.266 284.966 96.8808 284.894 97.5069 284.462C98.1269 284.033 98.6879 283.294 99.19 282.245C99.702 281.176 99.934 280.264 99.886 279.509C99.8318 278.757 99.4989 278.234 98.8871 277.942Z" fill="white"/>
<path d="M23.8187 134.855C23.6746 135.626 23.362 136.269 22.8808 136.785C22.3996 137.3 21.7712 137.661 20.9956 137.869C20.1659 138.089 19.1955 138.095 18.0844 137.888C16.4472 137.582 15.2343 136.989 14.4459 136.11C13.6529 135.229 13.3729 134.166 13.6059 132.918C13.7424 132.188 14.0074 131.574 14.401 131.075C14.7901 130.575 15.2483 130.245 15.7757 130.085C15.9856 130.017 16.1813 129.999 16.3627 130.033C16.5668 130.071 16.7242 130.171 16.8348 130.332C16.9409 130.493 16.9728 130.687 16.9304 130.914C16.8991 131.081 16.833 131.222 16.7322 131.334C16.6276 131.441 16.4715 131.548 16.2639 131.655C15.9086 131.823 15.6325 132.032 15.4357 132.282C15.2352 132.526 15.1011 132.829 15.0333 133.192C14.8968 133.922 15.1092 134.544 15.6704 135.057C16.2316 135.57 17.0843 135.943 18.2283 136.176L18.3303 136.195L18.3367 136.161C17.9023 135.873 17.5845 135.464 17.3832 134.934C17.1782 134.398 17.1359 133.808 17.2562 133.164C17.4325 132.221 17.8804 131.506 18.6 131.021C19.3158 130.531 20.1409 130.373 21.0751 130.547C22.0729 130.734 22.8289 131.234 23.3433 132.048C23.8585 132.858 24.0169 133.794 23.8187 134.855ZM21.553 135.903C22.0051 135.593 22.2825 135.164 22.385 134.615C22.4875 134.066 22.3884 133.567 22.0877 133.116C21.7825 132.665 21.36 132.389 20.8203 132.288C20.2588 132.178 19.7623 132.273 19.3309 132.573C18.8994 132.873 18.6307 133.306 18.5248 133.873C18.4189 134.44 18.5122 134.945 18.8047 135.389C19.0926 135.833 19.5087 136.105 20.0529 136.207C20.6017 136.309 21.1017 136.208 21.553 135.903Z" fill="white"/>
<path d="M77.0362 47.0727C76.8078 47.2208 76.5952 47.2788 76.3985 47.2468C76.2032 47.2085 76.0429 47.0925 75.9174 46.8989C75.8246 46.7557 75.772 46.611 75.7599 46.465C75.7477 46.3189 75.7739 46.1177 75.8387 45.8613L76.7549 41.6636C76.948 40.7907 77.0419 40.1553 77.0368 39.7572C77.0318 39.3592 76.9251 38.9995 76.7168 38.6781C76.4734 38.3026 76.1442 38.0789 75.7292 38.0069C75.3118 37.9312 74.9017 38.0237 74.499 38.2847C73.7441 38.774 73.4634 39.4947 73.6571 40.4468C73.6826 40.6557 73.6688 40.8295 73.6158 40.9683C73.5629 41.1072 73.4531 41.2305 73.2866 41.3384C73.0853 41.4689 72.8902 41.5156 72.7013 41.4786C72.5124 41.4416 72.3564 41.3283 72.2335 41.1386C72.1657 41.034 72.1135 40.9195 72.0767 40.7949C71.9842 40.5249 71.9432 40.2326 71.9537 39.9179C71.968 39.6008 72.0355 39.2766 72.1563 38.9454C72.2745 38.6104 72.4689 38.2783 72.7393 37.949C73.0097 37.6198 73.3405 37.3285 73.7315 37.075C74.5678 36.533 75.3947 36.316 76.2124 36.4238C77.0275 36.5278 77.6634 36.9321 78.1201 37.6367C78.4287 38.1129 78.5856 38.6435 78.5909 39.2284C78.5974 39.8069 78.4697 40.6786 78.2076 41.8436L77.5124 44.9827L77.5312 45.0117L80.8763 42.8437C81.0738 42.7157 81.265 42.6715 81.4501 42.711C81.639 42.748 81.7937 42.8594 81.9141 43.0453C82.0346 43.2311 82.0731 43.4178 82.0297 43.6054C81.9877 43.7865 81.868 43.9411 81.6705 44.0691L77.0362 47.0727ZM86.1805 41.3852C85.472 41.8444 84.7917 42.1011 84.1397 42.1554C83.4876 42.2096 82.9043 42.0901 82.3898 41.7968C82.1598 41.671 81.9796 41.5074 81.8491 41.3061C81.7211 41.1086 81.6776 40.9142 81.7185 40.7227C81.7632 40.5288 81.8901 40.3641 82.0992 40.2286C82.2502 40.1307 82.3986 40.084 82.5444 40.0885C82.6941 40.0904 82.8579 40.1437 83.0357 40.2484C83.3999 40.4796 83.776 40.5933 84.1638 40.5893C84.5491 40.5815 84.9624 40.4346 85.4038 40.1485C85.8761 39.8424 86.1804 39.472 86.3165 39.0374C86.4566 38.6003 86.4024 38.1901 86.1539 37.8068C85.8692 37.359 85.4962 37.1142 85.0347 37.0724C84.5747 37.0243 84.0736 37.1758 83.5316 37.5271L83.0554 37.8358C82.8734 37.9537 82.6956 37.9975 82.522 37.9671C82.3497 37.9303 82.2096 37.8286 82.1017 37.6622C81.9938 37.4957 81.9595 37.3282 81.9988 37.1598C82.0394 36.985 82.1507 36.8387 82.3327 36.7207L82.7741 36.4347C83.2348 36.1361 83.5299 35.7771 83.6595 35.3577C83.7891 34.9384 83.7321 34.5409 83.4887 34.1654C83.2478 33.7937 82.9352 33.5785 82.5507 33.5198C82.1677 33.4547 81.7497 33.5689 81.2967 33.8625C80.9095 34.1134 80.6467 34.3992 80.5081 34.7199C80.3671 35.0368 80.3329 35.4081 80.4054 35.8339C80.4421 36.0685 80.4339 36.2553 80.3809 36.3941C80.3318 36.5304 80.222 36.6537 80.0517 36.7641C79.8465 36.8971 79.6514 36.9439 79.4663 36.9044C79.2852 36.8623 79.1318 36.7445 79.0064 36.551C78.8709 36.3419 78.79 36.1111 78.7639 35.8587C78.688 35.2921 78.7971 34.7266 79.091 34.1622C79.385 33.5978 79.8611 33.1023 80.5193 32.6757C81.3788 32.1187 82.1996 31.8753 82.9819 31.9456C83.7681 32.0133 84.3732 32.3744 84.7972 33.0287C85.1285 33.5397 85.2431 34.0729 85.1412 34.6283C85.0394 35.1836 84.7622 35.6849 84.3098 36.1321L84.3286 36.1611C84.9935 35.8127 85.6284 35.698 86.2334 35.8172C86.836 35.9325 87.3242 36.2786 87.6981 36.8555C88.1773 37.5949 88.2752 38.3864 87.9917 39.2299C87.7057 40.0696 87.102 40.788 86.1805 41.3852Z" fill="white"/>
<path d="M30.7796 202.213C30.9915 202.307 31.1423 202.475 31.2321 202.717C31.322 202.959 31.3179 203.187 31.2199 203.4C31.1203 203.61 30.9451 203.761 30.6942 203.854L23.6668 206.46L23.6788 206.492L25.2906 207.614C25.4549 207.725 25.5675 207.863 25.6285 208.028C25.6943 208.205 25.6918 208.371 25.621 208.525C25.5459 208.681 25.4154 208.793 25.2293 208.862C24.9741 208.957 24.7105 208.909 24.4385 208.72L22.3855 207.304C22.1733 207.156 22.0162 207.017 21.914 206.888C21.8103 206.754 21.724 206.594 21.655 206.408C21.5459 206.114 21.5444 205.851 21.6506 205.62C21.7524 205.391 21.9482 205.222 22.2381 205.115L30.083 202.206C30.3339 202.113 30.5661 202.115 30.7796 202.213ZM29.0991 196.785C29.367 197.508 29.4525 198.189 29.3556 198.831C29.2528 199.469 29.0266 199.974 28.6769 200.344C28.5246 200.504 28.3706 200.613 28.2149 200.671C28.0159 200.745 27.8304 200.742 27.6584 200.663C27.4865 200.584 27.3596 200.434 27.2778 200.214C27.2168 200.049 27.2036 199.894 27.2382 199.749C27.2668 199.6 27.3428 199.427 27.4661 199.229C27.6882 198.885 27.8219 198.563 27.8673 198.261C27.9111 197.954 27.8632 197.613 27.7237 197.236C27.4606 196.527 26.956 196.101 26.2097 195.96C25.4618 195.814 24.5433 195.938 23.4543 196.332L23.3505 196.37L23.3601 196.396C23.886 196.408 24.3716 196.59 24.8169 196.941C25.2622 197.293 25.5963 197.769 25.8193 198.37C26.1481 199.257 26.1347 200.104 25.7791 200.91C25.4236 201.716 24.798 202.285 23.9026 202.617C22.9509 202.97 22.046 202.931 21.1879 202.501C20.3239 202.069 19.7042 201.347 19.3289 200.334C19.0562 199.599 18.9937 198.886 19.1415 198.197C19.2877 197.503 19.6411 196.87 20.2015 196.298C20.8129 195.678 21.6442 195.173 22.6954 194.783C24.257 194.204 25.6028 194.091 26.7328 194.445C27.8628 194.798 28.6516 195.578 29.0991 196.785ZM24.3772 198.462C24.175 197.917 23.8365 197.529 23.3617 197.296C22.8868 197.064 22.3898 197.044 21.8707 197.236C21.3429 197.432 20.9669 197.778 20.7426 198.275C20.5167 198.767 20.5016 199.277 20.6973 199.805C20.8914 200.328 21.2353 200.705 21.7291 200.935C22.2186 201.167 22.7185 201.188 23.229 200.999C23.761 200.802 24.1352 200.464 24.3513 199.985C24.5658 199.502 24.5745 198.994 24.3772 198.462Z" fill="white"/>
<path d="M129.406 286.402C129.669 286.472 129.855 286.59 129.963 286.758C130.066 286.928 130.087 287.125 130.028 287.348C129.984 287.513 129.912 287.649 129.812 287.756C129.712 287.863 129.545 287.978 129.311 288.103L125.585 290.24C124.808 290.683 124.274 291.04 123.982 291.311C123.69 291.582 123.495 291.902 123.397 292.272C123.282 292.705 123.337 293.099 123.562 293.455C123.786 293.815 124.13 294.057 124.594 294.18C125.463 294.412 126.186 294.136 126.761 293.354C126.899 293.195 127.037 293.088 127.176 293.034C127.314 292.98 127.479 292.979 127.671 293.03C127.903 293.092 128.069 293.205 128.168 293.37C128.267 293.535 128.288 293.726 128.23 293.945C128.198 294.065 128.148 294.181 128.08 294.292C127.942 294.541 127.753 294.768 127.513 294.971C127.268 295.174 126.982 295.341 126.656 295.474C126.328 295.611 125.951 295.69 125.526 295.71C125.1 295.731 124.662 295.681 124.212 295.561C123.249 295.305 122.533 294.838 122.064 294.159C121.594 293.485 121.467 292.742 121.683 291.931C121.829 291.382 122.117 290.91 122.547 290.514C122.972 290.121 123.704 289.63 124.743 289.043L127.537 287.451L127.546 287.418L123.694 286.393C123.466 286.333 123.305 286.22 123.21 286.057C123.111 285.892 123.09 285.702 123.146 285.488C123.203 285.274 123.316 285.121 123.484 285.027C123.647 284.936 123.842 284.921 124.069 284.982L129.406 286.402ZM120.849 283.982C121.085 284.045 121.26 284.16 121.372 284.329C121.48 284.501 121.506 284.689 121.451 284.894C121.406 285.064 121.308 285.233 121.158 285.403L115.52 291.494L115.511 291.528L119.865 292.686C120.079 292.743 120.238 292.855 120.342 293.021C120.446 293.187 120.469 293.377 120.412 293.591C120.356 293.8 120.245 293.952 120.076 294.046C119.904 294.138 119.708 294.155 119.49 294.097L114.42 292.749C114.108 292.666 113.882 292.512 113.741 292.288C113.595 292.064 113.562 291.802 113.642 291.503C113.711 291.244 113.914 290.929 114.252 290.555L119.94 284.277C120.082 284.119 120.223 284.018 120.364 283.975C120.5 283.93 120.662 283.932 120.849 283.982Z" fill="white"/>
<path d="M120.081 26.9348C119.96 27.1324 119.774 27.2596 119.522 27.3164C119.27 27.3732 119.045 27.3389 118.846 27.2134C118.652 27.0869 118.525 26.8931 118.467 26.632L116.818 19.3206L116.784 19.3282L115.458 20.7765C115.326 20.9246 115.174 21.0179 115.003 21.0564C114.819 21.098 114.655 21.0735 114.511 20.9829C114.367 20.8877 114.273 20.7434 114.229 20.5499C114.169 20.2843 114.251 20.0294 114.475 19.785L116.152 17.9385C116.326 17.7478 116.485 17.6104 116.627 17.5264C116.773 17.4414 116.943 17.3771 117.136 17.3335C117.442 17.2645 117.703 17.2979 117.918 17.4339C118.132 17.5653 118.273 17.7818 118.341 18.0834L120.181 26.2454C120.24 26.5065 120.207 26.7363 120.081 26.9348ZM128.341 25.0939C128.222 25.277 128.038 25.3964 127.791 25.4522C127.543 25.508 127.326 25.4766 127.138 25.3581C126.95 25.2396 126.827 25.0476 126.767 24.782L126.508 23.6343L122.667 24.5004C122.356 24.5704 122.084 24.5372 121.85 24.4008C121.62 24.2634 121.472 24.0484 121.406 23.7559C121.331 23.4228 121.369 23.0006 121.518 22.4892C121.84 21.3998 122.48 19.6428 123.437 17.2183C123.646 16.6747 123.856 16.2867 124.069 16.0544C124.284 15.8165 124.572 15.657 124.933 15.5758C125.383 15.4743 125.759 15.5077 126.062 15.6759C126.365 15.8441 126.562 16.1308 126.653 16.5358L127.846 21.8287L128.528 21.675C128.753 21.6242 128.946 21.6516 129.107 21.7572C129.272 21.8573 129.378 22.0131 129.425 22.2247C129.474 22.4407 129.446 22.6292 129.34 22.7902C129.239 22.9501 129.074 23.056 128.844 23.1077L128.169 23.2599L128.428 24.4076C128.489 24.6776 128.46 24.9064 128.341 25.0939ZM126.222 22.2375L125.059 17.0797L125.032 17.0858C124.481 18.4396 124.041 19.5604 123.711 20.4482C123.382 21.336 123.105 22.1668 122.883 22.9406L122.893 22.9879L126.222 22.2375Z" fill="white"/>
<path d="M22.9085 158.86C23.0749 159.021 23.1583 159.23 23.1588 159.489C23.1592 159.747 23.0766 159.96 22.9108 160.126C22.745 160.288 22.5283 160.369 22.2607 160.369L14.7658 160.383L14.7658 160.417L15.8898 162.028C16.0054 162.189 16.0634 162.357 16.0637 162.533C16.0641 162.722 16.0044 162.876 15.8846 162.997C15.7603 163.117 15.5989 163.177 15.4005 163.177C15.1283 163.178 14.8974 163.042 14.7077 162.77L13.2715 160.731C13.1235 160.519 13.024 160.335 12.973 160.178C12.9219 160.017 12.8962 159.837 12.8959 159.639C12.8953 159.325 12.9849 159.078 13.1645 158.898C13.3395 158.717 13.5815 158.627 13.8907 158.626L22.2576 158.612C22.5251 158.611 22.7421 158.694 22.9085 158.86ZM22.3946 150.073C22.9357 150.796 23.2073 151.73 23.2093 152.874C23.2114 154.018 22.9431 154.953 22.4046 155.678C21.8661 156.404 21.1701 156.767 20.3165 156.769C19.6752 156.77 19.1235 156.563 18.6614 156.149C18.1993 155.734 17.8985 155.19 17.7589 154.517L17.7173 154.517C17.5661 155.094 17.2924 155.556 16.8963 155.903C16.4955 156.245 16.0275 156.416 15.4923 156.417C14.7218 156.419 14.0845 156.09 13.5805 155.431C13.0764 154.768 12.8235 153.921 12.8216 152.893C12.8198 151.864 13.0698 151.019 13.5715 150.358C14.0732 149.698 14.7116 149.367 15.4867 149.365C16.0127 149.364 16.4743 149.534 16.8717 149.875C17.2691 150.216 17.549 150.674 17.7115 151.251L17.7531 151.251C17.8903 150.577 18.1915 150.032 18.6568 149.616C19.1174 149.195 19.666 148.984 20.3027 148.983C21.1562 148.981 21.8536 149.345 22.3946 150.073ZM17.147 152.885C17.146 152.368 17.0069 151.946 16.7295 151.619C16.4521 151.287 16.0965 151.122 15.6628 151.123C15.2199 151.124 14.8604 151.29 14.5841 151.623C14.3079 151.951 14.1702 152.373 14.1711 152.89C14.1721 153.407 14.3135 153.831 14.5955 154.163C14.873 154.49 15.2308 154.653 15.6691 154.652C16.1028 154.651 16.4577 154.487 16.734 154.159C17.0102 153.831 17.1479 153.406 17.147 152.885ZM21.378 154.345C21.691 153.961 21.847 153.472 21.846 152.877C21.8449 152.281 21.6872 151.793 21.3728 151.41C21.0584 151.028 20.659 150.837 20.1745 150.838C19.6855 150.839 19.2867 151.031 18.9783 151.414C18.6652 151.793 18.5092 152.283 18.5103 152.882C18.5114 153.478 18.6691 153.966 18.9835 154.349C19.2979 154.731 19.6973 154.922 20.1818 154.921C20.6662 154.92 21.0649 154.728 21.378 154.345Z" fill="white"/>
<path d="M70.8024 258.693C71.0014 258.879 71.1093 259.071 71.1259 259.27C71.136 259.468 71.0624 259.652 70.905 259.821C70.7885 259.946 70.6609 260.032 70.5221 260.079C70.3834 260.126 70.1818 260.149 69.9174 260.149L65.6227 260.277C64.7291 260.301 64.0899 260.364 63.7049 260.466C63.3199 260.567 62.9968 260.758 62.7355 261.038C62.4302 261.365 62.2929 261.738 62.3237 262.158C62.3513 262.582 62.5406 262.957 62.8913 263.285C63.549 263.898 64.3162 263.996 65.193 263.577C65.3895 263.502 65.5615 263.473 65.709 263.491C65.8565 263.509 66.0028 263.585 66.1478 263.721C66.3232 263.884 66.4158 264.062 66.4257 264.255C66.4356 264.447 66.3634 264.626 66.2092 264.791C66.1242 264.882 66.0257 264.961 65.9137 265.026C65.6742 265.182 65.4006 265.292 65.0927 265.358C64.7815 265.421 64.4507 265.434 64.1001 265.397C63.7464 265.364 63.3771 265.256 62.9921 265.073C62.6072 264.891 62.2444 264.64 61.9037 264.322C61.1752 263.642 60.7642 262.893 60.6707 262.073C60.574 261.257 60.8121 260.542 61.3851 259.929C61.7723 259.514 62.249 259.233 62.8152 259.086C63.3748 258.939 64.2516 258.852 65.4453 258.824L68.6593 258.738L68.6829 258.712L65.7688 255.993C65.5968 255.832 65.5076 255.657 65.501 255.468C65.4912 255.276 65.5618 255.099 65.7129 254.937C65.864 254.775 66.0358 254.692 66.2282 254.689C66.4142 254.686 66.5932 254.765 66.7652 254.925L70.8024 258.693ZM63.1593 251.285C63.7226 251.811 64.1046 252.382 64.3054 252.998C64.4997 253.615 64.5236 254.168 64.3772 254.656C64.3127 254.867 64.2238 255.033 64.1104 255.155C63.9656 255.31 63.7987 255.391 63.6095 255.397C63.4204 255.404 63.2399 255.327 63.0679 255.166C62.9397 255.046 62.8584 254.914 62.824 254.768C62.7831 254.623 62.7733 254.434 62.7947 254.201C62.8394 253.795 62.8144 253.446 62.7195 253.156C62.6212 252.862 62.4254 252.578 62.132 252.305C61.5788 251.788 60.937 251.634 60.2064 251.842C59.4725 252.047 58.707 252.569 57.9101 253.41L57.8346 253.491L57.8548 253.51C58.3302 253.284 58.8457 253.229 59.4013 253.344C59.9569 253.458 60.4691 253.734 60.9379 254.172C61.6294 254.817 61.9968 255.58 62.0401 256.46C62.0835 257.34 61.7794 258.129 61.1277 258.827C60.4352 259.569 59.609 259.94 58.6493 259.941C57.6831 259.941 56.8054 259.573 56.0162 258.837C55.4428 258.301 55.0676 257.693 54.8907 257.01C54.7104 256.324 54.7425 255.6 54.9872 254.837C55.2557 254.009 55.7724 253.185 56.5374 252.365C57.6738 251.148 58.8264 250.444 59.995 250.253C61.1635 250.063 62.2183 250.407 63.1593 251.285ZM59.69 254.901C59.265 254.504 58.7882 254.308 58.2595 254.313C57.7309 254.319 57.2777 254.523 56.8999 254.928C56.5159 255.34 56.3349 255.818 56.3569 256.362C56.3755 256.903 56.5906 257.366 57.0021 257.75C57.4102 258.131 57.8865 258.314 58.4311 258.298C58.9726 258.286 59.4291 258.081 59.8005 257.683C60.1878 257.268 60.3707 256.798 60.3493 256.273C60.3246 255.745 60.1048 255.288 59.69 254.901Z" fill="white"/>
<path d="M36.7762 96.3522C36.3794 97.0975 35.9092 97.652 35.3653 98.0159C34.8215 98.3797 34.2534 98.5582 33.6613 98.5514C33.3991 98.5529 33.1621 98.4974 32.9503 98.3846C32.7426 98.2741 32.6102 98.1252 32.5531 97.938C32.4981 97.7467 32.5291 97.5411 32.6462 97.3211C32.7308 97.1623 32.8379 97.0495 32.9675 96.9826C33.0994 96.9117 33.2684 96.8788 33.4747 96.8841C33.9054 96.9095 34.2894 96.8264 34.6265 96.6348C34.9597 96.441 35.2498 96.112 35.4969 95.6477C35.7614 95.1509 35.8477 94.6794 35.7559 94.2333C35.6663 93.7831 35.4198 93.4507 35.0166 93.2361C34.5505 92.9827 34.1055 92.9497 33.6817 93.1371C33.256 93.3181 32.8915 93.6938 32.588 94.2639L32.3213 94.7649C32.2194 94.9563 32.0852 95.0808 31.9186 95.1385C31.7501 95.1899 31.5783 95.169 31.4032 95.0758C31.228 94.9826 31.1168 94.8528 31.0695 94.6865C31.0202 94.514 31.0465 94.332 31.1484 94.1405L31.3955 93.6763C31.6535 93.1916 31.7374 92.7345 31.6472 92.305C31.557 91.8754 31.3144 91.5555 30.9194 91.3452C30.5284 91.1371 30.1506 91.1007 29.786 91.2358C29.4194 91.3648 29.1093 91.6675 28.8557 92.144C28.6389 92.5513 28.5477 92.9287 28.5822 93.2763C28.6126 93.6218 28.7628 93.9631 29.0329 94.3002C29.1788 94.4876 29.2622 94.6549 29.2832 94.8019C29.3064 94.945 29.2703 95.1061 29.1749 95.2852C29.06 95.5011 28.9121 95.6366 28.7311 95.6919C28.5523 95.7431 28.3611 95.7144 28.1575 95.606C27.9375 95.489 27.7549 95.3264 27.6095 95.1184C27.2683 94.6597 27.0893 94.1123 27.0725 93.4762C27.0557 92.8401 27.2315 92.1758 27.6001 91.4835C28.0813 90.5794 28.681 89.9682 29.3992 89.6501C30.1194 89.3279 30.8237 89.35 31.512 89.7164C32.0496 90.0026 32.4086 90.4132 32.5889 90.9482C32.7693 91.4832 32.7702 92.056 32.5916 92.6665L32.6221 92.6828C33.0344 92.0555 33.534 91.6472 34.1208 91.4579C34.7036 91.2663 35.2984 91.3321 35.9053 91.6551C36.6831 92.0691 37.1528 92.7137 37.3141 93.5888C37.4714 94.4618 37.2921 95.3829 36.7762 96.3522ZM40.7134 88.9554C40.3167 89.7007 39.8464 90.2553 39.3026 90.6191C38.7587 90.983 38.1907 91.1615 37.5985 91.1546C37.3363 91.1562 37.0994 91.1006 36.8876 90.9879C36.6799 90.8773 36.5475 90.7284 36.4903 90.5412C36.4353 90.3499 36.4664 90.1443 36.5835 89.9244C36.668 89.7656 36.7751 89.6527 36.9048 89.5858C37.0366 89.5149 37.2057 89.4821 37.4119 89.4873C37.8427 89.5128 38.2266 89.4297 38.5638 89.2381C38.8969 89.0443 39.187 88.7153 39.4342 88.251C39.6986 87.7541 39.785 87.2826 39.6932 86.8365C39.6035 86.3864 39.3571 86.054 38.9539 85.8394C38.4877 85.586 38.0427 85.553 37.619 85.7403C37.1933 85.9214 36.8287 86.297 36.5252 86.8672L36.2586 87.3681C36.1567 87.5596 36.0224 87.6841 35.8558 87.7418C35.6874 87.7932 35.5155 87.7723 35.3404 87.6791C35.1653 87.5859 35.0541 87.4561 35.0067 87.2898C34.9574 87.1172 34.9838 86.9352 35.0856 86.7438L35.3328 86.2795C35.5907 85.7949 35.6746 85.3378 35.5845 84.9082C35.4943 84.4787 35.2517 84.1588 34.8566 83.9485C34.4657 83.7404 34.0878 83.7039 33.7232 83.8391C33.3567 83.968 33.0466 84.2707 32.7929 84.7472C32.5761 85.1545 32.485 85.532 32.5195 85.8796C32.5499 86.225 32.7001 86.5663 32.9701 86.9035C33.116 87.0909 33.1995 87.2581 33.2205 87.4052C33.2437 87.5482 33.2076 87.7093 33.1122 87.8885C32.9973 88.1044 32.8493 88.2399 32.6684 88.2951C32.4896 88.3463 32.2983 88.3177 32.0947 88.2093C31.8748 88.0922 31.6921 87.9297 31.5468 87.7216C31.2055 87.263 31.0265 86.7156 31.0097 86.0795C30.9929 85.4433 31.1688 84.7791 31.5373 84.0867C32.0186 83.1826 32.6183 82.5715 33.3364 82.2534C34.0567 81.9312 34.761 81.9533 35.4493 82.3197C35.9868 82.6058 36.3458 83.0164 36.5262 83.5515C36.7066 84.0865 36.7074 84.6593 36.5288 85.2698L36.5593 85.286C36.9716 84.6588 37.4712 84.2505 38.0581 84.0611C38.6409 83.8696 39.2357 83.9353 39.8425 84.2583C40.6204 84.6724 41.09 85.317 41.2514 86.1921C41.4087 87.065 41.2294 87.9861 40.7134 88.9554Z" fill="white"/>
<path d="M37.4287 216.796C38.2366 217.2 38.8979 217.913 39.4126 218.935C39.9272 219.957 40.1064 220.913 39.9501 221.803C39.7938 222.693 39.3345 223.329 38.5722 223.713C37.9994 224.002 37.4136 224.064 36.8148 223.901C36.2159 223.738 35.7032 223.386 35.2766 222.847L35.2395 222.866C35.363 223.449 35.3253 223.985 35.1266 224.472C34.9216 224.958 34.5802 225.321 34.1022 225.562C33.414 225.908 32.697 225.9 31.9511 225.537C31.2031 225.17 30.5978 224.527 30.135 223.608C29.6722 222.689 29.517 221.822 29.6694 221.006C29.8218 220.191 30.2441 219.609 30.9364 219.26C31.4061 219.024 31.895 218.968 32.4029 219.095C32.9109 219.221 33.3667 219.506 33.7703 219.948L33.8074 219.93C33.628 219.266 33.653 218.644 33.8824 218.063C34.1057 217.481 34.5016 217.046 35.0702 216.76C35.8325 216.376 36.6187 216.388 37.4287 216.796ZM33.9981 221.662C33.7656 221.201 33.4521 220.886 33.0576 220.718C32.6609 220.546 32.2689 220.557 31.8816 220.752C31.486 220.951 31.2393 221.262 31.1415 221.683C31.0416 222.1 31.1078 222.539 31.3403 223.001C31.5727 223.462 31.8893 223.778 32.2901 223.948C32.6846 224.116 33.0777 224.102 33.4691 223.905C33.8565 223.709 34.1001 223.403 34.2 222.986C34.2999 222.569 34.2326 222.128 33.9981 221.662ZM38.4345 221.071C38.5425 220.588 38.4626 220.08 38.1949 219.549C37.9272 219.017 37.5671 218.651 37.1147 218.45C36.6623 218.249 36.2197 218.258 35.787 218.475C35.3502 218.695 35.0799 219.046 34.9761 219.527C34.8661 220.006 34.9459 220.513 35.2157 221.049C35.4834 221.581 35.8435 221.947 36.2959 222.148C36.7484 222.349 37.1909 222.34 37.6236 222.122C38.0563 221.904 38.3266 221.554 38.4345 221.071Z" fill="white"/>
<path d="M66.5692 56.3243C66.5535 56.5423 66.4509 56.7358 66.2616 56.9047C66.0722 57.0736 65.8668 57.1517 65.6453 57.1391C65.4238 57.1264 65.2225 57.0185 65.0413 56.8154L64.2582 55.9374L61.3195 58.5585C61.0819 58.7704 60.8277 58.8735 60.5568 58.8678C60.2893 58.8591 60.0558 58.7428 59.8562 58.519C59.6289 58.2642 59.4566 57.877 59.3393 57.3572C59.0922 56.2484 58.799 54.4018 58.4598 51.8173C58.3783 51.2408 58.3741 50.7994 58.4472 50.4931C58.5206 50.1804 58.695 49.9012 58.9705 49.6555C59.3148 49.3484 59.6601 49.1949 60.0065 49.1951C60.3529 49.1953 60.6642 49.3503 60.9406 49.6602L64.5521 53.7093L65.0737 53.244C65.2459 53.0905 65.428 53.0208 65.62 53.035C65.8123 53.0428 65.9806 53.1275 66.125 53.2894C66.2724 53.4546 66.339 53.6333 66.3247 53.8252C66.314 54.0141 66.2208 54.1869 66.0452 54.3435L65.5287 54.8042L66.3118 55.6822C66.4961 55.8888 66.5819 56.1028 66.5692 56.3243ZM63.3299 54.855L59.8105 50.9092L59.7899 50.9277C59.9651 52.3787 60.1241 53.5723 60.2666 54.5085C60.4092 55.4447 60.5708 56.3051 60.7515 57.0899L60.7837 57.126L63.3299 54.855Z" fill="white"/>
<path d="M88.3857 270.7C88.6157 270.846 88.7573 271.015 88.8105 271.207C88.8572 271.4 88.8189 271.594 88.6955 271.789C88.6042 271.934 88.4948 272.042 88.3672 272.114C88.2396 272.186 88.0458 272.246 87.7859 272.295L83.5895 273.217C82.7159 273.407 82.0993 273.587 81.7399 273.758C81.3804 273.929 81.0982 274.176 80.8934 274.5C80.654 274.878 80.5883 275.27 80.6965 275.677C80.8021 276.088 81.0577 276.422 81.4631 276.679C82.2232 277.16 82.9952 277.114 83.7791 276.54C83.9582 276.429 84.1219 276.369 84.2702 276.359C84.4184 276.349 84.5763 276.398 84.744 276.504C84.9466 276.632 85.0707 276.79 85.116 276.977C85.1614 277.164 85.1236 277.353 85.0027 277.544C84.936 277.649 84.8538 277.745 84.756 277.83C84.5494 278.027 84.301 278.186 84.0108 278.308C83.7167 278.428 83.3939 278.502 83.0426 278.531C82.6888 278.564 82.3059 278.526 81.8938 278.418C81.4816 278.31 81.0787 278.131 80.685 277.882C79.843 277.349 79.3001 276.688 79.0563 275.9C78.81 275.116 78.9115 274.37 79.3607 273.66C79.6643 273.181 80.0806 272.817 80.6098 272.567C81.1326 272.319 81.9779 272.071 83.1458 271.822L86.288 271.141L86.3065 271.112L82.9387 268.98C82.7399 268.854 82.6197 268.699 82.5783 268.514C82.5329 268.327 82.5695 268.14 82.6879 267.953C82.8064 267.766 82.9599 267.653 83.1484 267.614C83.3306 267.576 83.521 267.62 83.7198 267.746L88.3857 270.7ZM79.3086 264.715C79.9557 265.125 80.4496 265.634 80.7903 266.243C81.1286 266.856 81.2554 267.458 81.1708 268.049C81.1345 268.304 81.0584 268.524 80.9424 268.707C80.819 268.902 80.6631 269.019 80.4745 269.058C80.2836 269.101 80.0887 269.059 79.8899 268.933C79.73 268.832 79.6204 268.716 79.5611 268.586C79.4978 268.453 79.4765 268.284 79.4973 268.079C79.5727 267.64 79.5306 267.237 79.3709 266.868C79.2087 266.503 78.9268 266.194 78.5253 265.94C78.0264 265.624 77.5159 265.524 76.9939 265.642C76.4719 265.759 76.0529 266.067 75.737 266.566C75.4309 267.049 75.339 267.548 75.4612 268.062C75.5795 268.574 75.8881 268.988 76.387 269.304C76.9016 269.63 77.4524 269.73 78.0395 269.605C78.326 269.54 78.5411 269.515 78.6848 269.53C78.8246 269.542 78.9802 269.602 79.1517 269.711C79.3856 269.859 79.5193 270.045 79.5527 270.268C79.5861 270.491 79.531 270.707 79.3875 270.917C79.3628 270.956 79.3411 270.986 79.3224 271.007L77.0357 274.023C76.8011 274.333 76.5531 274.509 76.2917 274.551C76.0264 274.591 75.7261 274.504 75.3909 274.292L71.7541 271.989C71.5631 271.868 71.4449 271.714 71.3995 271.527C71.3542 271.34 71.3895 271.155 71.5055 270.972C71.624 270.785 71.7775 270.672 71.966 270.633C72.1545 270.594 72.3443 270.635 72.5353 270.756L75.9441 272.914L77.7471 270.558L77.7178 270.54C77.3707 270.691 76.9833 270.738 76.5557 270.68C76.1243 270.62 75.698 270.457 75.277 270.19C74.4702 269.679 73.9704 269.002 73.7778 268.159C73.5851 267.317 73.7442 266.492 74.2552 265.685C74.813 264.804 75.5614 264.273 76.5005 264.092C77.4371 263.915 78.3731 264.123 79.3086 264.715Z" fill="white"/>
<path d="M27.8862 117.818C27.8051 118.077 27.6787 118.258 27.5069 118.359C27.3322 118.454 27.1347 118.467 26.9145 118.399C26.7516 118.348 26.6187 118.27 26.5161 118.166C26.4134 118.061 26.305 117.889 26.191 117.651L24.2139 113.836C23.8047 113.041 23.471 112.492 23.2128 112.19C22.9546 111.887 22.6427 111.678 22.2772 111.564C21.85 111.43 21.4538 111.469 21.0886 111.678C20.719 111.887 20.4627 112.22 20.3197 112.678C20.0515 113.537 20.2961 114.271 21.0534 114.879C21.2065 115.024 21.307 115.166 21.3549 115.307C21.4028 115.448 21.3972 115.613 21.3381 115.802C21.2666 116.031 21.1463 116.192 20.9773 116.284C20.8084 116.376 20.616 116.388 20.4002 116.321C20.2813 116.284 20.1679 116.229 20.06 116.157C19.8164 116.008 19.5981 115.81 19.4051 115.561C19.2135 115.308 19.0583 115.015 18.9396 114.683C18.8165 114.35 18.7538 113.97 18.7515 113.544C18.7492 113.118 18.8175 112.683 18.9564 112.238C19.2534 111.287 19.7509 110.591 20.4488 110.152C21.1422 109.711 21.8897 109.616 22.6913 109.866C23.233 110.035 23.6927 110.343 24.0704 110.79C24.4451 111.231 24.9038 111.983 25.4465 113.046L26.9173 115.906L26.9503 115.916L28.1384 112.111C28.2086 111.886 28.3274 111.73 28.495 111.642C28.664 111.55 28.8542 111.537 29.0656 111.603C29.2769 111.669 29.4259 111.788 29.5123 111.96C29.5958 112.126 29.6024 112.321 29.5323 112.546L27.8862 117.818ZM31.1197 107.091C31.2301 107.294 31.2468 107.52 31.1698 107.766C31.0928 108.013 30.9502 108.191 30.7422 108.3C30.5355 108.404 30.3045 108.417 30.049 108.337L22.8948 106.103L22.8845 106.136L23.474 108.009C23.536 108.198 23.5408 108.376 23.4886 108.543C23.4322 108.724 23.3289 108.854 23.1786 108.932C23.024 109.01 22.852 109.019 22.6626 108.96C22.4027 108.878 22.2231 108.68 22.1237 108.364L21.3648 105.988C21.2871 105.741 21.2474 105.536 21.2457 105.371C21.2454 105.201 21.2748 105.022 21.3339 104.833C21.4275 104.533 21.5869 104.324 21.8123 104.206C22.0333 104.087 22.2913 104.073 22.5864 104.165L30.573 106.659C30.8284 106.739 31.0106 106.883 31.1197 107.091Z" fill="white"/>
<path d="M51.5907 239.295C51.8208 239.322 52.0143 239.439 52.1712 239.644C52.3282 239.849 52.3912 240.068 52.3602 240.301C52.3264 240.53 52.2032 240.726 51.9907 240.889L46.0379 245.443L46.0589 245.47L47.9291 246.07C48.1188 246.128 48.2669 246.226 48.3734 246.366C48.4884 246.516 48.5346 246.675 48.5122 246.843C48.4862 247.014 48.3944 247.16 48.2368 247.281C48.0206 247.446 47.7547 247.478 47.4391 247.377L45.0608 246.626C44.8146 246.547 44.6237 246.46 44.4881 246.367C44.3497 246.269 44.2202 246.142 44.0996 245.984C43.909 245.735 43.8305 245.484 43.8641 245.232C43.894 244.983 44.0317 244.764 44.2772 244.576L50.9227 239.493C51.1352 239.33 51.3579 239.264 51.5907 239.295ZM49.8168 236.794C49.9821 237.01 50.0566 237.218 50.04 237.416C50.017 237.614 49.9138 237.783 49.7306 237.923C49.595 238.027 49.4549 238.09 49.3103 238.114C49.1656 238.137 48.963 238.127 48.7023 238.082L44.446 237.496C43.5607 237.371 42.9199 237.327 42.5235 237.363C42.127 237.399 41.7767 237.534 41.4726 237.766C41.1171 238.038 40.9197 238.384 40.8803 238.803C40.8373 239.225 40.9615 239.627 41.2531 240.008C41.7997 240.722 42.5401 240.946 43.4741 240.679C43.6804 240.637 43.8548 240.637 43.9974 240.679C44.1399 240.721 44.2714 240.821 44.3919 240.979C44.5377 241.169 44.5995 241.36 44.5773 241.551C44.5551 241.743 44.4543 241.907 44.2747 242.044C44.1758 242.12 44.0656 242.181 43.9443 242.227C43.6824 242.341 43.3941 242.404 43.0796 242.418C42.7623 242.429 42.4338 242.387 42.0943 242.292C41.751 242.2 41.4048 242.032 41.0555 241.788C40.7062 241.544 40.39 241.237 40.1069 240.867C39.5014 240.076 39.2205 239.268 39.2644 238.445C39.3045 237.624 39.6581 236.959 40.325 236.448C40.7757 236.104 41.2924 235.906 41.8752 235.855C42.4514 235.803 43.3304 235.863 44.5123 236.033L47.696 236.482L47.7235 236.461L45.3015 233.295C45.1585 233.108 45.0995 232.921 45.1245 232.733C45.1467 232.542 45.2457 232.379 45.4216 232.245C45.5975 232.11 45.7806 232.057 45.971 232.086C46.1549 232.113 46.3183 232.221 46.4613 232.408L49.8168 236.794Z" fill="white"/>
<path d="M48.1706 76.0399C48.2038 76.2692 48.1415 76.4862 47.984 76.691C47.8264 76.8957 47.6311 77.0132 47.3982 77.0435C47.1681 77.0702 46.947 77.0019 46.7349 76.8387L40.7955 72.2673L40.7744 72.2948L40.6794 74.2564C40.6723 74.4547 40.6153 74.6233 40.5084 74.7623C40.393 74.9122 40.2512 74.9981 40.083 75.02C39.9111 75.039 39.7465 74.9881 39.5893 74.8671C39.3736 74.701 39.2738 74.4525 39.2899 74.1214L39.3999 71.6298C39.4124 71.3716 39.4463 71.1648 39.5018 71.0096C39.56 70.8506 39.6497 70.6926 39.7707 70.5354C39.962 70.2867 40.1839 70.146 40.4362 70.1132C40.6849 70.0775 40.9317 70.154 41.1767 70.3425L47.8071 75.4457C48.0191 75.6089 48.1403 75.807 48.1706 76.0399ZM52.1522 71.3775C51.6738 71.999 51.1032 72.4302 50.4404 72.6711C49.7776 72.912 49.0537 72.9487 48.2686 72.7811C47.4292 72.6008 46.5617 72.1659 45.6659 71.4765C44.3461 70.4606 43.5345 69.3819 43.2313 68.2403C42.9245 67.0959 43.1579 66.021 43.9318 65.0155C44.3849 64.4269 44.9 63.9996 45.4773 63.7336C46.051 63.4649 46.609 63.3791 47.1513 63.4763C47.3696 63.5104 47.5518 63.5837 47.6981 63.6963C47.8626 63.8229 47.9575 63.9833 47.9828 64.1774C48.0044 64.3687 47.9448 64.5557 47.8041 64.7385C47.7 64.8738 47.5775 64.9687 47.4365 65.0232C47.2947 65.0713 47.1071 65.0957 46.8736 65.0965C46.4807 65.0852 46.1398 65.146 45.8512 65.2789C45.5617 65.4054 45.3044 65.6149 45.0793 65.9074C44.6262 66.4961 44.5332 67.1464 44.8002 67.8585C45.0673 68.5705 45.6577 69.2898 46.5714 70.0164L46.6537 70.0797L46.6748 70.0523C46.4184 69.5988 46.3209 69.09 46.3824 68.526C46.443 67.9555 46.6731 67.4107 47.0727 66.8915C47.658 66.1311 48.3814 65.6981 49.2428 65.5925C50.1033 65.4805 50.9101 65.7144 51.6633 66.2941C52.4676 66.9132 52.9141 67.7022 53.0028 68.6612C53.0942 69.6165 52.8107 70.5219 52.1522 71.3775ZM49.6576 71.2827C50.2011 71.2119 50.6431 70.9554 50.9836 70.513C51.3241 70.0706 51.4627 69.5805 51.3992 69.0426C51.3322 68.5019 51.0811 68.0641 50.646 67.7293C50.1954 67.3767 49.71 67.2359 49.1895 67.3069C48.6691 67.3779 48.233 67.642 47.8813 68.099C47.5295 68.556 47.3831 69.0488 47.442 69.5774C47.4973 70.1031 47.7443 70.5349 48.183 70.8725C48.6254 71.213 49.117 71.3498 49.6576 71.2827Z" fill="white"/>
</svg>
