<svg width="96" height="96" viewBox="0 0 96 96" fill="none" xmlns="http://www.w3.org/2000/svg">
<g clip-path="url(#clip0_5_844)">
<rect width="96" height="96" rx="39" fill="url(#paint0_linear_5_844)"/>
<g filter="url(#filter0_f_5_844)">
<circle cx="105.469" cy="18.0938" r="36.0938" fill="url(#paint1_linear_5_844)"/>
</g>
<g filter="url(#filter1_f_5_844)">
<circle cx="23.9062" cy="95.9062" r="36.0938" fill="url(#paint2_linear_5_844)"/>
</g>
<path d="M54.4494 29.9314C57.6664 29.9654 59.3036 30.312 61.0011 31.2199C62.626 32.0889 63.9111 33.374 64.7801 34.9989C65.688 36.6964 66.0346 38.3336 66.0686 41.5506V54.4494C66.0346 57.6664 65.688 59.3036 64.7801 61.0011C63.9111 62.626 62.626 63.9111 61.0011 64.7801C59.3036 65.688 57.6664 66.0346 54.4494 66.0686H41.5506C38.3336 66.0346 36.6964 65.688 34.9989 64.7801C33.374 63.9111 32.0889 62.626 31.2199 61.0011C30.312 59.3036 29.9653 57.6664 29.9314 54.4494V41.5506C29.9653 38.3336 30.312 36.6964 31.2199 34.9989C32.0889 33.374 33.374 32.0889 34.9989 31.2199C36.6964 30.312 38.3336 29.9654 41.5506 29.9314H54.4494ZM41.186 33.2223C38.7557 33.2684 37.6675 33.5188 36.5484 34.1173C35.4961 34.6801 34.68 35.4961 34.1173 36.5484C33.5188 37.6675 33.2684 38.7557 33.2223 41.186V54.814C33.2684 57.2443 33.5188 58.3325 34.1173 59.4516C34.68 60.5039 35.4961 61.3199 36.5484 61.8827C37.6675 62.4812 38.7557 62.7316 41.186 62.7777H54.814C57.2443 62.7316 58.3324 62.4812 59.4515 61.8827C60.5039 61.3199 61.3199 60.5039 61.8827 59.4516C62.4812 58.3325 62.7316 57.2443 62.7777 54.814V41.186C62.7316 38.7557 62.4812 37.6675 61.8827 36.5484C61.3199 35.4961 60.5039 34.6801 59.4515 34.1173C58.3324 33.5188 57.2443 33.2684 54.814 33.2223H41.186Z" fill="white"/>
<mask id="mask0_5_844" style="mask-type:alpha" maskUnits="userSpaceOnUse" x="33" y="33" width="30" height="30">
<path d="M41.186 33.2223C38.7557 33.2684 37.6675 33.5188 36.5484 34.1173C35.4961 34.6801 34.6801 35.4961 34.1173 36.5484C33.5188 37.6675 33.2684 38.7557 33.2223 41.186V54.814C33.2684 57.2443 33.5188 58.3325 34.1173 59.4516C34.6801 60.5039 35.4961 61.3199 36.5484 61.8827C37.6675 62.4812 38.7557 62.7316 41.186 62.7777H54.814C57.2443 62.7316 58.3324 62.4812 59.4516 61.8827C60.5039 61.3199 61.3199 60.5039 61.8827 59.4516C62.4812 58.3325 62.7316 57.2443 62.7777 54.814V41.186C62.7316 38.7557 62.4812 37.6675 61.8827 36.5484C61.3199 35.4961 60.5039 34.6801 59.4516 34.1173C58.3324 33.5188 57.2443 33.2684 54.814 33.2223H41.186Z" fill="#3F8AE0"/>
</mask>
<g mask="url(#mask0_5_844)">
<circle cx="48" cy="76.75" r="19.7143" stroke="white" stroke-width="3.28571"/>
<path d="M48 37.3214C52.3111 37.3214 55.8036 40.8139 55.8036 45.125C55.8036 49.4361 52.3111 52.9286 48 52.9286C43.6889 52.9286 40.1964 49.4361 40.1964 45.125C40.1964 40.8139 43.6889 37.3214 48 37.3214ZM48 40.6071C45.5035 40.6071 43.4821 42.6285 43.4821 45.125C43.4821 47.6215 45.5035 49.6429 48 49.6429C50.4965 49.6429 52.5178 47.6215 52.5178 45.125C52.5178 42.6285 50.4965 40.6071 48 40.6071Z" fill="white"/>
</g>
<path d="M48 37.3214C52.3111 37.3214 55.8036 40.8139 55.8036 45.125C55.8036 49.4361 52.3111 52.9286 48 52.9286C43.6889 52.9286 40.1964 49.4361 40.1964 45.125C40.1964 40.8139 43.6889 37.3214 48 37.3214ZM48 40.6071C45.5035 40.6071 43.4821 42.6285 43.4821 45.125C43.4821 47.6215 45.5035 49.6429 48 49.6429C50.4965 49.6429 52.5178 47.6215 52.5178 45.125C52.5178 42.6285 50.4965 40.6071 48 40.6071Z" fill="white"/>
<path fill-rule="evenodd" clip-rule="evenodd" d="M61.0011 31.2199C59.3036 30.312 57.6664 29.9654 54.4494 29.9314H41.5506C38.3336 29.9654 36.6964 30.312 34.9989 31.2199C33.374 32.0889 32.0889 33.374 31.2199 34.9989C30.312 36.6964 29.9653 38.3336 29.9314 41.5506V54.4494C29.9653 57.6664 30.312 59.3036 31.2199 61.0011C32.0889 62.626 33.374 63.9111 34.9989 64.7801C36.6964 65.688 38.3336 66.0346 41.5506 66.0686H54.4494C57.6664 66.0346 59.3036 65.688 61.0011 64.7801C62.626 63.9111 63.9111 62.626 64.7801 61.0011C65.688 59.3036 66.0346 57.6664 66.0686 54.4494V41.5506C66.0346 38.3336 65.688 36.6964 64.7801 34.9989C63.9111 33.374 62.626 32.0889 61.0011 31.2199ZM36.5484 34.1173C37.6675 33.5188 38.7557 33.2684 41.186 33.2223H54.814C57.2443 33.2684 58.3324 33.5188 59.4515 34.1173C60.5039 34.6801 61.3199 35.4961 61.8827 36.5484C62.4812 37.6675 62.7316 38.7557 62.7777 41.186V54.814C62.7316 57.2443 62.4812 58.3325 61.8827 59.4516C61.7504 59.699 61.6041 59.9333 61.444 60.1544C57.7731 57.1769 53.0949 55.3929 48 55.3929C42.9051 55.3929 38.2269 57.1769 34.556 60.1544C34.3959 59.9333 34.2496 59.699 34.1173 59.4516C33.5188 58.3325 33.2684 57.2443 33.2223 54.814V41.186C33.2684 38.7557 33.5188 37.6675 34.1173 36.5484C34.68 35.4961 35.4961 34.6801 36.5484 34.1173ZM48 37.3214C52.3111 37.3214 55.8036 40.8139 55.8036 45.125C55.8036 49.4361 52.3111 52.9286 48 52.9286C43.6889 52.9286 40.1964 49.4361 40.1964 45.125C40.1964 40.8139 43.6889 37.3214 48 37.3214ZM41.186 62.7777H54.814C56.735 62.7413 57.8174 62.5772 58.7394 62.2144C55.737 59.9925 52.022 58.6786 48 58.6786C43.978 58.6786 40.2629 59.9925 37.2605 62.2144C38.1825 62.5772 39.265 62.7413 41.186 62.7777ZM43.4821 45.125C43.4821 42.6285 45.5035 40.6071 48 40.6071C50.4965 40.6071 52.5178 42.6285 52.5178 45.125C52.5178 47.6215 50.4965 49.6429 48 49.6429C45.5035 49.6429 43.4821 47.6215 43.4821 45.125Z" fill="white"/>
</g>
<defs>
<filter id="filter0_f_5_844" x="-5.88426" y="-93.2593" width="222.706" height="222.706" filterUnits="userSpaceOnUse" color-interpolation-filters="sRGB">
<feFlood flood-opacity="0" result="BackgroundImageFix"/>
<feBlend mode="normal" in="SourceGraphic" in2="BackgroundImageFix" result="shape"/>
<feGaussianBlur stdDeviation="37.6296" result="effect1_foregroundBlur_5_844"/>
</filter>
<filter id="filter1_f_5_844" x="-68.4838" y="3.5162" width="184.78" height="184.78" filterUnits="userSpaceOnUse" color-interpolation-filters="sRGB">
<feFlood flood-opacity="0" result="BackgroundImageFix"/>
<feBlend mode="normal" in="SourceGraphic" in2="BackgroundImageFix" result="shape"/>
<feGaussianBlur stdDeviation="28.1481" result="effect1_foregroundBlur_5_844"/>
</filter>
<linearGradient id="paint0_linear_5_844" x1="-48" y1="48" x2="48" y2="144" gradientUnits="userSpaceOnUse">
<stop stop-color="#70B2FF"/>
<stop offset="1" stop-color="#5C9CE6"/>
</linearGradient>
<linearGradient id="paint1_linear_5_844" x1="33.2812" y1="18.0938" x2="105.469" y2="90.2812" gradientUnits="userSpaceOnUse">
<stop stop-color="#FFB73D"/>
<stop offset="1" stop-color="#FFA000"/>
</linearGradient>
<linearGradient id="paint2_linear_5_844" x1="-48.2812" y1="95.9062" x2="23.9062" y2="168.094" gradientUnits="userSpaceOnUse">
<stop stop-color="#928FFF"/>
<stop offset="1" stop-color="#4B47B2"/>
</linearGradient>
<clipPath id="clip0_5_844">
<rect width="96" height="96" rx="39" fill="white"/>
</clipPath>
</defs>
</svg>
